<svg width="100" height="29" viewBox="0 0 100 29" fill="none" xmlns="http://www.w3.org/2000/svg">
<path d="M15.5972 13.8957V15.4231H14.0593V13.8957H15.5972ZM14.0593 13.8957V12.3837H15.5972V13.8957H14.0593ZM14.0593 12.3837V10.8331H15.5972V12.3837H14.0593ZM14.0593 10.8331V9.29027H15.5972V10.8331H14.0593ZM14.0593 9.29027V7.73971H15.5972V9.29027H14.0593ZM14.0593 7.73971V6.19686H15.5972V7.73971H14.0593ZM14.0593 6.19686V4.64631H15.5972V6.19686H14.0593ZM14.0593 4.64631V3.09575H15.5972V4.64631H14.0593ZM14.0593 3.09575V1.58376H15.5972V3.09575H14.0593ZM12.498 1.58376V0.0332031H14.0593V1.58376H12.498ZM14.0593 13.8957V15.4231H12.498V13.8957H14.0593ZM12.498 13.8957V12.3837H14.0593V13.8957H12.498ZM12.498 12.3837V10.8331H14.0593V12.3837H12.498ZM12.498 10.8331V9.29027H14.0593V10.8331H12.498ZM12.498 9.29027V7.73971H14.0593V9.29027H12.498ZM12.498 7.73971V6.19686H14.0593V7.73971H12.498ZM12.498 6.19686V4.64631H14.0593V6.19686H12.498ZM12.498 4.64631V3.09575H14.0593V4.64631H12.498ZM12.498 3.09575V1.58376H14.0593V3.09575H12.498ZM10.929 1.58376V0.0332031H12.498V1.58376H10.929ZM12.498 13.8957V15.4231H10.929V13.8957H12.498ZM10.929 13.8957V12.3837H12.498V13.8957H10.929ZM9.36768 1.58376V0.0332031H10.929V1.58376H9.36768ZM10.929 13.8957V15.4231H9.36768V13.8957H10.929ZM9.36768 13.8957V12.3837H10.929V13.8957H9.36768ZM7.79859 1.58376V0.0332031H9.36768V1.58376H7.79859ZM7.79859 13.8957V12.3837H9.36768V13.8957H7.79859ZM7.79859 12.3837V10.8331H9.36768V12.3837H7.79859ZM7.79859 10.8331V9.29027H9.36768V10.8331H7.79859ZM7.79859 9.29027V7.73971H9.36768V9.29027H7.79859ZM7.79859 6.19686V4.64631H9.36768V6.19686H7.79859ZM7.79859 4.64631V3.09575H9.36768V4.64631H7.79859ZM7.79859 3.09575V1.58376H9.36768V3.09575H7.79859ZM7.79859 13.8957V15.4231H6.22951V13.8957H7.79859ZM6.22951 13.8957V12.3837H7.79859V13.8957H6.22951ZM6.22951 12.3837V10.8331H7.79859V12.3837H6.22951ZM6.22951 10.8331V9.29027H7.79859V10.8331H6.22951ZM6.22951 9.29027V7.73971H7.79859V9.29027H6.22951ZM6.22951 6.19686V4.64631H7.79859V6.19686H6.22951ZM6.22951 4.64631V3.09575H7.79859V4.64631H6.22951ZM6.22951 3.09575V1.58376H7.79859V3.09575H6.22951ZM4.69945 1.58376V0.0332031H6.22951V1.58376H4.69945ZM6.22951 13.8957V15.4231H4.69945V13.8957H6.22951ZM4.69945 13.8957V12.3837H6.22951V13.8957H4.69945ZM4.69945 12.3837V10.8331H6.22951V12.3837H4.69945ZM4.69945 10.8331V9.29027H6.22951V10.8331H4.69945ZM4.69945 9.29027V7.73971H6.22951V9.29027H4.69945ZM4.69945 6.19686V4.64631H6.22951V6.19686H4.69945ZM4.69945 4.64631V3.09575H6.22951V4.64631H4.69945ZM4.69945 3.09575V1.58376H6.22951V3.09575H4.69945ZM3.13037 1.58376V0.0332031H4.69945V1.58376H3.13037ZM4.69945 13.8957V15.4231H3.13037V13.8957H4.69945ZM3.13037 13.8957V12.3837H4.69945V13.8957H3.13037ZM1.56909 1.58376V0.0332031H3.13037V1.58376H1.56909ZM3.13037 13.8957V15.4231H1.56909V13.8957H3.13037ZM1.56909 13.8957V12.3837H3.13037V13.8957H1.56909ZM0 1.58376V0.0332031H1.56909V1.58376H0ZM0 13.8957V12.3837H1.56909V13.8957H0ZM0 12.3837V10.8331H1.56909V12.3837H0ZM0 10.8331V9.29027H1.56909V10.8331H0ZM0 9.29027V7.73971H1.56909V9.29027H0ZM0 7.73971V6.19686H1.56909V7.73971H0ZM0 6.19686V4.64631H1.56909V6.19686H0ZM0 4.64631V3.09575H1.56909V4.64631H0ZM0 3.09575V1.58376H1.56909V3.09575H0Z" fill="#0099DB"/>
<path d="M29.6643 13.8957V15.4231H28.1265V13.8957H29.6643ZM28.1265 13.8957V12.3837H29.6643V13.8957H28.1265ZM28.1265 12.3837V10.8331H29.6643V12.3837H28.1265ZM28.1265 10.8331V9.29027H29.6643V10.8331H28.1265ZM28.1265 9.29027V7.73971H29.6643V9.29027H28.1265ZM28.1265 7.73971V6.19686H29.6643V7.73971H28.1265ZM28.1265 6.19686V4.64631H29.6643V6.19686H28.1265ZM28.1265 4.64631V3.09575H29.6643V4.64631H28.1265ZM28.1265 13.8957V15.4231H26.5652V13.8957H28.1265ZM26.5652 13.8957V12.3837H28.1265V13.8957H26.5652ZM26.5652 12.3837V10.8331H28.1265V12.3837H26.5652ZM26.5652 10.8331V9.29027H28.1265V10.8331H26.5652ZM26.5652 9.29027V7.73971H28.1265V9.29027H26.5652ZM26.5652 7.73971V6.19686H28.1265V7.73971H26.5652ZM26.5652 6.19686V4.64631H28.1265V6.19686H26.5652ZM26.5652 4.64631V3.09575H28.1265V4.64631H26.5652ZM26.5652 3.09575V1.58376H28.1265V3.09575H26.5652ZM24.9961 1.58376V0.0332031H26.5652V1.58376H24.9961ZM26.5652 13.8957V15.4231H24.9961V13.8957H26.5652ZM24.9961 13.8957V12.3837H26.5652V13.8957H24.9961ZM24.9961 3.09575V1.58376H26.5652V3.09575H24.9961ZM23.4348 1.58376V0.0332031H24.9961V1.58376H23.4348ZM24.9961 13.8957V15.4231H23.4348V13.8957H24.9961ZM23.4348 13.8957V12.3837H24.9961V13.8957H23.4348ZM21.8657 1.58376V0.0332031H23.4348V1.58376H21.8657ZM21.8657 13.8957V12.3837H23.4348V13.8957H21.8657ZM21.8657 12.3837V10.8331H23.4348V12.3837H21.8657ZM21.8657 10.8331V9.29027H23.4348V10.8331H21.8657ZM21.8657 7.73971V6.19686H23.4348V7.73971H21.8657ZM21.8657 6.19686V4.64631H23.4348V6.19686H21.8657ZM21.8657 4.64631V3.09575H23.4348V4.64631H21.8657ZM20.2966 1.58376V0.0332031H21.8657V1.58376H20.2966ZM21.8657 13.8957V15.4231H20.2966V13.8957H21.8657ZM20.2966 13.8957V12.3837H21.8657V13.8957H20.2966ZM20.2966 12.3837V10.8331H21.8657V12.3837H20.2966ZM20.2966 10.8331V9.29027H21.8657V10.8331H20.2966ZM20.2966 7.73971V6.19686H21.8657V7.73971H20.2966ZM20.2966 6.19686V4.64631H21.8657V6.19686H20.2966ZM20.2966 4.64631V3.09575H21.8657V4.64631H20.2966ZM18.7666 1.58376V0.0332031H20.2966V1.58376H18.7666ZM20.2966 13.8957V15.4231H18.7666V13.8957H20.2966ZM18.7666 13.8957V12.3837H20.2966V13.8957H18.7666ZM18.7666 12.3837V10.8331H20.2966V12.3837H18.7666ZM18.7666 10.8331V9.29027H20.2966V10.8331H18.7666ZM18.7666 7.73971V6.19686H20.2966V7.73971H18.7666ZM18.7666 6.19686V4.64631H20.2966V6.19686H18.7666ZM18.7666 4.64631V3.09575H20.2966V4.64631H18.7666ZM17.1975 1.58376V0.0332031H18.7666V1.58376H17.1975ZM18.7666 13.8957V15.4231H17.1975V13.8957H18.7666ZM17.1975 13.8957V12.3837H18.7666V13.8957H17.1975ZM15.6362 1.58376V0.0332031H17.1975V1.58376H15.6362ZM17.1975 13.8957V15.4231H15.6362V13.8957H17.1975ZM15.6362 13.8957V12.3837H17.1975V13.8957H15.6362ZM15.6362 3.09575V1.58376H17.1975V3.09575H15.6362ZM14.0671 13.8957V12.3837H15.6362V13.8957H14.0671ZM14.0671 12.3837V10.8331H15.6362V12.3837H14.0671ZM14.0671 10.8331V9.29027H15.6362V10.8331H14.0671ZM14.0671 9.29027V7.73971H15.6362V9.29027H14.0671ZM14.0671 7.73971V6.19686H15.6362V7.73971H14.0671ZM14.0671 6.19686V4.64631H15.6362V6.19686H14.0671ZM14.0671 4.64631V3.09575H15.6362V4.64631H14.0671ZM14.0671 3.09575V1.58376H15.6362V3.09575H14.0671Z" fill="#0099DB"/>
<path d="M42.1936 13.8957V12.3837H43.7315V13.8957H42.1936ZM42.1936 12.3837V10.8331H43.7315V12.3837H42.1936ZM42.1936 10.8331V9.29027H43.7315V10.8331H42.1936ZM42.1936 7.73971V6.19686H43.7315V7.73971H42.1936ZM42.1936 6.19686V4.64631H43.7315V6.19686H42.1936ZM42.1936 4.64631V3.09575H43.7315V4.64631H42.1936ZM42.1936 13.8957V15.4231H40.6323V13.8957H42.1936ZM40.6323 13.8957V12.3837H42.1936V13.8957H40.6323ZM40.6323 12.3837V10.8331H42.1936V12.3837H40.6323ZM40.6323 10.8331V9.29027H42.1936V10.8331H40.6323ZM40.6323 9.29027V7.73971H42.1936V9.29027H40.6323ZM40.6323 7.73971V6.19686H42.1936V7.73971H40.6323ZM40.6323 6.19686V4.64631H42.1936V6.19686H40.6323ZM40.6323 4.64631V3.09575H42.1936V4.64631H40.6323ZM40.6323 3.09575V1.58376H42.1936V3.09575H40.6323ZM39.0632 1.58376V0.0332031H40.6323V1.58376H39.0632ZM40.6323 13.8957V15.4231H39.0632V13.8957H40.6323ZM39.0632 13.8957V12.3837H40.6323V13.8957H39.0632ZM39.0632 12.3837V10.8331H40.6323V12.3837H39.0632ZM39.0632 9.29027V7.73971H40.6323V9.29027H39.0632ZM39.0632 7.73971V6.19686H40.6323V7.73971H39.0632ZM39.0632 6.19686V4.64631H40.6323V6.19686H39.0632ZM39.0632 3.09575V1.58376H40.6323V3.09575H39.0632ZM37.502 1.58376V0.0332031H39.0632V1.58376H37.502ZM39.0632 13.8957V15.4231H37.502V13.8957H39.0632ZM37.502 13.8957V12.3837H39.0632V13.8957H37.502ZM37.502 9.29027V7.73971H39.0632V9.29027H37.502ZM37.502 7.73971V6.19686H39.0632V7.73971H37.502ZM37.502 6.19686V4.64631H39.0632V6.19686H37.502ZM35.9329 1.58376V0.0332031H37.502V1.58376H35.9329ZM37.502 13.8957V15.4231H35.9329V13.8957H37.502ZM35.9329 13.8957V12.3837H37.502V13.8957H35.9329ZM35.9329 10.8331V9.29027H37.502V10.8331H35.9329ZM35.9329 9.29027V7.73971H37.502V9.29027H35.9329ZM35.9329 7.73971V6.19686H37.502V7.73971H35.9329ZM35.9329 6.19686V4.64631H37.502V6.19686H35.9329ZM35.9329 4.64631V3.09575H37.502V4.64631H35.9329ZM34.3638 1.58376V0.0332031H35.9329V1.58376H34.3638ZM35.9329 13.8957V15.4231H34.3638V13.8957H35.9329ZM34.3638 13.8957V12.3837H35.9329V13.8957H34.3638ZM34.3638 10.8331V9.29027H35.9329V10.8331H34.3638ZM34.3638 9.29027V7.73971H35.9329V9.29027H34.3638ZM34.3638 7.73971V6.19686H35.9329V7.73971H34.3638ZM34.3638 6.19686V4.64631H35.9329V6.19686H34.3638ZM34.3638 4.64631V3.09575H35.9329V4.64631H34.3638ZM32.8337 1.58376V0.0332031H34.3638V1.58376H32.8337ZM34.3638 13.8957V15.4231H32.8337V13.8957H34.3638ZM32.8337 13.8957V12.3837H34.3638V13.8957H32.8337ZM32.8337 10.8331V9.29027H34.3638V10.8331H32.8337ZM32.8337 9.29027V7.73971H34.3638V9.29027H32.8337ZM32.8337 7.73971V6.19686H34.3638V7.73971H32.8337ZM32.8337 6.19686V4.64631H34.3638V6.19686H32.8337ZM32.8337 4.64631V3.09575H34.3638V4.64631H32.8337ZM31.2646 1.58376V0.0332031H32.8337V1.58376H31.2646ZM32.8337 13.8957V15.4231H31.2646V13.8957H32.8337ZM31.2646 13.8957V12.3837H32.8337V13.8957H31.2646ZM29.7034 1.58376V0.0332031H31.2646V1.58376H29.7034ZM29.7034 13.8957V12.3837H31.2646V13.8957H29.7034ZM29.7034 12.3837V10.8331H31.2646V12.3837H29.7034ZM29.7034 3.09575V1.58376H31.2646V3.09575H29.7034ZM28.1343 12.3837V10.8331H29.7034V12.3837H28.1343ZM28.1343 10.8331V9.29027H29.7034V10.8331H28.1343ZM28.1343 9.29027V7.73971H29.7034V9.29027H28.1343ZM28.1343 7.73971V6.19686H29.7034V7.73971H28.1343ZM28.1343 6.19686V4.64631H29.7034V6.19686H28.1343ZM28.1343 4.64631V3.09575H29.7034V4.64631H28.1343ZM28.1343 3.09575V1.58376H29.7034V3.09575H28.1343Z" fill="#0099DB"/>
<path d="M57.7986 13.8957V15.4231H56.2607V13.8957H57.7986ZM56.2607 13.8957V12.3837H57.7986V13.8957H56.2607ZM56.2607 12.3837V10.8331H57.7986V12.3837H56.2607ZM56.2607 6.19686V4.64631H57.7986V6.19686H56.2607ZM56.2607 4.64631V3.09575H57.7986V4.64631H56.2607ZM56.2607 3.09575V1.58376H57.7986V3.09575H56.2607ZM54.6995 1.58376V0.0332031H56.2607V1.58376H54.6995ZM56.2607 13.8957V15.4231H54.6995V13.8957H56.2607ZM54.6995 13.8957V12.3837H56.2607V13.8957H54.6995ZM54.6995 12.3837V10.8331H56.2607V12.3837H54.6995ZM54.6995 10.8331V9.29027H56.2607V10.8331H54.6995ZM54.6995 7.73971V6.19686H56.2607V7.73971H54.6995ZM54.6995 6.19686V4.64631H56.2607V6.19686H54.6995ZM54.6995 4.64631V3.09575H56.2607V4.64631H54.6995ZM54.6995 3.09575V1.58376H56.2607V3.09575H54.6995ZM53.1304 1.58376V0.0332031H54.6995V1.58376H53.1304ZM54.6995 13.8957V15.4231H53.1304V13.8957H54.6995ZM53.1304 13.8957V12.3837H54.6995V13.8957H53.1304ZM53.1304 10.8331V9.29027H54.6995V10.8331H53.1304ZM53.1304 9.29027V7.73971H54.6995V9.29027H53.1304ZM53.1304 7.73971V6.19686H54.6995V7.73971H53.1304ZM53.1304 6.19686V4.64631H54.6995V6.19686H53.1304ZM53.1304 4.64631V3.09575H54.6995V4.64631H53.1304ZM51.5691 1.58376V0.0332031H53.1304V1.58376H51.5691ZM53.1304 13.8957V15.4231H51.5691V13.8957H53.1304ZM51.5691 13.8957V12.3837H53.1304V13.8957H51.5691ZM51.5691 9.29027V7.73971H53.1304V9.29027H51.5691ZM51.5691 7.73971V6.19686H53.1304V7.73971H51.5691ZM51.5691 6.19686V4.64631H53.1304V6.19686H51.5691ZM50 1.58376V0.0332031H51.5691V1.58376H50ZM50 13.8957V12.3837H51.5691V13.8957H50ZM50 12.3837V10.8331H51.5691V12.3837H50ZM50 7.73971V6.19686H51.5691V7.73971H50ZM50 3.09575V1.58376H51.5691V3.09575H50ZM50 13.8957V15.4231H48.4309V13.8957H50ZM48.4309 13.8957V12.3837H50V13.8957H48.4309ZM48.4309 12.3837V10.8331H50V12.3837H48.4309ZM48.4309 10.8331V9.29027H50V10.8331H48.4309ZM48.4309 4.64631V3.09575H50V4.64631H48.4309ZM48.4309 3.09575V1.58376H50V3.09575H48.4309ZM46.9009 1.58376V0.0332031H48.4309V1.58376H46.9009ZM48.4309 13.8957V15.4231H46.9009V13.8957H48.4309ZM46.9009 13.8957V12.3837H48.4309V13.8957H46.9009ZM46.9009 12.3837V10.8331H48.4309V12.3837H46.9009ZM46.9009 10.8331V9.29027H48.4309V10.8331H46.9009ZM46.9009 9.29027V7.73971H48.4309V9.29027H46.9009ZM46.9009 6.19686V4.64631H48.4309V6.19686H46.9009ZM46.9009 4.64631V3.09575H48.4309V4.64631H46.9009ZM46.9009 3.09575V1.58376H48.4309V3.09575H46.9009ZM45.3318 1.58376V0.0332031H46.9009V1.58376H45.3318ZM46.9009 13.8957V15.4231H45.3318V13.8957H46.9009ZM45.3318 13.8957V12.3837H46.9009V13.8957H45.3318ZM43.7705 1.58376V0.0332031H45.3318V1.58376H43.7705ZM45.3318 13.8957V15.4231H43.7705V13.8957H45.3318ZM43.7705 13.8957V12.3837H45.3318V13.8957H43.7705ZM42.2014 1.58376V0.0332031H43.7705V1.58376H42.2014ZM42.2014 13.8957V12.3837H43.7705V13.8957H42.2014ZM42.2014 12.3837V10.8331H43.7705V12.3837H42.2014ZM42.2014 10.8331V9.29027H43.7705V10.8331H42.2014ZM42.2014 9.29027V7.73971H43.7705V9.29027H42.2014ZM42.2014 7.73971V6.19686H43.7705V7.73971H42.2014ZM42.2014 6.19686V4.64631H43.7705V6.19686H42.2014ZM42.2014 4.64631V3.09575H43.7705V4.64631H42.2014ZM42.2014 3.09575V1.58376H43.7705V3.09575H42.2014Z" fill="#0099DB"/>
<path d="M14.0593 24.4101V22.8673H15.5972V24.4101H14.0593ZM14.0593 22.8673V21.3167H15.5972V22.8673H14.0593ZM14.0593 21.3167V19.7739H15.5972V21.3167H14.0593ZM14.0593 19.7739V18.2233H15.5972V19.7739H14.0593ZM14.0593 18.2233V16.6728H15.5972V18.2233H14.0593ZM14.0593 16.6728V15.1608H15.5972V16.6728H14.0593ZM12.498 15.1608V13.6102H14.0593V15.1608H12.498ZM12.498 25.9607V24.4101H14.0593V25.9607H12.498ZM12.498 24.4101V22.8673H14.0593V24.4101H12.498ZM12.498 22.8673V21.3167H14.0593V22.8673H12.498ZM12.498 21.3167V19.7739H14.0593V21.3167H12.498ZM12.498 19.7739V18.2233H14.0593V19.7739H12.498ZM12.498 18.2233V16.6728H14.0593V18.2233H12.498ZM12.498 16.6728V15.1608H14.0593V16.6728H12.498ZM10.929 15.1608V13.6102H12.498V15.1608H10.929ZM10.929 27.4727V25.9607H12.498V27.4727H10.929ZM10.929 25.9607V24.4101H12.498V25.9607H10.929ZM10.929 24.4101V22.8673H12.498V24.4101H10.929ZM10.929 22.8673V21.3167H12.498V22.8673H10.929ZM9.36768 15.1608V13.6102H10.929V15.1608H9.36768ZM10.929 27.4727V29.0001H9.36768V27.4727H10.929ZM9.36768 27.4727V25.9607H10.929V27.4727H9.36768ZM9.36768 25.9607V24.4101H10.929V25.9607H9.36768ZM9.36768 24.4101V22.8673H10.929V24.4101H9.36768ZM7.79859 15.1608V13.6102H9.36768V15.1608H7.79859ZM9.36768 27.4727V29.0001H7.79859V27.4727H9.36768ZM7.79859 27.4727V25.9607H9.36768V27.4727H7.79859ZM7.79859 25.9607V24.4101H9.36768V25.9607H7.79859ZM7.79859 21.3167V19.7739H9.36768V21.3167H7.79859ZM7.79859 19.7739V18.2233H9.36768V19.7739H7.79859ZM7.79859 18.2233V16.6728H9.36768V18.2233H7.79859ZM7.79859 16.6728V15.1608H9.36768V16.6728H7.79859ZM7.79859 27.4727V29.0001H6.22951V27.4727H7.79859ZM6.22951 27.4727V25.9607H7.79859V27.4727H6.22951ZM6.22951 22.8673V21.3167H7.79859V22.8673H6.22951ZM6.22951 21.3167V19.7739H7.79859V21.3167H6.22951ZM6.22951 19.7739V18.2233H7.79859V19.7739H6.22951ZM6.22951 18.2233V16.6728H7.79859V18.2233H6.22951ZM6.22951 16.6728V15.1608H7.79859V16.6728H6.22951ZM4.69945 15.1608V13.6102H6.22951V15.1608H4.69945ZM4.69945 27.4727V25.9607H6.22951V27.4727H4.69945ZM4.69945 25.9607V24.4101H6.22951V25.9607H4.69945ZM4.69945 21.3167V19.7739H6.22951V21.3167H4.69945ZM4.69945 19.7739V18.2233H6.22951V19.7739H4.69945ZM4.69945 18.2233V16.6728H6.22951V18.2233H4.69945ZM4.69945 16.6728V15.1608H6.22951V16.6728H4.69945ZM3.13037 15.1608V13.6102H4.69945V15.1608H3.13037ZM3.13037 25.9607V24.4101H4.69945V25.9607H3.13037ZM3.13037 24.4101V22.8673H4.69945V24.4101H3.13037ZM1.56909 15.1608V13.6102H3.13037V15.1608H1.56909ZM1.56909 24.4101V22.8673H3.13037V24.4101H1.56909ZM1.56909 22.8673V21.3167H3.13037V22.8673H1.56909ZM0 15.1608V13.6102H1.56909V15.1608H0ZM0 22.8673V21.3167H1.56909V22.8673H0ZM0 21.3167V19.7739H1.56909V21.3167H0ZM0 19.7739V18.2233H1.56909V19.7739H0ZM0 18.2233V16.6728H1.56909V18.2233H0ZM0 16.6728V15.1608H1.56909V16.6728H0Z" fill="#0099DB"/>
<path d="M29.6643 27.4727V29.0001H28.1265V27.4727H29.6643ZM28.1265 27.4727V25.9607H29.6643V27.4727H28.1265ZM28.1265 25.9607V24.4101H29.6643V25.9607H28.1265ZM28.1265 19.7739V18.2233H29.6643V19.7739H28.1265ZM28.1265 18.2233V16.6728H29.6643V18.2233H28.1265ZM28.1265 16.6728V15.1608H29.6643V16.6728H28.1265ZM26.5652 15.1608V13.6102H28.1265V15.1608H26.5652ZM28.1265 27.4727V29.0001H26.5652V27.4727H28.1265ZM26.5652 27.4727V25.9607H28.1265V27.4727H26.5652ZM26.5652 25.9607V24.4101H28.1265V25.9607H26.5652ZM26.5652 24.4101V22.8673H28.1265V24.4101H26.5652ZM26.5652 22.8673V21.3167H28.1265V22.8673H26.5652ZM26.5652 21.3167V19.7739H28.1265V21.3167H26.5652ZM26.5652 19.7739V18.2233H28.1265V19.7739H26.5652ZM26.5652 18.2233V16.6728H28.1265V18.2233H26.5652ZM26.5652 16.6728V15.1608H28.1265V16.6728H26.5652ZM24.9961 15.1608V13.6102H26.5652V15.1608H24.9961ZM26.5652 27.4727V29.0001H24.9961V27.4727H26.5652ZM24.9961 27.4727V25.9607H26.5652V27.4727H24.9961ZM24.9961 24.4101V22.8673H26.5652V24.4101H24.9961ZM24.9961 22.8673V21.3167H26.5652V22.8673H24.9961ZM24.9961 21.3167V19.7739H26.5652V21.3167H24.9961ZM24.9961 19.7739V18.2233H26.5652V19.7739H24.9961ZM24.9961 18.2233V16.6728H26.5652V18.2233H24.9961ZM23.4348 15.1608V13.6102H24.9961V15.1608H23.4348ZM24.9961 27.4727V29.0001H23.4348V27.4727H24.9961ZM23.4348 27.4727V25.9607H24.9961V27.4727H23.4348ZM23.4348 24.4101V22.8673H24.9961V24.4101H23.4348ZM23.4348 22.8673V21.3167H24.9961V22.8673H23.4348ZM23.4348 19.7739V18.2233H24.9961V19.7739H23.4348ZM23.4348 18.2233V16.6728H24.9961V18.2233H23.4348ZM21.8657 15.1608V13.6102H23.4348V15.1608H21.8657ZM23.4348 27.4727V29.0001H21.8657V27.4727H23.4348ZM21.8657 27.4727V25.9607H23.4348V27.4727H21.8657ZM21.8657 24.4101V22.8673H23.4348V24.4101H21.8657ZM21.8657 22.8673V21.3167H23.4348V22.8673H21.8657ZM21.8657 19.7739V18.2233H23.4348V19.7739H21.8657ZM21.8657 18.2233V16.6728H23.4348V18.2233H21.8657ZM20.2966 15.1608V13.6102H21.8657V15.1608H20.2966ZM21.8657 27.4727V29.0001H20.2966V27.4727H21.8657ZM20.2966 27.4727V25.9607H21.8657V27.4727H20.2966ZM20.2966 24.4101V22.8673H21.8657V24.4101H20.2966ZM20.2966 22.8673V21.3167H21.8657V22.8673H20.2966ZM20.2966 19.7739V18.2233H21.8657V19.7739H20.2966ZM20.2966 18.2233V16.6728H21.8657V18.2233H20.2966ZM18.7666 15.1608V13.6102H20.2966V15.1608H18.7666ZM20.2966 27.4727V29.0001H18.7666V27.4727H20.2966ZM18.7666 27.4727V25.9607H20.2966V27.4727H18.7666ZM18.7666 24.4101V22.8673H20.2966V24.4101H18.7666ZM18.7666 22.8673V21.3167H20.2966V22.8673H18.7666ZM18.7666 19.7739V18.2233H20.2966V19.7739H18.7666ZM18.7666 18.2233V16.6728H20.2966V18.2233H18.7666ZM17.1975 15.1608V13.6102H18.7666V15.1608H17.1975ZM18.7666 27.4727V29.0001H17.1975V27.4727H18.7666ZM17.1975 27.4727V25.9607H18.7666V27.4727H17.1975ZM15.6362 15.1608V13.6102H17.1975V15.1608H15.6362ZM17.1975 27.4727V29.0001H15.6362V27.4727H17.1975ZM15.6362 27.4727V25.9607H17.1975V27.4727H15.6362ZM14.0671 15.1608V13.6102H15.6362V15.1608H14.0671ZM14.0671 27.4727V25.9607H15.6362V27.4727H14.0671ZM14.0671 25.9607V24.4101H15.6362V25.9607H14.0671ZM14.0671 24.4101V22.8673H15.6362V24.4101H14.0671ZM14.0671 22.8673V21.3167H15.6362V22.8673H14.0671ZM14.0671 21.3167V19.7739H15.6362V21.3167H14.0671ZM14.0671 19.7739V18.2233H15.6362V19.7739H14.0671ZM14.0671 18.2233V16.6728H15.6362V18.2233H14.0671ZM14.0671 16.6728V15.1608H15.6362V16.6728H14.0671Z" fill="#0099DB"/>
<path d="M43.7315 27.4727V29.0001H42.1936V27.4727H43.7315ZM42.1936 27.4727V25.9607H43.7315V27.4727H42.1936ZM42.1936 25.9607V24.4101H43.7315V25.9607H42.1936ZM42.1936 24.4101V22.8673H43.7315V24.4101H42.1936ZM42.1936 22.8673V21.3167H43.7315V22.8673H42.1936ZM42.1936 21.3167V19.7739H43.7315V21.3167H42.1936ZM42.1936 19.7739V18.2233H43.7315V19.7739H42.1936ZM42.1936 18.2233V16.6728H43.7315V18.2233H42.1936ZM42.1936 16.6728V15.1608H43.7315V16.6728H42.1936ZM40.6323 15.1608V13.6102H42.1936V15.1608H40.6323ZM42.1936 27.4727V29.0001H40.6323V27.4727H42.1936ZM40.6323 27.4727V25.9607H42.1936V27.4727H40.6323ZM40.6323 25.9607V24.4101H42.1936V25.9607H40.6323ZM40.6323 24.4101V22.8673H42.1936V24.4101H40.6323ZM40.6323 22.8673V21.3167H42.1936V22.8673H40.6323ZM40.6323 21.3167V19.7739H42.1936V21.3167H40.6323ZM40.6323 19.7739V18.2233H42.1936V19.7739H40.6323ZM40.6323 18.2233V16.6728H42.1936V18.2233H40.6323ZM40.6323 16.6728V15.1608H42.1936V16.6728H40.6323ZM39.0632 15.1608V13.6102H40.6323V15.1608H39.0632ZM40.6323 27.4727V29.0001H39.0632V27.4727H40.6323ZM39.0632 27.4727V25.9607H40.6323V27.4727H39.0632ZM37.502 15.1608V13.6102H39.0632V15.1608H37.502ZM39.0632 27.4727V29.0001H37.502V27.4727H39.0632ZM37.502 27.4727V25.9607H39.0632V27.4727H37.502ZM35.9329 15.1608V13.6102H37.502V15.1608H35.9329ZM35.9329 27.4727V25.9607H37.502V27.4727H35.9329ZM35.9329 25.9607V24.4101H37.502V25.9607H35.9329ZM35.9329 24.4101V22.8673H37.502V24.4101H35.9329ZM35.9329 19.7739V18.2233H37.502V19.7739H35.9329ZM35.9329 18.2233V16.6728H37.502V18.2233H35.9329ZM35.9329 16.6728V15.1608H37.502V16.6728H35.9329ZM35.9329 27.4727V29.0001H34.3638V27.4727H35.9329ZM34.3638 27.4727V25.9607H35.9329V27.4727H34.3638ZM34.3638 25.9607V24.4101H35.9329V25.9607H34.3638ZM34.3638 24.4101V22.8673H35.9329V24.4101H34.3638ZM34.3638 22.8673V21.3167H35.9329V22.8673H34.3638ZM34.3638 18.2233V16.6728H35.9329V18.2233H34.3638ZM34.3638 16.6728V15.1608H35.9329V16.6728H34.3638ZM32.8337 15.1608V13.6102H34.3638V15.1608H32.8337ZM34.3638 27.4727V29.0001H32.8337V27.4727H34.3638ZM32.8337 27.4727V25.9607H34.3638V27.4727H32.8337ZM32.8337 25.9607V24.4101H34.3638V25.9607H32.8337ZM32.8337 24.4101V22.8673H34.3638V24.4101H32.8337ZM32.8337 22.8673V21.3167H34.3638V22.8673H32.8337ZM32.8337 21.3167V19.7739H34.3638V21.3167H32.8337ZM32.8337 16.6728V15.1608H34.3638V16.6728H32.8337ZM31.2646 15.1608V13.6102H32.8337V15.1608H31.2646ZM32.8337 27.4727V29.0001H31.2646V27.4727H32.8337ZM31.2646 27.4727V25.9607H32.8337V27.4727H31.2646ZM29.7034 15.1608V13.6102H31.2646V15.1608H29.7034ZM31.2646 27.4727V29.0001H29.7034V27.4727H31.2646ZM29.7034 27.4727V25.9607H31.2646V27.4727H29.7034ZM28.1343 15.1608V13.6102H29.7034V15.1608H28.1343ZM28.1343 27.4727V25.9607H29.7034V27.4727H28.1343ZM28.1343 25.9607V24.4101H29.7034V25.9607H28.1343ZM28.1343 24.4101V22.8673H29.7034V24.4101H28.1343ZM28.1343 22.8673V21.3167H29.7034V22.8673H28.1343ZM28.1343 21.3167V19.7739H29.7034V21.3167H28.1343ZM28.1343 19.7739V18.2233H29.7034V19.7739H28.1343ZM28.1343 18.2233V16.6728H29.7034V18.2233H28.1343ZM28.1343 16.6728V15.1608H29.7034V16.6728H28.1343Z" fill="#0099DB"/>
<path d="M57.7986 27.4727V29.0001H56.2607V27.4727H57.7986ZM56.2607 27.4727V25.9607H57.7986V27.4727H56.2607ZM56.2607 25.9607V24.4101H57.7986V25.9607H56.2607ZM56.2607 24.4101V22.8673H57.7986V24.4101H56.2607ZM56.2607 22.8673V21.3167H57.7986V22.8673H56.2607ZM56.2607 21.3167V19.7739H57.7986V21.3167H56.2607ZM56.2607 19.7739V18.2233H57.7986V19.7739H56.2607ZM56.2607 18.2233V16.6728H57.7986V18.2233H56.2607ZM56.2607 27.4727V29.0001H54.6995V27.4727H56.2607ZM54.6995 27.4727V25.9607H56.2607V27.4727H54.6995ZM54.6995 25.9607V24.4101H56.2607V25.9607H54.6995ZM54.6995 24.4101V22.8673H56.2607V24.4101H54.6995ZM54.6995 22.8673V21.3167H56.2607V22.8673H54.6995ZM54.6995 21.3167V19.7739H56.2607V21.3167H54.6995ZM54.6995 19.7739V18.2233H56.2607V19.7739H54.6995ZM54.6995 18.2233V16.6728H56.2607V18.2233H54.6995ZM54.6995 16.6728V15.1608H56.2607V16.6728H54.6995ZM53.1304 15.1608V13.6102H54.6995V15.1608H53.1304ZM54.6995 27.4727V29.0001H53.1304V27.4727H54.6995ZM53.1304 27.4727V25.9607H54.6995V27.4727H53.1304ZM53.1304 19.7739V18.2233H54.6995V19.7739H53.1304ZM53.1304 16.6728V15.1608H54.6995V16.6728H53.1304ZM51.5691 15.1608V13.6102H53.1304V15.1608H51.5691ZM53.1304 27.4727V29.0001H51.5691V27.4727H53.1304ZM51.5691 27.4727V25.9607H53.1304V27.4727H51.5691ZM51.5691 25.9607V24.4101H53.1304V25.9607H51.5691ZM51.5691 19.7739V18.2233H53.1304V19.7739H51.5691ZM50 15.1608V13.6102H51.5691V15.1608H50ZM51.5691 27.4727V29.0001H50V27.4727H51.5691ZM50 27.4727V25.9607H51.5691V27.4727H50ZM50 24.4101V22.8673H51.5691V24.4101H50ZM50 22.8673V21.3167H51.5691V22.8673H50ZM50 19.7739V18.2233H51.5691V19.7739H50ZM50 18.2233V16.6728H51.5691V18.2233H50ZM48.4309 15.1608V13.6102H50V15.1608H48.4309ZM50 27.4727V29.0001H48.4309V27.4727H50ZM48.4309 27.4727V25.9607H50V27.4727H48.4309ZM48.4309 24.4101V22.8673H50V24.4101H48.4309ZM48.4309 22.8673V21.3167H50V22.8673H48.4309ZM48.4309 21.3167V19.7739H50V21.3167H48.4309ZM48.4309 19.7739V18.2233H50V19.7739H48.4309ZM48.4309 18.2233V16.6728H50V18.2233H48.4309ZM46.9009 15.1608V13.6102H48.4309V15.1608H46.9009ZM48.4309 27.4727V29.0001H46.9009V27.4727H48.4309ZM46.9009 27.4727V25.9607H48.4309V27.4727H46.9009ZM46.9009 24.4101V22.8673H48.4309V24.4101H46.9009ZM46.9009 22.8673V21.3167H48.4309V22.8673H46.9009ZM46.9009 21.3167V19.7739H48.4309V21.3167H46.9009ZM46.9009 19.7739V18.2233H48.4309V19.7739H46.9009ZM46.9009 18.2233V16.6728H48.4309V18.2233H46.9009ZM45.3318 15.1608V13.6102H46.9009V15.1608H45.3318ZM46.9009 27.4727V29.0001H45.3318V27.4727H46.9009ZM45.3318 27.4727V25.9607H46.9009V27.4727H45.3318ZM43.7705 15.1608V13.6102H45.3318V15.1608H43.7705ZM43.7705 27.4727V25.9607H45.3318V27.4727H43.7705ZM43.7705 25.9607V24.4101H45.3318V25.9607H43.7705ZM43.7705 16.6728V15.1608H45.3318V16.6728H43.7705ZM42.2014 25.9607V24.4101H43.7705V25.9607H42.2014ZM42.2014 24.4101V22.8673H43.7705V24.4101H42.2014ZM42.2014 22.8673V21.3167H43.7705V22.8673H42.2014ZM42.2014 21.3167V19.7739H43.7705V21.3167H42.2014ZM42.2014 19.7739V18.2233H43.7705V19.7739H42.2014ZM42.2014 18.2233V16.6728H43.7705V18.2233H42.2014ZM42.2014 16.6728V15.1608H43.7705V16.6728H42.2014Z" fill="#0099DB"/>
<path d="M71.8657 27.4727V29.0001H70.3279V27.4727H71.8657ZM70.3279 27.4727V25.9607H71.8657V27.4727H70.3279ZM70.3279 25.9607V24.4101H71.8657V25.9607H70.3279ZM70.3279 19.7739V18.2233H71.8657V19.7739H70.3279ZM70.3279 18.2233V16.6728H71.8657V18.2233H70.3279ZM70.3279 16.6728V15.1608H71.8657V16.6728H70.3279ZM68.7666 15.1608V13.6102H70.3279V15.1608H68.7666ZM70.3279 27.4727V29.0001H68.7666V27.4727H70.3279ZM68.7666 27.4727V25.9607H70.3279V27.4727H68.7666ZM68.7666 25.9607V24.4101H70.3279V25.9607H68.7666ZM68.7666 24.4101V22.8673H70.3279V24.4101H68.7666ZM68.7666 22.8673V21.3167H70.3279V22.8673H68.7666ZM68.7666 21.3167V19.7739H70.3279V21.3167H68.7666ZM68.7666 19.7739V18.2233H70.3279V19.7739H68.7666ZM68.7666 18.2233V16.6728H70.3279V18.2233H68.7666ZM68.7666 16.6728V15.1608H70.3279V16.6728H68.7666ZM67.1975 15.1608V13.6102H68.7666V15.1608H67.1975ZM68.7666 27.4727V29.0001H67.1975V27.4727H68.7666ZM67.1975 27.4727V25.9607H68.7666V27.4727H67.1975ZM67.1975 24.4101V22.8673H68.7666V24.4101H67.1975ZM67.1975 22.8673V21.3167H68.7666V22.8673H67.1975ZM67.1975 21.3167V19.7739H68.7666V21.3167H67.1975ZM67.1975 19.7739V18.2233H68.7666V19.7739H67.1975ZM67.1975 18.2233V16.6728H68.7666V18.2233H67.1975ZM65.6362 15.1608V13.6102H67.1975V15.1608H65.6362ZM67.1975 27.4727V29.0001H65.6362V27.4727H67.1975ZM65.6362 27.4727V25.9607H67.1975V27.4727H65.6362ZM65.6362 24.4101V22.8673H67.1975V24.4101H65.6362ZM65.6362 22.8673V21.3167H67.1975V22.8673H65.6362ZM65.6362 19.7739V18.2233H67.1975V19.7739H65.6362ZM65.6362 18.2233V16.6728H67.1975V18.2233H65.6362ZM64.0671 15.1608V13.6102H65.6362V15.1608H64.0671ZM65.6362 27.4727V29.0001H64.0671V27.4727H65.6362ZM64.0671 27.4727V25.9607H65.6362V27.4727H64.0671ZM64.0671 24.4101V22.8673H65.6362V24.4101H64.0671ZM64.0671 22.8673V21.3167H65.6362V22.8673H64.0671ZM64.0671 19.7739V18.2233H65.6362V19.7739H64.0671ZM64.0671 18.2233V16.6728H65.6362V18.2233H64.0671ZM62.498 15.1608V13.6102H64.0671V15.1608H62.498ZM64.0671 27.4727V29.0001H62.498V27.4727H64.0671ZM62.498 27.4727V25.9607H64.0671V27.4727H62.498ZM62.498 24.4101V22.8673H64.0671V24.4101H62.498ZM62.498 22.8673V21.3167H64.0671V22.8673H62.498ZM62.498 19.7739V18.2233H64.0671V19.7739H62.498ZM62.498 18.2233V16.6728H64.0671V18.2233H62.498ZM60.968 15.1608V13.6102H62.498V15.1608H60.968ZM62.498 27.4727V29.0001H60.968V27.4727H62.498ZM60.968 27.4727V25.9607H62.498V27.4727H60.968ZM60.968 24.4101V22.8673H62.498V24.4101H60.968ZM60.968 22.8673V21.3167H62.498V22.8673H60.968ZM60.968 19.7739V18.2233H62.498V19.7739H60.968ZM60.968 18.2233V16.6728H62.498V18.2233H60.968ZM59.3989 15.1608V13.6102H60.968V15.1608H59.3989ZM60.968 27.4727V29.0001H59.3989V27.4727H60.968ZM59.3989 27.4727V25.9607H60.968V27.4727H59.3989ZM57.8376 15.1608V13.6102H59.3989V15.1608H57.8376ZM59.3989 27.4727V29.0001H57.8376V27.4727H59.3989ZM57.8376 27.4727V25.9607H59.3989V27.4727H57.8376ZM56.2685 15.1608V13.6102H57.8376V15.1608H56.2685ZM56.2685 27.4727V25.9607H57.8376V27.4727H56.2685ZM56.2685 25.9607V24.4101H57.8376V25.9607H56.2685ZM56.2685 24.4101V22.8673H57.8376V24.4101H56.2685ZM56.2685 22.8673V21.3167H57.8376V22.8673H56.2685ZM56.2685 21.3167V19.7739H57.8376V21.3167H56.2685ZM56.2685 19.7739V18.2233H57.8376V19.7739H56.2685ZM56.2685 18.2233V16.6728H57.8376V18.2233H56.2685ZM56.2685 16.6728V15.1608H57.8376V16.6728H56.2685Z" fill="#0099DB"/>
<path d="M85.9329 27.4727V29.0001H84.395V27.4727H85.9329ZM84.395 27.4727V25.9607H85.9329V27.4727H84.395ZM84.395 25.9607V24.4101H85.9329V25.9607H84.395ZM84.395 24.4101V22.8673H85.9329V24.4101H84.395ZM84.395 22.8673V21.3167H85.9329V22.8673H84.395ZM84.395 21.3167V19.7739H85.9329V21.3167H84.395ZM84.395 19.7739V18.2233H85.9329V19.7739H84.395ZM84.395 18.2233V16.6728H85.9329V18.2233H84.395ZM84.395 27.4727V29.0001H82.8337V27.4727H84.395ZM82.8337 27.4727V25.9607H84.395V27.4727H82.8337ZM82.8337 25.9607V24.4101H84.395V25.9607H82.8337ZM82.8337 24.4101V22.8673H84.395V24.4101H82.8337ZM82.8337 22.8673V21.3167H84.395V22.8673H82.8337ZM82.8337 21.3167V19.7739H84.395V21.3167H82.8337ZM82.8337 19.7739V18.2233H84.395V19.7739H82.8337ZM82.8337 18.2233V16.6728H84.395V18.2233H82.8337ZM82.8337 16.6728V15.1608H84.395V16.6728H82.8337ZM81.2646 15.1608V13.6102H82.8337V15.1608H81.2646ZM82.8337 27.4727V29.0001H81.2646V27.4727H82.8337ZM81.2646 27.4727V25.9607H82.8337V27.4727H81.2646ZM81.2646 21.3167V19.7739H82.8337V21.3167H81.2646ZM81.2646 16.6728V15.1608H82.8337V16.6728H81.2646ZM79.7034 15.1608V13.6102H81.2646V15.1608H79.7034ZM81.2646 27.4727V29.0001H79.7034V27.4727H81.2646ZM79.7034 27.4727V25.9607H81.2646V27.4727H79.7034ZM78.1343 15.1608V13.6102H79.7034V15.1608H78.1343ZM78.1343 27.4727V25.9607H79.7034V27.4727H78.1343ZM78.1343 25.9607V24.4101H79.7034V25.9607H78.1343ZM78.1343 24.4101V22.8673H79.7034V24.4101H78.1343ZM78.1343 22.8673V21.3167H79.7034V22.8673H78.1343ZM78.1343 19.7739V18.2233H79.7034V19.7739H78.1343ZM78.1343 18.2233V16.6728H79.7034V18.2233H78.1343ZM76.5652 15.1608V13.6102H78.1343V15.1608H76.5652ZM78.1343 27.4727V29.0001H76.5652V27.4727H78.1343ZM76.5652 27.4727V25.9607H78.1343V27.4727H76.5652ZM76.5652 25.9607V24.4101H78.1343V25.9607H76.5652ZM76.5652 24.4101V22.8673H78.1343V24.4101H76.5652ZM76.5652 22.8673V21.3167H78.1343V22.8673H76.5652ZM76.5652 19.7739V18.2233H78.1343V19.7739H76.5652ZM76.5652 18.2233V16.6728H78.1343V18.2233H76.5652ZM75.0351 15.1608V13.6102H76.5652V15.1608H75.0351ZM76.5652 27.4727V29.0001H75.0351V27.4727H76.5652ZM75.0351 27.4727V25.9607H76.5652V27.4727H75.0351ZM75.0351 25.9607V24.4101H76.5652V25.9607H75.0351ZM75.0351 24.4101V22.8673H76.5652V24.4101H75.0351ZM75.0351 22.8673V21.3167H76.5652V22.8673H75.0351ZM75.0351 19.7739V18.2233H76.5652V19.7739H75.0351ZM75.0351 18.2233V16.6728H76.5652V18.2233H75.0351ZM73.466 15.1608V13.6102H75.0351V15.1608H73.466ZM75.0351 27.4727V29.0001H73.466V27.4727H75.0351ZM73.466 27.4727V25.9607H75.0351V27.4727H73.466ZM71.9048 15.1608V13.6102H73.466V15.1608H71.9048ZM73.466 27.4727V29.0001H71.9048V27.4727H73.466ZM71.9048 27.4727V25.9607H73.466V27.4727H71.9048ZM70.3357 15.1608V13.6102H71.9048V15.1608H70.3357ZM70.3357 27.4727V25.9607H71.9048V27.4727H70.3357ZM70.3357 25.9607V24.4101H71.9048V25.9607H70.3357ZM70.3357 24.4101V22.8673H71.9048V24.4101H70.3357ZM70.3357 22.8673V21.3167H71.9048V22.8673H70.3357ZM70.3357 21.3167V19.7739H71.9048V21.3167H70.3357ZM70.3357 19.7739V18.2233H71.9048V19.7739H70.3357ZM70.3357 18.2233V16.6728H71.9048V18.2233H70.3357ZM70.3357 16.6728V15.1608H71.9048V16.6728H70.3357Z" fill="#0099DB"/>
<path d="M98.4621 27.4727V25.9607H100V27.4727H98.4621ZM98.4621 25.9607V24.4101H100V25.9607H98.4621ZM98.4621 24.4101V22.8673H100V24.4101H98.4621ZM98.4621 22.8673V21.3167H100V22.8673H98.4621ZM98.4621 21.3167V19.7739H100V21.3167H98.4621ZM98.4621 19.7739V18.2233H100V19.7739H98.4621ZM98.4621 18.2233V16.6728H100V18.2233H98.4621ZM98.4621 27.4727V29.0001H96.9009V27.4727H98.4621ZM96.9009 27.4727V25.9607H98.4621V27.4727H96.9009ZM96.9009 25.9607V24.4101H98.4621V25.9607H96.9009ZM96.9009 24.4101V22.8673H98.4621V24.4101H96.9009ZM96.9009 22.8673V21.3167H98.4621V22.8673H96.9009ZM96.9009 21.3167V19.7739H98.4621V21.3167H96.9009ZM96.9009 19.7739V18.2233H98.4621V19.7739H96.9009ZM96.9009 18.2233V16.6728H98.4621V18.2233H96.9009ZM96.9009 16.6728V15.1608H98.4621V16.6728H96.9009ZM95.3318 15.1608V13.6102H96.9009V15.1608H95.3318ZM96.9009 27.4727V29.0001H95.3318V27.4727H96.9009ZM95.3318 27.4727V25.9607H96.9009V27.4727H95.3318ZM95.3318 25.9607V24.4101H96.9009V25.9607H95.3318ZM95.3318 21.3167V19.7739H96.9009V21.3167H95.3318ZM95.3318 19.7739V18.2233H96.9009V19.7739H95.3318ZM95.3318 16.6728V15.1608H96.9009V16.6728H95.3318ZM93.7705 15.1608V13.6102H95.3318V15.1608H93.7705ZM95.3318 27.4727V29.0001H93.7705V27.4727H95.3318ZM93.7705 27.4727V25.9607H95.3318V27.4727H93.7705ZM93.7705 19.7739V18.2233H95.3318V19.7739H93.7705ZM92.2014 15.1608V13.6102H93.7705V15.1608H92.2014ZM93.7705 27.4727V29.0001H92.2014V27.4727H93.7705ZM92.2014 27.4727V25.9607H93.7705V27.4727H92.2014ZM92.2014 24.4101V22.8673H93.7705V24.4101H92.2014ZM92.2014 22.8673V21.3167H93.7705V22.8673H92.2014ZM92.2014 19.7739V18.2233H93.7705V19.7739H92.2014ZM92.2014 18.2233V16.6728H93.7705V18.2233H92.2014ZM90.6323 15.1608V13.6102H92.2014V15.1608H90.6323ZM92.2014 27.4727V29.0001H90.6323V27.4727H92.2014ZM90.6323 27.4727V25.9607H92.2014V27.4727H90.6323ZM90.6323 24.4101V22.8673H92.2014V24.4101H90.6323ZM90.6323 22.8673V21.3167H92.2014V22.8673H90.6323ZM90.6323 19.7739V18.2233H92.2014V19.7739H90.6323ZM90.6323 18.2233V16.6728H92.2014V18.2233H90.6323ZM89.1023 15.1608V13.6102H90.6323V15.1608H89.1023ZM90.6323 27.4727V29.0001H89.1023V27.4727H90.6323ZM89.1023 27.4727V25.9607H90.6323V27.4727H89.1023ZM89.1023 24.4101V22.8673H90.6323V24.4101H89.1023ZM89.1023 22.8673V21.3167H90.6323V22.8673H89.1023ZM89.1023 19.7739V18.2233H90.6323V19.7739H89.1023ZM89.1023 18.2233V16.6728H90.6323V18.2233H89.1023ZM87.5332 15.1608V13.6102H89.1023V15.1608H87.5332ZM89.1023 27.4727V29.0001H87.5332V27.4727H89.1023ZM87.5332 27.4727V25.9607H89.1023V27.4727H87.5332ZM87.5332 22.8673V21.3167H89.1023V22.8673H87.5332ZM85.9719 15.1608V13.6102H87.5332V15.1608H85.9719ZM85.9719 27.4727V25.9607H87.5332V27.4727H85.9719ZM85.9719 25.9607V24.4101H87.5332V25.9607H85.9719ZM85.9719 22.8673V21.3167H87.5332V22.8673H85.9719ZM85.9719 21.3167V19.7739H87.5332V21.3167H85.9719ZM85.9719 16.6728V15.1608H87.5332V16.6728H85.9719ZM84.4028 25.9607V24.4101H85.9719V25.9607H84.4028ZM84.4028 24.4101V22.8673H85.9719V24.4101H84.4028ZM84.4028 22.8673V21.3167H85.9719V22.8673H84.4028ZM84.4028 21.3167V19.7739H85.9719V21.3167H84.4028ZM84.4028 19.7739V18.2233H85.9719V19.7739H84.4028ZM84.4028 18.2233V16.6728H85.9719V18.2233H84.4028ZM84.4028 16.6728V15.1608H85.9719V16.6728H84.4028Z" fill="#0099DB"/>
</svg>
