<svg width="660" height="334" viewBox="0 0 660 334" fill="none" xmlns="http://www.w3.org/2000/svg">
<path d="M-796.19 166.156L-824.94 170.016M-796.19 166.156L-790.55 164.846M-796.19 166.156L-766.23 155.786M-824.94 170.016L-790.55 164.846M-824.94 170.016L-817.32 166.636M-790.55 164.846L-817.32 166.636M-790.55 164.846L-784.11 161.726M-790.55 164.846L-766.23 155.786M-790.55 164.846L-761.73 153.636M-817.32 166.636L-784.11 161.726M-817.32 166.636L-847.42 161.186M-817.32 166.636L-809.61 163.016M-784.11 161.726L-761.73 153.636M-784.11 161.726L-753.85 153.516M-784.11 161.726L-809.61 163.016M-784.11 161.726L-775.18 161.616M-766.23 155.786L-761.73 153.636M-766.23 155.786L-740.7 140.456M-761.73 153.636L-753.85 153.516M-761.73 153.636L-740.7 140.456M-761.73 153.636L-734.73 140.206M-753.85 153.516L-734.73 140.206M-753.85 153.516L-723.48 144.676M-753.85 153.516L-775.18 161.616M-753.85 153.516L-741.78 158.516M-740.7 140.456L-734.73 140.206M-740.7 140.456L-715.13 125.116M-734.73 140.206L-723.48 144.676M-734.73 140.206L-715.13 125.116M-734.73 140.206L-705.77 128.366M-723.48 144.676L-705.77 128.366M-723.48 144.676L-689.97 137.866M-723.48 144.676L-707.07 155.226M-723.48 144.676L-741.78 158.516M-715.13 125.116L-705.77 128.366M-715.13 125.116L-685.07 114.716M-705.77 128.366L-685.07 114.716M-705.77 128.366L-689.97 137.866M-705.77 128.366L-671.12 121.906M-685.07 114.716L-671.12 121.906M-685.07 114.716L-623.93 111.556M-847.42 161.186L-809.61 163.016M-847.42 161.186L-838.91 158.096M-809.61 163.016L-838.91 158.096M-809.61 163.016L-800.3 163.386M-809.61 163.016L-775.18 161.616M-838.91 158.096L-800.3 163.386M-838.91 158.096L-871.6 149.836M-838.91 158.096L-829.7 159.976M-800.3 163.386L-775.18 161.616M-800.3 163.386L-763.16 167.036M-800.3 163.386L-829.7 159.976M-800.3 163.386L-789 169.676M-775.18 161.616L-763.16 167.036M-775.18 161.616L-741.78 158.516M-689.97 137.866L-707.07 155.226M-689.97 137.866L-671.12 121.906M-689.97 137.866L-634.42 134.666M-689.97 137.866L-668.72 153.276M-707.07 155.226L-725.84 169.436M-707.07 155.226L-686.71 170.946M-707.07 155.226L-741.78 158.516M-707.07 155.226L-668.72 153.276M-763.16 167.036L-741.78 158.516M-763.16 167.036L-725.84 169.436M-763.16 167.036L-789 169.676M-763.16 167.036L-748.55 178.206M-741.78 158.516L-725.84 169.436M-725.84 169.436L-686.71 170.946M-725.84 169.436L-748.55 178.206M-725.84 169.436L-707.42 184.776M-686.71 170.946L-668.72 153.276M-686.71 170.946L-635.67 171.366M-686.71 170.946L-707.42 184.776M-686.71 170.946L-664.7 188.626M-671.12 121.906L-634.42 134.666M-671.12 121.906L-623.93 111.556M-671.12 121.906L-598.49 116.776M-634.42 134.666L-598.49 116.776M-634.42 134.666L-579.46 127.886M-634.42 134.666L-668.72 153.276M-634.42 134.666L-606.61 150.606M-623.93 111.556L-598.49 116.776M-623.93 111.556L-563.46 102.586M-598.49 116.776L-579.46 127.886M-598.49 116.776L-563.46 102.586M-598.49 116.776L-554.55 105.986M-579.46 127.886L-554.55 105.986M-579.46 127.886L-545.06 118.046M-579.46 127.886L-606.61 150.606M-579.46 127.886L-564.06 144.636M-563.46 102.586L-554.55 105.986M-563.46 102.586L-531.4 88.9162M-554.55 105.986L-545.06 118.046M-554.55 105.986L-531.4 88.9162M-554.55 105.986L-528.6 93.1362M-545.06 118.046L-528.6 93.1362M-545.06 118.046L-520.2 108.016M-545.06 118.046L-533.61 137.476M-545.06 118.046L-564.06 144.636M-531.4 88.9162L-528.6 93.1362M-531.4 88.9162L-512.78 74.9762M-528.6 93.1362L-512.78 74.9762M-528.6 93.1362L-520.2 108.016M-528.6 93.1362L-507.63 81.8862M-512.78 74.9762L-507.63 81.8862M-512.78 74.9762L-492.62 65.1462M-668.72 153.276L-635.67 171.366M-668.72 153.276L-606.61 150.606M-635.67 171.366L-606.61 150.606M-635.67 171.366L-586.65 169.146M-635.67 171.366L-664.7 188.626M-635.67 171.366L-613.05 189.056M-606.61 150.606L-586.65 169.146M-606.61 150.606L-564.06 144.636M-520.2 108.016L-533.61 137.476M-520.2 108.016L-507.63 81.8862M-520.2 108.016L-493.85 100.686M-520.2 108.016L-506.2 131.256M-533.61 137.476L-564.06 144.636M-533.61 137.476L-550.32 165.486M-533.61 137.476L-519.6 161.766M-533.61 137.476L-506.2 131.256M-586.65 169.146L-564.06 144.636M-586.65 169.146L-550.32 165.486M-586.65 169.146L-613.05 189.056M-586.65 169.146L-571.97 188.526M-564.06 144.636L-550.32 165.486M-564.06 144.636L-533.61 137.486M-564.06 144.636L-550.32 165.496L-533.61 137.486M-550.32 165.486L-571.97 188.526M-550.32 165.486L-537.07 187.676M-550.32 165.486L-519.6 161.766M-533.61 137.486L-506.2 131.256M-533.61 137.486L-519.6 161.766M-871.6 149.836L-829.7 159.976M-871.6 149.836L-829.71 159.976L-862.78 154.856M-871.6 149.836L-862.78 154.856M-829.7 159.976L-862.78 154.856M-829.7 159.976L-819.6 168.206M-829.7 159.976L-789 169.676M-862.78 154.856L-819.6 168.206M-862.78 154.856L-897.78 153.796M-862.78 154.856L-853.88 166.836M-819.6 168.206L-789 169.676M-819.6 168.206L-776.4 181.576M-819.6 168.206L-853.88 166.836M-819.6 168.206L-809.25 181.706M-789 169.676L-776.4 181.576M-789 169.676L-748.55 178.206M-776.4 181.576L-748.55 178.206M-776.4 181.576L-732.94 193.076M-776.4 181.576L-809.25 181.706M-776.4 181.576L-764.19 195.796M-748.55 178.206L-732.94 193.076M-748.55 178.206L-707.42 184.776M-732.94 193.076L-707.42 184.776M-732.94 193.076L-689.02 200.786M-732.94 193.076L-719.02 206.556M-732.94 193.076L-764.19 195.806M-732.94 193.076L-764.19 195.796M-707.42 184.776L-689.02 200.786M-707.42 184.776L-664.7 188.626M-897.78 153.796L-853.88 166.836M-897.78 153.796L-889.26 171.506M-853.88 166.836L-889.26 171.506M-853.88 166.836L-843.98 183.886M-853.88 166.836L-809.25 181.706M-889.26 171.506L-843.98 183.886M-889.26 171.506L-926.04 182.996M-889.26 171.506L-880.05 191.946M-843.98 183.886L-809.25 181.706M-843.98 183.886L-798.22 196.226M-843.98 183.886L-880.05 191.946M-843.98 183.886L-833.54 200.706M-809.25 181.706L-798.22 196.226M-809.25 181.706L-764.19 195.796M-809.25 181.706L-764.19 195.806M-689.02 200.786L-719.02 206.556M-689.02 200.786L-664.7 188.626M-689.02 200.786L-642.69 203.136M-689.02 200.786L-674.05 211.406M-719.02 206.556L-752.23 206.806M-719.02 206.556L-706.27 213.946M-719.02 206.556L-764.19 195.806M-719.02 206.556L-674.05 211.406M-798.22 196.226L-764.19 195.796M-798.22 196.226L-752.23 206.806M-798.22 196.226L-764.19 195.806M-798.22 196.226L-833.54 200.706M-798.22 196.226L-786.74 208.456M-764.19 195.796L-752.23 206.806M-752.23 206.806L-706.27 213.946M-752.23 206.806L-764.19 195.806M-752.23 206.806L-786.74 208.456M-752.23 206.806L-739.86 214.336M-706.27 213.946L-674.05 211.406M-706.27 213.946L-661.03 215.746M-706.27 213.946L-739.86 214.336M-706.27 213.946L-693.11 217.516M-664.7 188.626L-642.69 203.136M-664.7 188.626L-613.05 189.056M-664.7 188.626L-613.05 189.066M-642.69 203.136L-613.05 189.066M-642.69 203.136L-613.05 189.056M-642.69 203.136L-599.36 204.326M-642.69 203.136L-674.05 211.406M-642.69 203.136L-630.99 212.066M-613.05 189.056L-599.36 204.326M-613.05 189.056L-571.97 188.526M-613.05 189.066L-571.97 188.526M-613.05 189.066L-599.36 204.326M-599.36 204.326L-571.97 188.526M-599.36 204.326L-560.83 205.706M-599.36 204.326L-630.99 212.066M-599.36 204.326L-590.45 214.126M-571.97 188.526L-560.83 205.706M-571.97 188.526L-537.07 187.676M-560.83 205.706L-537.07 187.676M-560.83 205.706L-523.95 207.136M-560.83 205.706L-550.86 216.746M-560.83 205.706L-590.45 214.126M-537.07 187.676L-519.6 161.766M-537.07 187.676L-523.95 207.136M-537.07 187.676L-503.25 187.096M-519.6 161.766L-506.2 131.256M-519.6 161.766L-487.41 159.316M-519.6 161.766L-503.25 187.096M-674.05 211.406L-661.03 215.746M-674.05 211.406L-630.99 212.066M-661.03 215.746L-630.99 212.066M-661.03 215.746L-618.28 217.886M-661.03 215.746L-693.11 217.516M-661.03 215.746L-647.86 219.186M-630.99 212.066L-618.28 217.886M-630.99 212.066L-590.45 214.126M-523.95 207.136L-550.86 216.746M-523.95 207.136L-503.25 187.096M-523.95 207.136L-485.59 208.416M-523.95 207.136L-510.63 218.996M-550.86 216.746L-577 221.816M-550.86 216.746L-535.84 225.916M-550.86 216.746L-590.45 214.126M-550.86 216.746L-510.63 218.996M-618.28 217.886L-590.45 214.126M-618.28 217.886L-577 221.816M-618.28 217.886L-647.86 219.186M-618.28 217.886L-604.37 224.446M-590.45 214.126L-577 221.816M-577 221.816L-535.84 225.916M-577 221.816L-604.37 224.446M-577 221.816L-561.53 231.126M-535.84 225.916L-510.63 218.996M-535.84 225.916L-493.48 228.576M-535.84 225.916L-561.53 231.126M-535.84 225.916L-518.24 236.896M-507.63 81.8862L-493.85 100.686M-507.63 81.8862L-492.62 65.1462M-507.63 81.8862L-478.68 75.8562M-493.85 100.686L-478.68 75.8562M-493.85 100.686L-456.01 101.936M-493.85 100.686L-506.2 131.256M-493.85 100.686L-472.81 128.076M-492.62 65.1462L-478.68 75.8562M-492.62 65.1462L-457.38 66.2262M-478.68 75.8562L-456.01 101.936M-478.68 75.8562L-457.38 66.2262M-478.68 75.8562L-436.55 91.7962M-456.01 101.936L-436.55 91.7962M-456.01 101.936L-411.8 130.126M-456.01 101.936L-472.81 128.076M-456.01 101.936L-430.09 139.646M-457.38 66.2262L-436.55 91.7962M-457.38 66.2262L-413.58 99.0262M-436.55 91.7962L-411.8 130.126M-436.55 91.7962L-413.58 99.0262M-436.55 91.7962L-391.65 133.336M-411.8 130.126L-391.65 133.336M-411.8 130.126L-367.33 171.516M-411.8 130.126L-385.55 171.326M-411.8 130.126L-430.09 139.646M-413.58 99.0262L-391.65 133.336M-413.58 99.0262L-369.43 147.476M-391.65 133.336L-369.43 147.476M-391.65 133.336L-367.33 171.516M-391.65 133.336L-348.75 178.226M-369.43 147.476L-348.75 178.226M-369.43 147.476L-323.24 189.826M-506.2 131.256L-487.41 159.316M-506.2 131.256L-472.81 128.076M-487.41 159.316L-472.81 128.076M-487.41 159.316L-447.44 160.486M-487.41 159.316L-503.25 187.096M-487.41 159.316L-465.41 187.376M-472.81 128.076L-447.44 160.486M-472.81 128.076L-430.09 139.646M-367.33 171.516L-385.55 171.326M-367.33 171.516L-348.75 178.226M-367.33 171.516L-320.45 208.476M-367.33 171.516L-342.3 206.696M-385.55 171.326L-403.54 179.216M-385.55 171.326L-359.5 208.686M-385.55 171.326L-430.09 139.646M-385.55 171.326L-342.3 206.696M-447.44 160.486L-430.09 139.646M-447.44 160.486L-403.54 179.216M-447.44 160.486L-465.41 187.376M-447.44 160.486L-422.19 193.586M-430.09 139.646L-403.54 179.216M-403.54 179.216L-359.5 208.686M-403.54 179.216L-422.19 193.586M-403.54 179.216L-378.12 214.126M-359.5 208.686L-342.3 206.696M-359.5 208.686L-313.49 235.846M-359.5 208.686L-378.12 214.126M-359.5 208.686L-334.64 238.666M-348.75 178.226L-320.45 208.476M-348.75 178.226L-323.24 189.826M-348.75 178.226L-289.98 214.566M-320.45 208.476L-289.98 214.566M-320.45 208.476L-255.51 235.646M-320.45 208.476L-342.3 206.696M-320.45 208.476L-286.38 234.736M-323.24 189.826L-289.98 214.566M-323.24 189.826L-255.6 222.306M-289.98 214.566L-255.51 235.646M-289.98 214.566L-255.6 222.306M-289.98 214.566L-226.26 235.896M-255.51 235.646L-226.26 235.896M-255.51 235.646L-199.9 243.216M-255.51 235.646L-286.38 234.736M-255.51 235.646L-226.36 249.836M-255.6 222.306L-226.26 235.896M-255.6 222.306L-197.84 231.156M-226.26 235.896L-199.9 243.216M-226.26 235.896L-197.84 231.156M-199.9 243.216L-226.36 249.836M-199.9 243.216L-171.42 235.356M-199.9 243.216L-151.41 238.846M-199.9 243.216L-226.25 235.896M-199.9 243.216L-226.35 249.836M-199.9 243.216L-176.39 248.656M-197.84 231.156L-226.25 235.896M-197.84 231.156L-171.42 235.356M-197.84 231.156L-144.06 228.966M-342.3 206.696L-313.49 235.846M-342.3 206.696L-286.38 234.736M-313.49 235.846L-286.38 234.736M-313.49 235.846L-253.66 253.736M-313.49 235.846L-334.64 238.666M-313.49 235.846L-282.08 257.376M-286.38 234.736L-253.66 253.736M-286.38 234.736L-226.36 249.836M-253.66 253.736L-226.36 249.836M-253.66 253.736L-201.89 257.676M-253.66 253.736L-282.08 257.376M-253.66 253.736L-226.32 265.196M-226.36 249.836L-201.89 257.676M-201.89 257.676L-226.32 265.196M-201.89 257.676L-176.39 248.656M-201.89 257.676L-158.61 253.236M-201.89 257.676L-226.35 249.836M-201.89 257.676L-181.23 263.526M-503.25 187.096L-485.59 208.416M-503.25 187.096L-465.41 187.376M-485.59 208.416L-465.41 187.376M-485.59 208.416L-443.08 209.636M-485.59 208.416L-510.63 218.996M-485.59 208.416L-468.18 219.956M-465.41 187.376L-443.08 209.636M-465.41 187.376L-422.19 193.586M-443.08 209.636L-422.19 193.586M-443.08 209.636L-398.99 221.196M-443.08 209.636L-468.18 219.956M-443.08 209.636L-423.46 225.156M-422.19 193.586L-398.99 221.196M-422.19 193.586L-378.12 214.126M-398.99 221.196L-378.12 214.126M-398.99 221.196L-354.85 241.026M-398.99 221.196L-378.67 240.296M-398.99 221.196L-423.46 225.156M-378.12 214.126L-354.85 241.026M-378.12 214.126L-334.64 238.666M-510.63 218.996L-493.48 228.576M-510.63 218.996L-468.18 219.956M-493.48 228.576L-468.18 219.956M-493.48 228.576L-448.66 229.886M-493.48 228.576L-518.24 236.896M-493.48 228.576L-473.42 239.416M-468.18 219.956L-448.66 229.886M-468.18 219.956L-423.46 225.156M-354.85 241.026L-378.67 240.296M-354.85 241.026L-334.64 238.666M-354.85 241.026L-308.78 260.476M-354.85 241.026L-333.88 259.856M-378.67 240.296L-402.95 239.386M-378.67 240.296L-357.24 255.596M-378.67 240.296L-423.46 225.156M-378.67 240.296L-333.88 259.856M-448.66 229.886L-423.46 225.156M-448.66 229.886L-402.95 239.386M-448.66 229.886L-473.42 239.416M-448.66 229.886L-426.85 242.876M-423.46 225.156L-402.95 239.386M-402.95 239.386L-357.24 255.596M-402.95 239.386L-426.85 242.876M-402.95 239.386L-380.21 253.116M-357.24 255.596L-333.88 259.856M-357.24 255.596L-309.33 273.296M-357.24 255.596L-380.21 253.116M-357.24 255.596L-333.56 269.076M-334.64 238.666L-308.78 260.476M-334.64 238.666L-282.08 257.376M-308.78 260.476L-282.08 257.376M-308.78 260.476L-252.73 270.956M-308.78 260.476L-333.88 259.856M-308.78 260.476L-281.57 274.076M-282.08 257.376L-252.73 270.956M-282.08 257.376L-226.32 265.196M-252.73 270.956L-226.32 265.196M-252.73 270.956L-203.8 272.336M-252.73 270.956L-281.57 274.076M-252.73 270.956L-226.98 279.306M-226.32 265.196L-203.8 272.336M-226.32 265.196L-181.23 263.526M-203.8 272.336L-226.98 279.306M-203.8 272.336L-181.23 263.526M-203.8 272.336L-165.63 266.806M-203.8 272.336L-185.01 276.586M-333.88 259.856L-309.33 273.296M-333.88 259.856L-281.57 274.076M-309.33 273.296L-281.57 274.076M-309.33 273.296L-253.82 282.796M-309.33 273.296L-333.56 269.076M-309.33 273.296L-281.34 282.616M-281.57 274.076L-253.82 282.796M-281.57 274.076L-226.98 279.306M-253.82 282.796L-226.98 279.306M-253.82 282.796L-204.19 284.356M-253.82 282.796L-281.34 282.616M-253.82 282.796L-227.51 288.276M-226.98 279.306L-204.19 284.356M-226.98 279.306L-185.01 276.586M-204.19 284.356L-227.51 288.276M-204.19 284.356L-185.01 276.586M-204.19 284.356L-165.16 278.756M-204.19 284.356L-227.5 288.276M-204.19 284.356L-182.69 286.586M-926.04 182.996L-880.05 191.946M-926.04 182.996L-917.58 205.866M-880.05 191.946L-917.58 205.866M-880.05 191.946L-870.26 210.606M-880.05 191.946L-833.54 200.706M-917.58 205.866L-870.26 210.606M-917.58 205.866L-956.75 223.816L-908.5 225.426M-917.58 205.866L-908.5 225.426M-870.26 210.606L-833.54 200.706M-870.26 210.606L-822.62 214.186M-870.26 210.606L-908.5 225.426M-870.26 210.606L-859.96 224.856M-833.54 200.706L-822.62 214.186M-833.54 200.706L-786.74 208.456M-822.62 214.186L-786.74 208.456M-822.62 214.186L-774.84 216.616M-822.62 214.186L-859.96 224.856M-822.62 214.186L-811.26 223.006M-786.74 208.456L-774.84 216.616M-786.74 208.456L-739.86 214.336M-774.84 216.616L-739.86 214.336M-774.84 216.616L-727.07 217.946M-774.84 216.616L-762.51 220.776M-774.84 216.616L-811.26 223.006M-739.86 214.336L-727.07 217.946M-739.86 214.336L-693.11 217.516M-908.5 225.426L-948.43 242.816M-908.5 225.426L-898.89 239.486M-908.5 225.426L-956.75 223.826L-948.43 242.816M-908.5 225.426L-859.96 224.856M-948.43 242.816L-898.89 239.486M-948.43 242.816L-990.24 258.626M-948.43 242.816L-939.55 255.256M-898.89 239.486L-859.96 224.856M-898.89 239.486L-849.21 233.866M-898.89 239.486L-939.55 255.256M-898.89 239.486L-888.8 247.716M-859.96 224.856L-849.21 233.866M-859.96 224.856L-811.26 223.006M-727.07 217.946L-762.51 220.776M-727.07 217.946L-693.11 217.516M-727.07 217.946L-679.68 218.886M-727.07 217.946L-762.5 220.776L-713.82 219.056M-727.07 217.946L-713.82 219.056M-762.51 220.776L-799.46 227.716M-762.51 220.776L-749.71 222.796M-762.51 220.776L-811.26 223.006M-762.51 220.776L-713.82 219.056M-849.21 233.866L-811.26 223.006M-849.21 233.866L-799.46 227.716M-849.21 233.866L-888.8 247.716M-849.21 233.866L-838.01 238.636M-811.26 223.006L-799.46 227.716M-799.46 227.716L-749.71 222.796M-799.46 227.716L-838.01 238.636M-799.46 227.716L-787.2 230.656M-749.71 222.796L-713.82 219.056M-749.71 222.796L-699.97 222.706M-749.71 222.796L-787.2 230.656M-749.71 222.796L-736.41 226.406M-693.11 217.516L-679.68 218.886M-693.11 217.516L-647.86 219.186M-679.68 218.886L-647.86 219.186M-679.68 218.886L-633.77 224.576M-679.68 218.886L-713.82 219.056M-679.68 218.886L-665.63 223.246M-647.86 219.186L-633.77 224.576M-647.86 219.186L-604.37 224.446M-633.77 224.576L-604.37 224.446M-633.77 224.576L-588.81 233.616M-633.77 224.576L-665.63 223.246M-633.77 224.576L-618.41 233.536M-604.37 224.446L-588.81 233.616M-604.37 224.446L-561.53 231.126M-588.81 233.616L-561.53 231.126M-588.81 233.616L-618.41 233.536M-561.53 231.126L-588.8 233.616M-561.53 231.126L-543.92 242.996M-561.53 231.126L-518.24 236.896M-713.82 219.056L-699.97 222.706M-713.82 219.056L-665.63 223.246M-699.97 222.706L-665.63 223.246M-699.97 222.706L-650.67 232.166M-699.97 222.706L-736.41 226.406M-699.97 222.706L-685.55 231.966M-665.63 223.246L-650.67 232.166M-665.63 223.246L-618.41 233.536M-588.8 233.616L-543.92 242.996M-588.8 233.616L-571.54 246.086M-588.8 233.616L-618.41 233.536M-543.92 242.996L-571.54 246.086M-543.92 242.996L-518.24 236.896M-543.92 242.996L-498.25 249.666M-543.92 242.996L-524.42 257.186M-571.54 246.086L-618.41 233.536M-571.54 246.086L-601.77 246.556L-618.41 233.536M-571.54 246.086L-601.77 246.546M-571.54 246.086L-552.91 261.426M-571.54 246.086L-524.42 257.186M-650.67 232.166L-618.41 233.536M-650.67 232.166L-601.77 246.546M-650.67 232.166L-685.55 231.966M-650.67 232.166L-634.88 245.896M-618.41 233.536L-601.77 246.546M-601.77 246.546L-634.88 245.896M-601.77 246.546L-584.28 262.966M-601.77 246.546L-552.91 261.426M-990.24 258.626L-939.55 255.256M-990.24 258.626L-982.17 267.906M-939.55 255.256L-982.17 267.906M-939.55 255.256L-930.25 261.656M-939.55 255.256L-888.8 247.716M-982.17 267.906L-930.25 261.656M-982.17 267.906L-1026.85 278.786M-982.17 267.906L-973.72 275.346M-930.25 261.656L-888.8 247.716M-930.25 261.656L-878.32 252.456M-930.25 261.656L-973.72 275.346M-930.25 261.656L-920.57 268.206M-888.8 247.716L-878.32 252.456M-888.8 247.716L-838.01 238.636M-878.32 252.456L-838.01 238.636M-878.32 252.456L-826.39 243.206M-878.32 252.456L-920.57 268.206M-878.32 252.456L-867.42 259.816M-838.01 238.636L-826.39 243.206M-838.01 238.636L-787.2 230.656M-826.39 243.206L-787.2 230.656M-826.39 243.206L-774.45 236.796M-826.39 243.206L-814.26 252.596M-826.39 243.206L-867.42 259.816M-787.2 230.656L-774.45 236.796M-787.2 230.656L-736.41 226.406M-1026.85 278.786L-973.72 275.346M-1026.85 278.786L-1019.27 288.186L-973.72 275.346M-973.72 275.346L-920.57 268.206M-973.72 275.346L-964.85 283.756L-920.57 268.206M-920.57 268.206L-867.42 259.816M-920.57 268.206L-910.43 277.306L-867.42 259.816M-774.45 236.796L-814.26 252.596M-774.45 236.796L-736.41 226.406M-774.45 236.796L-722.5 236.976M-774.45 236.796L-761.1 248.966M-814.26 252.596L-867.42 259.816M-814.26 252.596L-855.99 270.826L-867.42 259.816M-814.26 252.596L-761.1 248.966M-814.26 252.596L-801.55 266.286L-761.1 248.966M-736.41 226.406L-722.5 236.976M-736.41 226.406L-685.55 231.966M-722.5 236.976L-685.55 231.966M-722.5 236.976L-670.55 247.426M-722.5 236.976L-761.1 248.966M-722.5 236.976L-707.93 254.226M-685.55 231.966L-670.55 247.426M-685.55 231.966L-634.88 245.896M-670.55 247.426L-634.88 245.896M-670.55 247.426L-618.59 263.586M-670.55 247.426L-707.93 254.226M-670.55 247.426L-654.76 266.546M-634.88 245.896L-618.59 263.586M-634.88 245.896L-584.28 262.966M-618.59 263.586L-584.28 262.966M-618.59 263.586L-566.63 280.306M-618.59 263.586L-601.57 281.506M-618.59 263.586L-654.75 266.546M-618.59 263.586L-654.76 266.546M-584.28 262.966L-552.91 261.426M-584.28 262.966L-566.63 280.306M-584.28 262.966L-533.62 278.046M-552.91 261.426L-524.42 257.186M-552.91 261.426L-503.7 272.346M-552.91 261.426L-533.62 278.046M-761.1 248.966L-707.93 254.226M-761.1 248.966L-747.11 266.446L-707.93 254.226M-707.93 254.226L-654.76 266.546M-707.93 254.226L-692.65 273.876L-654.76 266.546M-566.63 280.306L-601.57 281.506M-566.63 280.306L-533.62 278.046M-566.63 280.306L-514.66 292.456M-566.63 280.306L-548.39 294.786M-601.57 281.506L-654.75 266.546M-601.57 281.506L-638.2 285.206L-654.75 266.546M-601.57 281.506L-548.39 294.786M-601.57 281.506L-583.73 296.926L-548.39 294.786M-518.24 236.896L-498.25 249.666M-518.24 236.896L-473.42 239.416M-498.25 249.666L-473.42 239.416M-498.25 249.666L-451.1 251.416M-498.25 249.666L-524.42 257.186M-498.25 249.666L-476.45 263.096M-473.42 239.416L-451.1 251.416M-473.42 239.416L-426.85 242.876M-451.1 251.416L-426.85 242.876M-451.1 251.416L-403.5 255.366M-451.1 251.416L-476.45 263.096M-451.1 251.416L-427.83 263.056M-426.85 242.876L-403.5 255.366M-426.85 242.876L-380.21 253.116M-403.5 255.366L-380.21 253.116M-403.5 255.366L-355.89 264.986M-403.5 255.366L-379.23 265.966M-403.5 255.366L-427.83 263.056M-380.21 253.116L-355.89 264.986M-380.21 253.116L-333.56 269.076M-524.42 257.186L-503.7 272.346M-524.42 257.186L-476.45 263.096M-503.7 272.346L-476.45 263.096M-503.7 272.346L-453.99 274.616M-503.7 272.346L-533.62 278.046M-503.7 272.346L-482.78 285.966M-476.45 263.096L-453.99 274.616M-476.45 263.096L-427.83 263.056M-355.89 264.986L-379.23 265.966M-355.89 264.986L-333.56 269.076M-355.89 264.986L-307.08 279.806M-355.89 264.986L-330.63 275.866M-379.23 265.966L-404.33 272.756M-379.23 265.966L-354.67 275.496M-379.23 265.966L-427.83 263.056M-379.23 265.966L-330.63 275.866M-453.99 274.616L-427.83 263.056M-453.99 274.616L-404.33 272.756M-453.99 274.616L-482.78 285.966M-453.99 274.616L-431.97 283.836M-427.83 263.056L-404.33 272.756M-404.33 272.756L-354.67 275.496M-404.33 272.756L-431.97 283.836M-404.33 272.756L-381.18 281.306M-404.33 272.756L-381.17 281.306M-354.67 275.496L-330.63 275.866M-354.67 275.496L-304.84 287.266M-354.67 275.496L-381.17 281.306M-354.67 275.496L-330.38 287.006M-333.56 269.076L-307.08 279.806M-333.56 269.076L-281.34 282.616M-307.08 279.806L-281.34 282.616M-307.08 279.806L-253.59 289.376M-307.08 279.806L-330.63 275.866M-307.08 279.806L-279.65 288.636M-281.34 282.616L-253.59 289.376M-281.34 282.616L-227.51 288.276M-253.59 289.376L-227.51 288.276M-253.59 289.376L-203.72 291.436M-253.59 289.376L-279.65 288.636M-253.59 289.376L-227.75 294.636M-227.51 288.276L-203.72 291.436M-203.72 291.436L-227.75 294.636M-203.72 291.436L-182.69 286.586M-203.72 291.436L-160.33 288.966M-203.72 291.436L-227.5 288.276M-203.72 291.436L-180.29 294.656M-330.63 275.866L-304.84 287.266M-330.63 275.866L-279.65 288.636M-304.84 287.266L-279.65 288.636M-304.84 287.266L-253.36 296.896M-304.84 287.266L-330.38 287.006M-304.84 287.266L-279.43 299.056M-279.65 288.636L-253.36 296.896M-279.65 288.636L-227.75 294.636M-253.36 296.896L-227.75 294.636M-253.36 296.896L-203.23 299.476M-253.36 296.896L-279.43 299.056M-253.36 296.896L-228.29 305.486M-227.75 294.636L-203.23 299.476M-227.75 294.636L-180.29 294.656M-227.75 294.636L-203.22 299.476M-203.23 299.476L-228.29 305.486M-533.62 278.046L-514.66 292.456M-533.62 278.046L-482.78 285.966M-514.66 292.456L-482.78 285.966M-514.66 292.456L-462.68 295.076M-514.66 292.456L-548.39 294.786M-514.66 292.456L-495.19 302.086M-482.78 285.966L-462.68 295.076M-482.78 285.966L-431.97 283.836M-462.68 295.076L-431.97 283.836M-462.68 295.076L-410.68 291.546M-462.68 295.076L-495.19 302.086M-462.68 295.076L-441.97 300.666M-431.97 283.836L-410.68 291.546M-431.97 283.836L-381.18 281.306M-410.68 291.546L-381.18 281.306M-410.68 291.546L-358.67 291.516M-410.68 291.546L-388.73 298.246M-410.68 291.546L-441.96 300.666L-388.73 298.246M-410.68 291.546L-441.97 300.666M-381.18 281.306L-358.67 291.516M-381.17 281.306L-330.38 287.006M-381.17 281.306L-358.67 291.516M-548.39 294.786L-495.19 302.086M-548.39 294.786L-529.26 305.536L-495.19 302.086M-495.19 302.086L-441.97 300.666M-495.19 302.086L-474.78 307.536L-441.97 300.666M-358.67 291.516L-388.73 298.246M-358.67 291.516L-330.38 287.006M-358.67 291.516L-306.68 301.716M-358.67 291.516L-335.48 302.466M-388.73 298.246L-420.29 305.136L-441.97 300.666M-388.73 298.246L-441.97 300.666M-388.73 298.246L-335.48 302.466M-388.73 298.246L-365.78 305.096L-335.48 302.466M-330.38 287.006L-306.68 301.716M-330.38 287.006L-279.43 299.056M-306.68 301.716L-279.43 299.056M-306.68 301.716L-254.71 311.246M-306.68 301.716L-335.48 302.466M-306.68 301.716L-282.31 312.546M-279.43 299.056L-254.71 311.246M-279.43 299.056L-228.29 305.486M-254.71 311.246L-228.29 305.486M-254.71 311.246L-202.74 314.086M-254.71 311.246L-282.31 312.546M-254.71 311.246L-229.13 318.476M-228.29 305.486L-202.74 314.086M-228.29 305.486L-203.22 299.476M-228.29 305.486L-177.78 306.656M-228.29 305.486L-202.73 314.086M-202.74 314.086L-229.13 318.476M-335.48 302.466L-282.31 312.546M-335.48 302.466L-311.29 312.136L-282.31 312.546M-282.31 312.546L-229.13 318.476M-282.31 312.546L-256.8 318.826L-229.13 318.476M-229.13 318.476L-202.73 314.086M-229.13 318.476L-175.91 319.766M-229.13 318.476L-202.3 320.996L-175.91 319.766M-226.25 235.896L-171.42 235.356M-171.42 235.356L-151.41 238.846M-171.42 235.356L-144.06 228.966M-171.42 235.356L-127.12 229.646M-151.41 238.846L-127.12 229.646M-151.41 238.846L-113.59 230.496M-151.41 238.846L-176.39 248.656M-151.41 238.846L-135.98 241.986M-144.06 228.966L-127.12 229.646M-144.06 228.966L-103.87 222.626M-127.12 229.646L-113.59 230.496M-127.12 229.646L-103.87 222.626M-127.12 229.646L-91.92 219.636M-113.59 230.496L-91.92 219.636M-113.59 230.496L-79.9401 218.906M-113.59 230.496L-135.98 241.986M-113.59 230.496L-101.3 232.376M-103.87 222.626L-91.92 219.636M-103.87 222.626L-71.6801 210.486M-91.92 219.636L-79.9401 218.906M-91.92 219.636L-71.6801 210.486M-91.92 219.636L-59.78 204.906M-79.9401 218.906L-59.78 204.906M-79.9401 218.906L-43.98 204.826M-79.9401 218.906L-65.4301 221.766M-79.9401 218.906L-101.3 232.376M-71.6801 210.486L-59.78 204.906M-71.6801 210.486L-41.87 190.926M-59.78 204.906L-41.87 190.926M-59.78 204.906L-43.98 204.826M-59.78 204.906L-24.65 184.996M-41.87 190.926L-24.65 184.996M-41.87 190.926L-9.52002 165.106M-226.35 249.836L-176.39 248.656M-176.39 248.656L-158.61 253.236M-176.39 248.656L-135.98 241.986M-158.61 253.236L-135.98 241.986M-158.61 253.236L-123.06 244.956M-158.61 253.236L-181.23 263.526M-158.61 253.236L-144.62 256.436M-135.98 241.986L-123.06 244.956M-135.98 241.986L-101.3 232.376M-43.98 204.826L-65.4301 221.766M-43.98 204.826L-24.65 184.996M-43.98 204.826L-1.5 190.196M-43.98 204.826L-21.4401 212.106M-65.4301 221.766L-87.88 235.956M-65.4301 221.766L-45.6901 229.396M-65.4301 221.766L-101.3 232.376M-65.4301 221.766L-21.4401 212.106M-123.06 244.956L-101.3 232.376M-123.06 244.956L-87.88 235.956M-123.06 244.956L-144.62 256.436M-123.06 244.956L-110.39 247.726M-101.3 232.376L-87.88 235.956M-87.88 235.956L-45.6901 229.396M-87.88 235.956L-110.39 247.726M-87.88 235.956L-70.7101 241.716M-45.6901 229.396L-21.4401 212.106M-45.6901 229.396L6.43994 227.036M-45.6901 229.396L-70.7101 241.716M-45.6901 229.396L-17.78 242.756M-24.65 184.996L-1.5 190.196M-24.65 184.996L-9.52002 165.106M-24.65 184.996L-5.45007 175.186L6.52002 186.976M-1.5 190.196L4.79993 184.936L6.52002 186.976M-1.5 190.196L24.45 213.476M-1.5 190.196L-21.4401 212.106M-1.5 190.196L17.6799 212.736M-9.52002 165.106L6.52002 186.976M-9.52002 165.106L7.28003 207.036M6.52002 186.976L24.45 213.476M6.52002 186.976L7.28003 207.036M6.52002 186.976L24.38 217.306L32.76 219.126M6.52002 186.976L32.76 219.126M24.45 213.476L32.76 219.126M24.45 213.476L36.52 218.796L67.95 197.916M24.45 213.476L21.36 211.396L17.6799 212.736M24.45 213.476L49.1799 218.516M24.45 213.476L33.38 218.466L67.95 197.916M7.28003 207.036L32.76 219.126M7.28003 207.036L16.12 220.536L29.21 220.656L48.61 205.196L32.76 219.126M32.76 219.126L67.95 197.916M32.76 219.126L48.62 205.196M32.76 219.126L89.48 167.426M67.95 197.916L89.48 167.426M67.95 197.916L126.99 136.106M67.95 197.916L101.47 170.976M67.95 197.916L49.1799 218.516M48.62 205.196L89.48 167.426M48.62 205.196L114.55 129.736M89.48 167.426L114.55 129.736M89.48 167.426L126.99 136.106M89.48 167.426L157.27 90.5862M114.55 129.736L157.27 90.5862M114.55 129.736L187.28 44.1962M-21.4401 212.106L6.43994 227.036M-21.4401 212.106L17.6799 212.736M-21.4401 212.106L17.6799 212.746M6.43994 227.036L17.6799 212.746M6.43994 227.036L17.6799 212.736M6.43994 227.036L38.1599 227.986M6.43994 227.036L-17.78 242.756M6.43994 227.036L28.2999 242.286M17.6799 212.736L38.1599 227.986M17.6799 212.736L49.1799 218.516M17.6799 212.746L49.1799 218.516M17.6799 212.746L38.1599 227.986M126.99 136.106L101.47 170.976M126.99 136.106L157.27 90.5862M126.99 136.106L187.28 80.3062M126.99 136.106L155.52 127.166M101.47 170.976L49.1799 218.516M101.47 170.976L80.58 197.156M101.47 170.976L129.73 159.906M101.47 170.976L155.52 127.166M38.1599 227.986L49.1799 218.516M38.1599 227.986L80.58 197.156M38.1599 227.986L28.2999 242.286M38.1599 227.986L63.5399 221.336M49.1799 218.516L80.58 197.156M80.58 197.156L63.5399 221.336M80.58 197.156L110.85 179.116M80.58 197.156L129.73 159.906M-181.23 263.526L-165.63 266.806M-181.23 263.526L-144.62 256.436M-181.23 263.526L-144.63 256.436M-165.63 266.806L-144.63 256.436M-165.63 266.806L-144.62 256.436M-165.63 266.806L-132.26 257.546M-165.63 266.806L-185.01 276.586M-165.63 266.806L-150.92 267.476M-144.62 256.436L-132.26 257.546M-144.62 256.436L-110.39 247.726M-144.63 256.436L-110.39 247.726M-144.63 256.436L-132.26 257.546M-132.26 257.546L-110.39 247.726M-132.26 257.546L-95.4501 250.086M-132.26 257.546L-150.92 267.476M-132.26 257.546L-116.3 257.936M-110.39 247.726L-95.4501 250.086M-110.39 247.726L-70.7101 241.716M-95.4501 250.086L-70.7101 241.716M-95.4501 250.086L-46.9601 249.936M-95.4501 250.086L-72.9401 254.056M-95.4501 250.086L-116.3 257.936M-70.7101 241.716L-46.9601 249.936M-70.7101 241.716L-17.78 242.756M-185.01 276.586L-165.16 278.756M-185.01 276.586L-150.92 267.476M-165.16 278.756L-150.92 267.476M-165.16 278.756L-129.17 270.496M-165.16 278.756L-182.69 286.586M-165.16 278.756L-143.46 281.036M-150.92 267.476L-129.17 270.496M-150.92 267.476L-116.3 257.936M-46.9601 249.936L-72.9401 254.056M-46.9601 249.936L-17.78 242.756M-46.9601 249.936L14.99 259.626M-46.9601 249.936L-12.64 261.886M-72.9401 254.056L-89.25 264.506M-72.9401 254.056L-38.49 265.706M-72.9401 254.056L-116.3 257.936M-72.9401 254.056L-12.64 261.886M-129.17 270.496L-116.3 257.936M-129.17 270.496L-89.25 264.506M-129.17 270.496L-143.46 281.036M-129.17 270.496L-103.87 275.526M-116.3 257.936L-89.25 264.506M-89.25 264.506L-38.49 265.706M-89.25 264.506L-103.87 275.526M-89.25 264.506L-58.24 273.836M-38.49 265.706L-12.64 261.886M-38.49 265.706L24.4 275.786M-38.49 265.706L-58.24 273.836M-38.49 265.706L-0.910034 279.716M-17.78 242.756L14.99 259.626M-17.78 242.756L28.2999 242.286M14.99 259.626L28.2999 242.286M14.99 259.626L52.65 241.756M14.99 259.626L-12.64 261.886M14.99 259.626L40.36 262.166M28.2999 242.286L52.65 241.756M28.2999 242.286L63.5399 221.336M52.65 241.756L63.5399 221.336M52.65 241.756L94.65 197.116M52.65 241.756L40.36 262.166M52.65 241.756L80.75 223.056M63.5399 221.336L94.65 197.116M63.5399 221.336L110.85 179.116M94.65 197.116L110.85 179.116M94.65 197.116L136.86 177.656M94.65 197.116L127.13 180.936M94.65 197.116L80.75 223.056M110.85 179.116L129.73 159.906M110.85 179.116L136.86 177.656M110.85 179.116L151.07 170.506M129.73 159.906L155.52 127.166M129.73 159.906L174.48 144.956M129.73 159.906L151.07 170.506M-12.64 261.886L24.4 275.786M-12.64 261.886L40.36 262.166M24.4 275.786L40.36 262.166M24.4 275.786L66.9299 252.126M24.4 275.786L-0.910034 279.716M24.4 275.786L51.5499 277.616M40.36 262.166L66.9299 252.126M40.36 262.166L80.75 223.056M136.86 177.656L131.25 177.126L127.13 180.936M136.86 177.656L151.07 170.506M136.86 177.656L168.92 196.916M136.86 177.656L160.31 191.186M127.13 180.936L111.01 208.076M127.13 180.936L153.08 195.636M127.13 180.936L80.75 223.056M127.13 180.936L160.31 191.186M66.9299 252.126L80.75 223.056M66.9299 252.126L111 208.076M66.9299 252.126L51.5499 277.616M66.9299 252.126L95.22 246.206M80.75 223.056L111 208.076M80.75 223.056L111.01 208.076M111 208.076L95.22 246.206M111.01 208.076L153.08 195.636M111.01 208.076L95.22 246.206M111.01 208.076L142.2 216.496M153.08 195.636L158.05 190.856L160.31 191.186M153.08 195.636L185.29 219.556M153.08 195.636L142.2 216.496M153.08 195.636L179.8 225.056M157.27 90.5862L187.28 80.3062M157.27 90.5862L187.28 44.1962M157.27 90.5862L218.95 30.5162M187.28 80.3062L218.95 30.5162M187.28 80.3062L236.12 53.9662M187.28 80.3062L155.52 127.166M187.28 80.3062L205.1 101.816M187.28 44.1962L218.95 30.5162M187.28 44.1962L240.07 0.326172M218.95 30.5162L236.12 53.9662M218.95 30.5162L240.07 0.326172M218.95 30.5162L262.81 18.4262M236.12 53.9662L262.81 18.4262M236.12 53.9662L280.64 56.2862M236.12 53.9662L205.1 101.816M236.12 53.9662L249.99 98.1962M240.07 0.326172L262.81 18.4262M240.07 0.326172L281.83 1.36621M262.81 18.4262L280.64 56.2862M262.81 18.4262L281.83 1.36621M262.81 18.4262L305.07 29.2062M262.81 18.4262L305.07 29.2162M280.64 56.2862L305.07 29.2162M280.64 56.2862L305.07 29.2062M280.64 56.2862L326.63 65.5762M280.64 56.2862L299.46 98.1162M280.64 56.2862L249.99 98.1962M281.83 1.36621L305.07 29.2062M281.83 1.36621L321.48 21.4362M305.07 29.2062L321.48 21.4362M305.07 29.2062L326.63 65.5762M305.07 29.2062L346.87 49.2562M305.07 29.2162L346.87 49.2562M305.07 29.2162L326.63 65.5762M321.48 21.4362L346.87 49.2562M321.48 21.4362L359.9 49.5062M155.52 127.166L174.48 144.956M155.52 127.166L205.1 101.816M174.48 144.956L205.1 101.816M174.48 144.956L216.76 145.816M174.48 144.956L151.07 170.506M174.48 144.956L188.39 182.196M205.1 101.816L216.76 145.816M205.1 101.816L249.99 98.1962M326.63 65.5762L299.46 98.1162M326.63 65.5762L346.87 49.2562M326.63 65.5762L372.61 77.9262M326.63 65.5762L350.87 98.7862M299.46 98.1162L267.5 141.846M299.46 98.1162L323.3 132.776M299.46 98.1162L249.99 98.1962M299.46 98.1162L350.87 98.7862M216.76 145.816L249.99 98.1962M216.76 145.816L267.5 141.846M216.76 145.816L188.39 182.196M216.76 145.816L234.74 187.066M249.99 98.1962L267.5 141.846M267.5 141.846L323.3 132.776M267.5 141.846L234.74 187.066M267.5 141.846L292.36 174.316M323.3 132.776L350.87 98.7862M323.3 132.776L380.3 121.786M323.3 132.776L292.36 174.316M323.3 132.776L354.31 153.766M346.87 49.2562L372.61 77.9262M346.87 49.2562L359.9 49.5062M346.87 49.2562L387.9 71.1062M372.61 77.9262L387.9 71.1062M372.61 77.9262L417.09 89.4262M372.61 77.9262L350.87 98.7862M372.61 77.9262L401.54 99.8362M359.9 49.5062L387.9 71.1062M359.9 49.5062L398 74.5962M387.9 71.1062L417.09 89.4262M387.9 71.1062L398 74.5962M387.9 71.1062L427.86 87.3462M417.09 89.4262L427.86 87.3462M417.09 89.4262L458.58 96.2162M417.09 89.4262L401.54 99.8362M417.09 89.4262L448.8 100.946M398 74.5962L427.86 87.3462M398 74.5962L436.63 85.7562L427.86 87.3462M427.86 87.3462L458.58 96.2162M458.58 96.2162L448.8 100.946M350.87 98.7862L380.3 121.786M350.87 98.7862L401.54 99.8362M380.3 121.786L401.54 99.8362M380.3 121.786L434.65 112.056M380.3 121.786L354.31 153.766M380.3 121.786L415.56 132.166M401.54 99.8362L434.65 112.056M401.54 99.8362L448.8 100.946M434.65 112.056L448.8 100.946M434.65 112.056L482.47 106.816M434.65 112.056L415.56 132.166M434.65 112.056L471.04 116.246M448.8 100.946L482.47 106.816M482.47 106.816L471.04 116.246M151.07 170.506L168.92 196.916M151.07 170.506L188.39 182.196M168.92 196.916L188.39 182.196M168.92 196.916L207.06 219.406M168.92 196.916L164.85 196.336L160.31 191.186M168.92 196.916L191.91 222.606M188.39 182.196L207.06 219.406M188.39 182.196L234.74 187.066M207.06 219.406L234.74 187.066M207.06 219.406L262.4 213.116M207.06 219.406L197.72 224.426L191.91 222.606M207.06 219.406L239.86 233.766M234.74 187.066L262.4 213.116M234.74 187.066L292.36 174.316M262.4 213.116L292.36 174.316M262.4 213.116L326.4 189.636M262.4 213.116L301.5 217.286M262.4 213.116L239.86 233.766M292.36 174.316L326.4 189.636M292.36 174.316L354.31 153.766M160.31 191.186L185.29 219.556M160.31 191.186L191.91 222.606M185.29 219.556L191.91 222.606M185.29 219.556L224.79 243.406M185.29 219.556L179.8 225.056M185.29 219.556L216.23 249.086M191.91 222.606L224.79 243.406M191.91 222.606L239.86 233.766M326.4 189.636L301.5 217.286M326.4 189.636L354.31 153.766M326.4 189.636L392.82 159.216M326.4 189.636L369.25 186.226M301.5 217.286L281.22 237.646M301.5 217.286L345.68 213.466M301.5 217.286L239.86 233.766M301.5 217.286L369.25 186.226M224.79 243.406L239.86 233.766M224.79 243.406L281.22 237.646M224.79 243.406L216.23 249.086M224.79 243.406L265.2 256.876M239.86 233.766L281.22 237.646M281.22 237.646L345.68 213.466M281.22 237.646L265.2 256.876M281.22 237.646L324.71 241.376M345.68 213.466L369.25 186.226M345.68 213.466L412.45 181.916M345.68 213.466L324.71 241.376M345.68 213.466L388.45 214.686M354.31 153.766L392.82 159.216M354.31 153.766L415.56 132.166M392.82 159.216L415.56 132.166M392.82 159.216L455.43 132.146M392.82 159.216L369.25 186.226M392.82 159.216L436.34 152.966M415.56 132.166L455.43 132.146M415.56 132.166L471.04 116.246M455.43 132.146L471.04 116.246M455.43 132.146L508 118.756M455.43 132.146L436.34 152.966M455.43 132.146L496.03 129.896M471.04 116.246L508 118.756M508 118.756L496.03 129.896M369.25 186.226L412.45 181.916M369.25 186.226L436.34 152.966M369.25 186.226L412.46 181.916M412.45 181.916L388.45 214.686M436.34 152.966L412.46 181.916M436.34 152.966L475.82 154.016M436.34 152.966L496.03 129.896M412.46 181.916L475.82 154.016M412.46 181.916L388.45 214.686M412.46 181.916L451.74 186.486M475.82 154.016L496.03 129.896M475.82 154.016L530.07 140.806M475.82 154.016L451.74 186.486M475.82 154.016L509.92 166.446M496.03 129.896L530.07 140.806M530.07 140.806L509.92 166.446M-227.5 288.276L-182.69 286.586M-182.69 286.586L-160.33 288.966M-182.69 286.586L-143.46 281.036M-160.33 288.966L-143.46 281.036M-160.33 288.966L-118.88 285.446M-160.33 288.966L-180.29 294.656M-160.33 288.966L-135.75 293.576M-143.46 281.036L-118.88 285.446M-143.46 281.036L-103.87 275.526M-118.88 285.446L-103.87 275.526M-118.88 285.446L-74.9501 283.516M-118.88 285.446L-135.75 293.576M-118.88 285.446L-91.02 293.016M-103.87 275.526L-74.9501 283.516M-103.87 275.526L-58.24 273.836M-74.9501 283.516L-58.24 273.836M-74.9501 283.516L-24.13 285.796M-74.9501 283.516L-42.9501 294.436M-74.9501 283.516L-91.02 293.016M-58.24 273.836L-24.13 285.796M-58.24 273.836L-0.910034 279.716M-180.29 294.656L-203.22 299.476M-180.29 294.656L-155.32 300.216M-180.29 294.656L-135.75 293.576M-203.22 299.476L-155.32 300.216M-203.22 299.476L-177.78 306.656M-155.32 300.216L-135.75 293.576M-155.32 300.216L-108.24 301.546M-155.32 300.216L-177.78 306.656M-155.32 300.216L-127.76 309.326M-135.75 293.576L-108.24 301.546M-135.75 293.576L-91.02 293.016M-24.13 285.796L-42.9501 294.436M-24.13 285.796L-0.910034 279.716M-24.13 285.796L34.48 293.126M-24.13 285.796L-42.9401 294.436M-24.13 285.796L11.62 299.316M-42.9501 294.436L-60.11 303.786M-42.9501 294.436L-9.01001 307.266M-42.9501 294.436L-91.02 293.016M-108.24 301.546L-91.02 293.016M-108.24 301.546L-60.11 303.786M-108.24 301.546L-127.76 309.326M-108.24 301.546L-77.7101 312.996M-91.02 293.016L-60.11 303.786M-60.11 303.786L-9.01001 307.266M-60.11 303.786L-77.7101 312.996M-60.11 303.786L-26.97 316.836M-9.01001 307.266L11.62 299.316M-9.01001 307.266L45.4399 312.146M-9.01001 307.266L-42.9401 294.436M-9.01001 307.266L-26.97 316.836M-9.01001 307.266L25.0699 320.026M-0.910034 279.716L34.48 293.126M-0.910034 279.716L51.5499 277.616M-0.910034 279.716L34.49 293.126M34.48 293.126L11.62 299.316M51.5499 277.616L34.49 293.126M51.5499 277.616L80.12 278.836M51.5499 277.616L95.22 246.206M34.49 293.126L80.12 278.836M34.49 293.126L11.62 299.316M34.49 293.126L63.5499 300.766M80.12 278.836L95.22 246.206M80.12 278.836L126.65 250.586M80.12 278.836L63.5499 300.766M80.12 278.836L110.55 285.566M95.22 246.206L126.65 250.586M95.22 246.206L142.2 216.496M126.65 250.586L142.2 216.496M126.65 250.586L171.74 241.826M126.65 250.586L159.52 267.986M126.65 250.586L110.55 285.566M142.2 216.496L171.74 241.826M142.2 216.496L179.8 225.056M-42.9401 294.436L11.62 299.316M11.62 299.316L45.4399 312.146M11.62 299.316L63.5499 300.766M45.4399 312.146L63.5499 300.766M45.4399 312.146L94.2999 308.716M45.4399 312.146L25.0699 320.026M45.4399 312.146L76.58 321.116M63.5499 300.766L94.2999 308.716M63.5499 300.766L110.55 285.566M171.74 241.826L159.52 267.986M171.74 241.826L179.8 225.056M171.74 241.826L210.64 256.456M171.74 241.826L203.56 269.946M159.52 267.986L110.55 285.566M159.52 267.986L143.58 297.106M159.52 267.986L192.82 289.026M159.52 267.986L203.56 269.946M94.2999 308.716L110.55 285.566M94.2999 308.716L143.58 297.106M94.2999 308.716L76.58 321.116M94.2999 308.716L127.1 316.636M110.55 285.566L143.58 297.106M143.58 297.106L127.11 316.636M143.58 297.106L178.3 308.566M143.58 297.106L127.1 316.636M143.58 297.106L192.82 289.026M-177.78 306.656L-202.73 314.086M-177.78 306.656L-150.72 316.276M-177.78 306.656L-127.76 309.326M-202.73 314.086L-150.72 316.276M-202.73 314.086L-175.91 319.766M-150.72 316.276L-127.76 309.326M-150.72 316.276L-98.7101 320.696M-150.72 316.276L-175.91 319.766M-150.72 316.276L-122.67 324.486M-127.76 309.326L-98.7101 320.696M-127.76 309.326L-77.7101 312.996M-98.7101 320.696L-77.7101 312.996M-98.7101 320.696L-46.6901 325.646M-98.7101 320.696L-122.67 324.486M-98.7101 320.696L-69.4301 331.136M-77.7101 312.996L-46.6901 325.646M-77.7101 312.996L-26.97 316.836M-46.6901 325.646L-26.97 316.836M-46.6901 325.646L5.32996 329.386M-46.6901 325.646L-69.4301 331.136M-26.97 316.836L5.32996 329.386M-26.97 316.836L25.0699 320.026M-175.91 319.766L-122.67 324.486M-175.91 319.766L-147.79 325.246L-122.67 324.486M-122.67 324.486L-69.4301 331.136M-122.67 324.486L-93.27 333.516L-69.4301 331.136M5.32996 329.386L25.0699 320.026M5.32996 329.386L57.4299 330.216L25.0699 320.026M25.0699 320.026L76.58 321.116M25.0699 320.026L57.4399 330.216M76.58 321.116L57.4399 330.216M76.58 321.116L109.9 326.646M76.58 321.116L127.1 316.636M76.58 321.116L127.11 316.636M57.4399 330.216L109.9 326.646M109.9 326.646L127.1 316.636M109.9 326.646L162.39 319.686M109.9 326.646L127.11 316.636M109.9 326.646L145.45 330.526M127.1 316.636L162.39 319.686M162.39 319.686L178.3 308.566M162.39 319.686L127.11 316.636M162.39 319.686L215.59 310.606M162.39 319.686L200.22 318.946M162.39 319.686L145.45 330.526M127.11 316.636L178.3 308.566M178.3 308.566L192.82 289.026M178.3 308.566L215.59 310.606M178.3 308.566L229.05 302.756M192.82 289.026L203.56 269.946M192.82 289.026L239.57 291.266M192.82 289.026L229.05 302.756M215.59 310.606L200.22 318.946M215.59 310.606L229.05 302.756M215.59 310.606L269.08 302.396M215.59 310.606L255.64 306.646M200.22 318.946L145.45 330.526M200.22 318.946L182.83 331.486L145.45 330.526M200.22 318.946L255.64 306.646M200.22 318.946L239.63 315.726L255.64 306.646M179.8 225.056L210.64 256.456M179.8 225.056L216.23 249.086M210.64 256.456L216.23 249.086M210.64 256.456L253.99 272.386M210.64 256.456L203.56 269.946M210.64 256.456L246.92 281.556M216.23 249.086L253.99 272.386M216.23 249.086L265.2 256.876M253.99 272.386L265.2 256.876M253.99 272.386L308.17 266.166M253.99 272.386L246.92 281.556M253.99 272.386L296.33 285.066M265.2 256.876L308.17 266.166M265.2 256.876L324.71 241.376M308.17 266.166L324.71 241.376M308.17 266.166L367.47 246.286M308.17 266.166L351.08 272.746M308.17 266.166L296.33 285.066M324.71 241.376L367.47 246.286M324.71 241.376L388.45 214.686M203.56 269.946L239.57 291.266M203.56 269.946L246.92 281.556M203.56 269.946L239.57 291.276L246.92 281.556M239.57 291.266L246.92 281.556M239.57 291.266L287.86 296.406M239.57 291.266L229.05 302.756M239.57 291.266L279.61 300.696M246.92 281.556L287.86 296.406M246.92 281.556L296.33 285.066M367.47 246.286L351.08 272.746M367.47 246.286L388.45 214.686M367.47 246.286L428.24 221.086M367.47 246.286L408.18 252.636M351.08 272.746L339.27 291.176M351.08 272.746L392.86 277.056M351.08 272.746L296.33 285.066M351.08 272.746L408.18 252.636M287.86 296.406L296.33 285.066M287.86 296.406L339.27 291.176M287.86 296.406L279.61 300.696M287.86 296.406L330.48 299.716M296.33 285.066L339.27 291.176M339.27 291.176L392.86 277.056M339.27 291.176L330.48 299.716M339.27 291.176L382.02 291.276M392.86 277.056L408.18 252.636M392.86 277.056L447.08 259.676M392.86 277.056L382.02 291.276M392.86 277.056L434.02 278.486M388.45 214.686L428.24 221.086M388.45 214.686L451.74 186.486M428.24 221.086L451.74 186.486M428.24 221.086L486.85 198.876M428.24 221.086L408.18 252.636M428.24 221.086L465.03 231.726M451.74 186.486L486.85 198.876M451.74 186.486L509.92 166.446M486.85 198.876L509.92 166.446M486.85 198.876L539.67 187.976M486.85 198.876L465.03 231.726M486.85 198.876L519.05 216.956M509.92 166.446L539.67 187.976M539.67 187.976L519.05 216.956M408.18 252.636L447.08 259.676M408.18 252.636L465.03 231.726M447.08 259.676L465.03 231.726M447.08 259.676L500.37 244.656M447.08 259.676L434.02 278.486M447.08 259.676L485.97 265.596M465.03 231.726L500.37 244.656M465.03 231.726L519.05 216.956M500.37 244.656L519.05 216.956M500.37 244.656L551.21 237.566M500.37 244.656L485.97 265.596M500.37 244.656L537.37 256.856M519.05 216.956L551.21 237.566M551.21 237.566L537.37 256.856M229.05 302.756L269.08 302.396M229.05 302.756L279.61 300.696M229.05 302.756L269.09 302.396M269.08 302.396L255.64 306.646M279.61 300.696L269.09 302.396M279.61 300.696L322.14 298.936M279.61 300.696L330.48 299.716M269.09 302.396L322.14 298.936M269.09 302.396L255.64 306.646M269.09 302.396L311.1 298.186M322.14 298.936L330.48 299.716M322.14 298.936L373.63 295.346M322.14 298.936L311.1 298.186M322.14 298.936L364.39 296.456M330.48 299.716L373.63 295.346M330.48 299.716L382.02 291.276M373.63 295.346L382.02 291.276M373.63 295.346L425.17 287.116M373.63 295.346L416.32 292.526M373.63 295.346L364.39 296.456M382.02 291.276L425.17 287.116M382.02 291.276L434.02 278.486M255.64 306.646L311.1 298.186M255.64 306.646L296.7 302.176L311.1 298.186M311.1 298.186L364.39 296.456M311.1 298.186L353.45 296.246L364.39 296.456M425.17 287.116L416.32 292.526M425.17 287.116L434.02 278.486M425.17 287.116L476.71 277.376M425.17 287.116L468.32 286.376M416.32 292.526L364.39 296.456M416.32 292.526L406.09 295.726L364.39 296.456M416.32 292.526L468.32 286.376M416.32 292.526L458.94 293.186L468.32 286.376M434.02 278.486L476.71 277.376M434.02 278.486L485.97 265.596M434.02 278.486L476.72 277.376L485.97 265.596M476.71 277.376L485.97 265.596M476.71 277.376L528.25 269.276M476.71 277.376L468.32 286.376M476.71 277.376L520.33 280.286M485.97 265.596L528.25 269.276M485.97 265.596L537.37 256.856M528.25 269.276L537.37 256.856M528.25 269.276L579.74 265.936M528.25 269.276L520.33 280.286M528.25 269.276L572.26 276.486M537.37 256.856L579.74 265.936M579.74 265.936L572.26 276.486M468.32 286.376L520.33 280.286M468.32 286.376L511.85 289.996L520.33 280.286M520.33 280.286L572.26 276.486M520.33 280.286L564.7 287.516L572.26 276.486M-1019.23 288.176L-1067.04 299.776M-1019.23 288.176L-1011.28 298.076M-1019.23 288.176L-964.81 283.736M-1067.04 299.776L-1011.28 298.076M-1067.04 299.776L-1060.12 310.986M-1011.28 298.076L-1060.12 310.986M-1011.28 298.076L-1002.95 309.326M-1011.28 298.076L-964.81 283.736M-1011.28 298.076L-955.52 294.076M-1060.12 310.986L-1002.95 309.326M-1060.12 310.986L-1111.5 322.966L-1052.85 322.936M-1060.12 310.986L-1052.85 322.936M-1002.95 309.326L-955.52 294.076M-1002.95 309.326L-945.77 306.586M-1002.95 309.326L-1052.85 322.936M-1002.95 309.326L-994.19 321.996M-964.81 283.736L-955.52 294.076M-964.81 283.736L-910.38 277.296M-955.52 294.076L-945.77 306.586M-955.52 294.076L-910.38 277.296M-955.52 294.076L-899.75 289.296M-945.77 306.586L-899.75 289.296M-945.77 306.586L-888.58 303.836M-945.77 306.586L-994.19 321.996M-945.77 306.586L-935.52 320.746M-910.38 277.296L-899.75 289.296M-910.38 277.296L-855.95 270.816M-899.75 289.296L-888.58 303.836M-899.75 289.296L-855.95 270.816M-899.75 289.296L-843.97 285.246M-888.58 303.836L-843.97 285.246M-888.58 303.836L-831.39 302.116M-888.58 303.836L-876.84 319.786M-888.58 303.836L-935.52 320.746M-855.95 270.816L-843.97 285.246M-855.95 270.816L-801.51 266.276M-843.97 285.246L-801.51 266.276M-843.97 285.246L-831.39 302.116M-843.97 285.246L-788.18 283.436M-801.51 266.276L-788.18 283.436M-801.51 266.276L-747.07 266.436M-1052.85 322.936L-994.19 321.996M-994.19 321.996L-935.52 320.746M-831.39 302.116L-876.84 319.786M-831.39 302.116L-788.18 283.436M-831.39 302.116L-774.19 302.076M-831.39 302.116L-818.16 319.716M-876.84 319.786L-935.52 320.746M-876.84 319.786L-818.16 319.716M-788.18 283.436L-774.19 302.076M-788.18 283.436L-747.07 266.436M-788.18 283.436L-732.39 286.016M-774.19 302.076L-732.39 286.016M-774.19 302.076L-716.98 304.816M-774.19 302.076L-818.16 319.716M-774.19 302.076L-759.47 319.766M-747.07 266.436L-732.39 286.016M-747.07 266.436L-692.62 273.876M-732.39 286.016L-716.98 304.816M-732.39 286.016L-692.62 273.876M-732.39 286.016L-676.59 292.916M-716.98 304.816L-676.59 292.916M-716.98 304.816L-659.77 309.646M-716.98 304.816L-759.47 319.766M-716.98 304.816L-700.77 321.396M-692.62 273.876L-676.59 292.916M-692.62 273.876L-638.16 285.206M-676.59 292.916L-659.77 309.646M-676.59 292.916L-638.16 285.206M-676.59 292.916L-620.79 301.466M-659.77 309.646L-620.79 301.466M-659.77 309.646L-602.54 314.686M-659.77 309.646L-642.07 323.686M-659.77 309.646L-700.77 321.396M-638.16 285.206L-620.79 301.466M-638.16 285.206L-583.7 296.926M-620.79 301.466L-583.7 296.926M-620.79 301.466L-602.54 314.686M-620.79 301.466L-564.98 308.966M-583.7 296.926L-564.98 308.966M-583.7 296.926L-529.23 305.536M-818.16 319.716L-759.47 319.766M-759.47 319.766L-700.77 321.396M-602.54 314.686L-642.07 323.686M-602.54 314.686L-564.98 308.966M-602.54 314.686L-545.32 318.056M-602.54 314.686L-583.35 325.556M-642.07 323.686L-700.77 321.396M-642.07 323.686L-583.35 325.556M-564.98 308.966L-545.32 318.056M-564.98 308.966L-529.23 305.536M-564.98 308.966L-509.16 312.736M-545.32 318.056L-509.16 312.736M-545.32 318.056L-488.1 318.306M-545.32 318.056L-583.35 325.556M-545.32 318.056L-524.63 325.956M-529.23 305.536L-509.16 312.736M-529.23 305.536L-474.75 307.536M-509.16 312.736L-488.1 318.306M-509.16 312.736L-474.75 307.536M-509.16 312.736L-453.36 311.736M-488.1 318.306L-453.36 311.736M-488.1 318.306L-430.91 317.016M-488.1 318.306L-524.63 325.956M-488.1 318.306L-465.96 325.386M-474.75 307.536L-453.36 311.736M-474.75 307.536L-420.25 305.126M-453.36 311.736L-430.91 317.016M-453.36 311.736L-420.25 305.126M-453.36 311.736L-397.55 310.216M-430.91 317.016L-397.55 310.216M-430.91 317.016L-373.72 316.996M-430.91 317.016L-407.29 324.796M-430.91 317.016L-465.96 325.386M-420.25 305.126L-397.55 310.216M-420.25 305.126L-365.75 305.096M-397.55 310.216L-365.75 305.096M-397.55 310.216L-373.72 316.996M-397.55 310.216L-341.74 312.826M-365.75 305.096L-341.74 312.826M-365.75 305.096L-311.26 312.136M-583.35 325.556L-524.63 325.956M-583.35 325.556L-524.64 325.956L-465.96 325.386M-524.63 325.956L-465.96 325.386M-373.72 316.996L-407.29 324.796M-373.72 316.996L-341.74 312.826M-373.72 316.996L-316.46 320.326M-373.72 316.996L-348.61 325.826M-407.29 324.796L-465.96 325.386M-407.29 324.796L-348.61 325.826M-341.74 312.826L-316.46 320.326M-341.74 312.826L-311.26 312.136M-341.74 312.826L-285.87 318.556M-316.46 320.326L-285.87 318.556M-316.46 320.326L-259.13 323.036M-316.46 320.326L-348.61 325.826M-316.46 320.326L-289.78 327.336M-311.26 312.136L-285.87 318.556M-311.26 312.136L-256.77 318.826M-285.87 318.556L-259.13 323.036M-285.87 318.556L-256.77 318.826M-285.87 318.556L-229.98 321.696M-259.13 323.036L-229.98 321.696M-259.13 323.036L-201.81 323.996M-259.13 323.036L-289.78 327.336M-259.13 323.036L-230.95 327.816M-256.77 318.826L-229.98 321.696M-256.77 318.826L-202.28 320.996L-229.98 321.696M-229.98 321.696L-201.81 323.996M-201.81 323.996L-230.95 327.816M-348.61 325.826L-289.78 327.336M-289.78 327.336L-230.95 327.816M-202.03 321.036L-229.74 321.736M-202.03 321.036L-173.85 324.356M-202.03 321.036L-147.49 325.346M-229.74 321.736L-173.85 324.356M-229.74 321.736L-201.54 324.076M-173.85 324.356L-201.54 324.076M-173.85 324.356L-144.24 331.826M-173.85 324.356L-147.49 325.346M-173.85 324.356L-117.96 333.336M-201.54 324.076L-144.24 331.826M-201.54 324.076L-230.7 327.946L-171.88 331.786M-201.54 324.076L-171.88 331.786M-144.24 331.826L-117.96 333.336M-144.24 331.826L-171.88 331.786M-147.49 325.346L-117.96 333.336M-147.49 325.346L-92.9401 333.666L-117.96 333.336M222.22 329.506L183.31 331.556L240.15 315.726M222.22 329.506L240.15 315.726M222.22 329.506L261.76 325.646M222.22 329.506L280.38 311.326M240.15 315.726L280.38 311.326M240.15 315.726L297.24 302.146M261.76 325.646L280.38 311.326M261.76 325.646L320.85 307.546M261.76 325.646L301.34 321.626M280.38 311.326L320.85 307.546M280.38 311.326L297.24 302.146M280.38 311.326L338.72 299.076M320.85 307.546L338.72 299.076M320.85 307.546L379.94 299.906M320.85 307.546L301.35 321.626M320.85 307.546L361.13 306.626M320.85 307.546L301.34 321.626M297.24 302.146L338.72 299.076M297.24 302.146L354 296.246M338.72 299.076L379.94 299.906M338.72 299.076L354 296.246M338.72 299.076L394.52 297.706M379.94 299.906L394.52 297.706M379.94 299.906L435.57 301.726M379.94 299.906L361.13 306.626M379.94 299.906L419.87 305.486M354 296.246L394.52 297.706M354 296.246L406.67 295.746M394.52 297.706L435.57 301.726M394.52 297.706L406.67 295.746M394.52 297.706L448.6 298.096M435.57 301.726L448.6 298.096M435.57 301.726L491.55 304.176M435.57 301.726L477.95 309.176M435.57 301.726L419.87 305.486M406.67 295.746L448.6 298.096M406.67 295.746L459.54 293.256M448.6 298.096L459.54 293.256M448.6 298.096L491.55 304.176M448.6 298.096L502.86 298.036M459.54 293.256L502.86 298.036M459.54 293.256L512.47 290.136M301.34 321.626L340.56 319.566M340.56 319.566L361.13 306.626M340.56 319.566L301.35 321.626M340.56 319.566L400.93 311.266M340.56 319.566L384.32 327.266M301.35 321.626L361.13 306.626M361.13 306.626L400.93 311.266M361.13 306.626L419.87 305.486M491.55 304.176L477.95 309.176M491.55 304.176L502.86 298.036M491.55 304.176L547.66 306.846M491.55 304.176L536.33 314.166M477.95 309.176L461.46 314.196M477.95 309.176L522.51 320.376M477.95 309.176L419.87 305.486M477.95 309.176L536.33 314.166M400.93 311.266L419.87 305.486M400.93 311.266L461.46 314.196M400.93 311.266L384.32 327.266M400.93 311.266L446.51 325.866M419.87 305.486L461.46 314.196M461.46 314.196L522.51 320.376M461.46 314.196L446.51 325.866M461.46 314.196L509.53 330.626M522.51 320.376L536.33 314.166M522.51 320.376L583.74 327.656M522.51 320.376L509.53 330.626M502.86 298.036L547.66 306.846M502.86 298.036L512.47 290.136M502.86 298.036L557.13 297.996M547.66 306.846L557.13 297.996M547.66 306.846L603.66 309.316M547.66 306.846L536.33 314.166M547.66 306.846L594.72 319.146M512.47 290.136L557.13 297.996M512.47 290.136L565.35 287.716M557.13 297.996L603.66 309.316M557.13 297.996L565.35 287.716M557.13 297.996L611.22 298.436M603.66 309.316L611.22 298.436M603.66 309.316L659.31 311.136M603.66 309.316L594.72 319.146M603.66 309.316L652.82 322.806M565.35 287.716L611.22 298.436M565.35 287.716L618.02 287.346L611.22 298.436M611.22 298.436L659.31 311.136M659.31 311.136L652.82 322.806M536.33 314.166L583.74 327.656M536.33 314.166L594.72 319.146M583.74 327.656L594.72 319.146M594.72 319.146L652.82 322.806M384.32 327.266L446.51 325.866M446.51 325.866L509.53 330.626" stroke="#252EFF" stroke-width="0.25" stroke-linejoin="round"/>
</svg>
