<svg width="709" height="335" viewBox="0 0 709 335" fill="none" xmlns="http://www.w3.org/2000/svg">
<path d="M1456.19 166.822L1484.94 170.682M1456.19 166.822L1450.55 165.512M1456.19 166.822L1426.23 156.452M1484.94 170.682L1450.55 165.512M1484.94 170.682L1477.32 167.302M1450.55 165.512L1477.32 167.302M1450.55 165.512L1444.11 162.392M1450.55 165.512L1426.23 156.452M1450.55 165.512L1421.73 154.302M1477.32 167.302L1444.11 162.392M1477.32 167.302L1507.42 161.852M1477.32 167.302L1469.61 163.682M1444.11 162.392L1421.73 154.302M1444.11 162.392L1413.85 154.182M1444.11 162.392L1469.61 163.682M1444.11 162.392L1435.18 162.282M1426.23 156.452L1421.73 154.302M1426.23 156.452L1400.7 141.122M1421.73 154.302L1413.85 154.182M1421.73 154.302L1400.7 141.122M1421.73 154.302L1394.73 140.872M1413.85 154.182L1394.73 140.872M1413.85 154.182L1383.48 145.342M1413.85 154.182L1435.18 162.282M1413.85 154.182L1401.78 159.182M1400.7 141.122L1394.73 140.872M1400.7 141.122L1375.13 125.782M1394.73 140.872L1383.48 145.342M1394.73 140.872L1375.13 125.782M1394.73 140.872L1365.77 129.032M1383.48 145.342L1365.77 129.032M1383.48 145.342L1349.97 138.532M1383.48 145.342L1367.07 155.892M1383.48 145.342L1401.78 159.182M1375.13 125.782L1365.77 129.032M1375.13 125.782L1345.07 115.382M1365.77 129.032L1345.07 115.382M1365.77 129.032L1349.97 138.532M1365.77 129.032L1331.12 122.572M1345.07 115.382L1331.12 122.572M1345.07 115.382L1283.93 112.222M1507.42 161.852L1469.61 163.682M1507.42 161.852L1498.91 158.762M1469.61 163.682L1498.91 158.762M1469.61 163.682L1460.3 164.052M1469.61 163.682L1435.18 162.282M1498.91 158.762L1460.3 164.052M1498.91 158.762L1531.6 150.502M1498.91 158.762L1489.7 160.642M1460.3 164.052L1435.18 162.282M1460.3 164.052L1423.16 167.702M1460.3 164.052L1489.7 160.642M1460.3 164.052L1449 170.342M1435.18 162.282L1423.16 167.702M1435.18 162.282L1401.78 159.182M1349.97 138.532L1367.07 155.892M1349.97 138.532L1331.12 122.572M1349.97 138.532L1294.42 135.332M1349.97 138.532L1328.72 153.942M1367.07 155.892L1385.84 170.102M1367.07 155.892L1346.71 171.612M1367.07 155.892L1401.78 159.182M1367.07 155.892L1328.72 153.942M1423.16 167.702L1401.78 159.182M1423.16 167.702L1385.84 170.102M1423.16 167.702L1449 170.342M1423.16 167.702L1408.55 178.872M1401.78 159.182L1385.84 170.102M1385.84 170.102L1346.71 171.612M1385.84 170.102L1408.55 178.872M1385.84 170.102L1367.42 185.442M1346.71 171.612L1328.72 153.942M1346.71 171.612L1295.67 172.032M1346.71 171.612L1367.42 185.442M1346.71 171.612L1324.7 189.292M1331.12 122.572L1294.42 135.332M1331.12 122.572L1283.93 112.222M1331.12 122.572L1258.49 117.442M1294.42 135.332L1258.49 117.442M1294.42 135.332L1239.46 128.552M1294.42 135.332L1328.72 153.942M1294.42 135.332L1266.61 151.272M1283.93 112.222L1258.49 117.442M1283.93 112.222L1223.46 103.252M1258.49 117.442L1239.46 128.552M1258.49 117.442L1223.46 103.252M1258.49 117.442L1214.55 106.652M1239.46 128.552L1214.55 106.652M1239.46 128.552L1205.06 118.712M1239.46 128.552L1266.61 151.272M1239.46 128.552L1224.06 145.302M1223.46 103.252L1214.55 106.652M1223.46 103.252L1191.4 89.5822M1214.55 106.652L1205.06 118.712M1214.55 106.652L1191.4 89.5822M1214.55 106.652L1188.6 93.8022M1205.06 118.712L1188.6 93.8022M1205.06 118.712L1180.2 108.682M1205.06 118.712L1193.61 138.142M1205.06 118.712L1224.06 145.302M1191.4 89.5822L1188.6 93.8022M1191.4 89.5822L1172.78 75.6422M1188.6 93.8022L1172.78 75.6422M1188.6 93.8022L1180.2 108.682M1188.6 93.8022L1167.63 82.5522M1172.78 75.6422L1167.63 82.5522M1172.78 75.6422L1152.62 65.8122M1328.72 153.942L1295.67 172.032M1328.72 153.942L1266.61 151.272M1295.67 172.032L1266.61 151.272M1295.67 172.032L1246.65 169.812M1295.67 172.032L1324.7 189.292M1295.67 172.032L1273.05 189.722M1266.61 151.272L1246.65 169.812M1266.61 151.272L1224.06 145.302M1180.2 108.682L1193.61 138.142M1180.2 108.682L1167.63 82.5522M1180.2 108.682L1153.85 101.352M1180.2 108.682L1166.2 131.922M1193.61 138.142L1224.06 145.302M1193.61 138.142L1210.32 166.152M1193.61 138.142L1179.6 162.432M1193.61 138.142L1166.2 131.922M1246.65 169.812L1224.06 145.302M1246.65 169.812L1210.32 166.152M1246.65 169.812L1273.05 189.722M1246.65 169.812L1231.97 189.192M1224.06 145.302L1210.32 166.152M1224.06 145.302L1193.61 138.152M1224.06 145.302L1210.32 166.162L1193.61 138.152M1210.32 166.152L1231.97 189.192M1210.32 166.152L1197.07 188.342M1210.32 166.152L1179.6 162.432M1193.61 138.152L1166.2 131.922M1193.61 138.152L1179.6 162.432M1531.6 150.502L1489.7 160.642M1531.6 150.502L1489.71 160.642L1522.78 155.522M1531.6 150.502L1522.78 155.522M1489.7 160.642L1522.78 155.522M1489.7 160.642L1479.6 168.872M1489.7 160.642L1449 170.342M1522.78 155.522L1479.6 168.872M1522.78 155.522L1557.78 154.462M1522.78 155.522L1513.88 167.502M1479.6 168.872L1449 170.342M1479.6 168.872L1436.4 182.242M1479.6 168.872L1513.88 167.502M1479.6 168.872L1469.25 182.372M1449 170.342L1436.4 182.242M1449 170.342L1408.55 178.872M1436.4 182.242L1408.55 178.872M1436.4 182.242L1392.94 193.742M1436.4 182.242L1469.25 182.372M1436.4 182.242L1424.19 196.462M1408.55 178.872L1392.94 193.742M1408.55 178.872L1367.42 185.442M1392.94 193.742L1367.42 185.442M1392.94 193.742L1349.02 201.452M1392.94 193.742L1379.02 207.222M1392.94 193.742L1424.19 196.472M1392.94 193.742L1424.19 196.462M1367.42 185.442L1349.02 201.452M1367.42 185.442L1324.7 189.292M1557.78 154.462L1513.88 167.502M1557.78 154.462L1549.26 172.172M1513.88 167.502L1549.26 172.172M1513.88 167.502L1503.98 184.552M1513.88 167.502L1469.25 182.372M1549.26 172.172L1503.98 184.552M1549.26 172.172L1586.04 183.662M1549.26 172.172L1540.05 192.612M1503.98 184.552L1469.25 182.372M1503.98 184.552L1458.22 196.892M1503.98 184.552L1540.05 192.612M1503.98 184.552L1493.54 201.372M1469.25 182.372L1458.22 196.892M1469.25 182.372L1424.19 196.462M1469.25 182.372L1424.19 196.472M1349.02 201.452L1379.02 207.222M1349.02 201.452L1324.7 189.292M1349.02 201.452L1302.69 203.802M1349.02 201.452L1334.05 212.072M1379.02 207.222L1412.23 207.472M1379.02 207.222L1366.27 214.612M1379.02 207.222L1424.19 196.472M1379.02 207.222L1334.05 212.072M1458.22 196.892L1424.19 196.462M1458.22 196.892L1412.23 207.472M1458.22 196.892L1424.19 196.472M1458.22 196.892L1493.54 201.372M1458.22 196.892L1446.74 209.122M1424.19 196.462L1412.23 207.472M1412.23 207.472L1366.27 214.612M1412.23 207.472L1424.19 196.472M1412.23 207.472L1446.74 209.122M1412.23 207.472L1399.86 215.002M1366.27 214.612L1334.05 212.072M1366.27 214.612L1321.03 216.412M1366.27 214.612L1399.86 215.002M1366.27 214.612L1353.11 218.182M1324.7 189.292L1302.69 203.802M1324.7 189.292L1273.05 189.722M1324.7 189.292L1273.05 189.732M1302.69 203.802L1273.05 189.732M1302.69 203.802L1273.05 189.722M1302.69 203.802L1259.36 204.992M1302.69 203.802L1334.05 212.072M1302.69 203.802L1290.99 212.732M1273.05 189.722L1259.36 204.992M1273.05 189.722L1231.97 189.192M1273.05 189.732L1231.97 189.192M1273.05 189.732L1259.36 204.992M1259.36 204.992L1231.97 189.192M1259.36 204.992L1220.83 206.372M1259.36 204.992L1290.99 212.732M1259.36 204.992L1250.45 214.792M1231.97 189.192L1220.83 206.372M1231.97 189.192L1197.07 188.342M1220.83 206.372L1197.07 188.342M1220.83 206.372L1183.95 207.802M1220.83 206.372L1210.86 217.412M1220.83 206.372L1250.45 214.792M1197.07 188.342L1179.6 162.432M1197.07 188.342L1183.95 207.802M1197.07 188.342L1163.25 187.762M1179.6 162.432L1166.2 131.922M1179.6 162.432L1147.41 159.982M1179.6 162.432L1163.25 187.762M1334.05 212.072L1321.03 216.412M1334.05 212.072L1290.99 212.732M1321.03 216.412L1290.99 212.732M1321.03 216.412L1278.28 218.552M1321.03 216.412L1353.11 218.182M1321.03 216.412L1307.86 219.852M1290.99 212.732L1278.28 218.552M1290.99 212.732L1250.45 214.792M1183.95 207.802L1210.86 217.412M1183.95 207.802L1163.25 187.762M1183.95 207.802L1145.59 209.082M1183.95 207.802L1170.63 219.662M1210.86 217.412L1237 222.482M1210.86 217.412L1195.84 226.582M1210.86 217.412L1250.45 214.792M1210.86 217.412L1170.63 219.662M1278.28 218.552L1250.45 214.792M1278.28 218.552L1237 222.482M1278.28 218.552L1307.86 219.852M1278.28 218.552L1264.37 225.112M1250.45 214.792L1237 222.482M1237 222.482L1195.84 226.582M1237 222.482L1264.37 225.112M1237 222.482L1221.53 231.792M1195.84 226.582L1170.63 219.662M1195.84 226.582L1153.48 229.242M1195.84 226.582L1221.53 231.792M1195.84 226.582L1178.24 237.562M1167.63 82.5522L1153.85 101.352M1167.63 82.5522L1152.62 65.8122M1167.63 82.5522L1138.68 76.5222M1153.85 101.352L1138.68 76.5222M1153.85 101.352L1116.01 102.602M1153.85 101.352L1166.2 131.922M1153.85 101.352L1132.81 128.742M1152.62 65.8122L1138.68 76.5222M1152.62 65.8122L1117.38 66.8922M1138.68 76.5222L1116.01 102.602M1138.68 76.5222L1117.38 66.8922M1138.68 76.5222L1096.55 92.4622M1116.01 102.602L1096.55 92.4622M1116.01 102.602L1071.8 130.792M1116.01 102.602L1132.81 128.742M1116.01 102.602L1090.09 140.312M1117.38 66.8922L1096.55 92.4622M1117.38 66.8922L1073.58 99.6922M1096.55 92.4622L1071.8 130.792M1096.55 92.4622L1073.58 99.6922M1096.55 92.4622L1051.65 134.002M1071.8 130.792L1051.65 134.002M1071.8 130.792L1027.33 172.182M1071.8 130.792L1045.55 171.992M1071.8 130.792L1090.09 140.312M1073.58 99.6922L1051.65 134.002M1073.58 99.6922L1029.43 148.142M1051.65 134.002L1029.43 148.142M1051.65 134.002L1027.33 172.182M1051.65 134.002L1008.75 178.892M1029.43 148.142L1008.75 178.892M1029.43 148.142L983.24 190.492M1166.2 131.922L1147.41 159.982M1166.2 131.922L1132.81 128.742M1147.41 159.982L1132.81 128.742M1147.41 159.982L1107.44 161.152M1147.41 159.982L1163.25 187.762M1147.41 159.982L1125.41 188.042M1132.81 128.742L1107.44 161.152M1132.81 128.742L1090.09 140.312M1027.33 172.182L1045.55 171.992M1027.33 172.182L1008.75 178.892M1027.33 172.182L980.45 209.142M1027.33 172.182L1002.3 207.362M1045.55 171.992L1063.54 179.882M1045.55 171.992L1019.5 209.352M1045.55 171.992L1090.09 140.312M1045.55 171.992L1002.3 207.362M1107.44 161.152L1090.09 140.312M1107.44 161.152L1063.54 179.882M1107.44 161.152L1125.41 188.042M1107.44 161.152L1082.19 194.252M1090.09 140.312L1063.54 179.882M1063.54 179.882L1019.5 209.352M1063.54 179.882L1082.19 194.252M1063.54 179.882L1038.12 214.792M1019.5 209.352L1002.3 207.362M1019.5 209.352L973.49 236.512M1019.5 209.352L1038.12 214.792M1019.5 209.352L994.64 239.332M1008.75 178.892L980.45 209.142M1008.75 178.892L983.24 190.492M1008.75 178.892L949.98 215.232M980.45 209.142L949.98 215.232M980.45 209.142L915.51 236.312M980.45 209.142L1002.3 207.362M980.45 209.142L946.38 235.402M983.24 190.492L949.98 215.232M983.24 190.492L915.6 222.972M949.98 215.232L915.51 236.312M949.98 215.232L915.6 222.972M949.98 215.232L886.26 236.562M915.51 236.312L886.26 236.562M915.51 236.312L859.9 243.882M915.51 236.312L946.38 235.402M915.51 236.312L886.36 250.502M915.6 222.972L886.26 236.562M915.6 222.972L857.84 231.822M886.26 236.562L859.9 243.882M886.26 236.562L857.84 231.822M859.9 243.882L886.36 250.502M859.9 243.882L831.42 236.022M859.9 243.882L811.41 239.512M859.9 243.882L886.25 236.562M859.9 243.882L886.35 250.502M859.9 243.882L836.39 249.322M857.84 231.822L886.25 236.562M857.84 231.822L831.42 236.022M857.84 231.822L804.06 229.632M1002.3 207.362L973.49 236.512M1002.3 207.362L946.38 235.402M973.49 236.512L946.38 235.402M973.49 236.512L913.66 254.402M973.49 236.512L994.64 239.332M973.49 236.512L942.08 258.042M946.38 235.402L913.66 254.402M946.38 235.402L886.36 250.502M913.66 254.402L886.36 250.502M913.66 254.402L861.89 258.342M913.66 254.402L942.08 258.042M913.66 254.402L886.32 265.862M886.36 250.502L861.89 258.342M861.89 258.342L886.32 265.862M861.89 258.342L836.39 249.322M861.89 258.342L818.61 253.902M861.89 258.342L886.35 250.502M861.89 258.342L841.23 264.192M1163.25 187.762L1145.59 209.082M1163.25 187.762L1125.41 188.042M1145.59 209.082L1125.41 188.042M1145.59 209.082L1103.08 210.302M1145.59 209.082L1170.63 219.662M1145.59 209.082L1128.18 220.622M1125.41 188.042L1103.08 210.302M1125.41 188.042L1082.19 194.252M1103.08 210.302L1082.19 194.252M1103.08 210.302L1058.99 221.862M1103.08 210.302L1128.18 220.622M1103.08 210.302L1083.46 225.822M1082.19 194.252L1058.99 221.862M1082.19 194.252L1038.12 214.792M1058.99 221.862L1038.12 214.792M1058.99 221.862L1014.85 241.692M1058.99 221.862L1038.67 240.962M1058.99 221.862L1083.46 225.822M1038.12 214.792L1014.85 241.692M1038.12 214.792L994.64 239.332M1170.63 219.662L1153.48 229.242M1170.63 219.662L1128.18 220.622M1153.48 229.242L1128.18 220.622M1153.48 229.242L1108.66 230.552M1153.48 229.242L1178.24 237.562M1153.48 229.242L1133.42 240.082M1128.18 220.622L1108.66 230.552M1128.18 220.622L1083.46 225.822M1014.85 241.692L1038.67 240.962M1014.85 241.692L994.64 239.332M1014.85 241.692L968.78 261.142M1014.85 241.692L993.88 260.522M1038.67 240.962L1062.95 240.052M1038.67 240.962L1017.24 256.262M1038.67 240.962L1083.46 225.822M1038.67 240.962L993.88 260.522M1108.66 230.552L1083.46 225.822M1108.66 230.552L1062.95 240.052M1108.66 230.552L1133.42 240.082M1108.66 230.552L1086.85 243.542M1083.46 225.822L1062.95 240.052M1062.95 240.052L1017.24 256.262M1062.95 240.052L1086.85 243.542M1062.95 240.052L1040.21 253.782M1017.24 256.262L993.88 260.522M1017.24 256.262L969.33 273.962M1017.24 256.262L1040.21 253.782M1017.24 256.262L993.56 269.742M994.64 239.332L968.78 261.142M994.64 239.332L942.08 258.042M968.78 261.142L942.08 258.042M968.78 261.142L912.73 271.622M968.78 261.142L993.88 260.522M968.78 261.142L941.57 274.742M942.08 258.042L912.73 271.622M942.08 258.042L886.32 265.862M912.73 271.622L886.32 265.862M912.73 271.622L863.8 273.002M912.73 271.622L941.57 274.742M912.73 271.622L886.98 279.972M886.32 265.862L863.8 273.002M886.32 265.862L841.23 264.192M863.8 273.002L886.98 279.972M863.8 273.002L841.23 264.192M863.8 273.002L825.63 267.472M863.8 273.002L845.01 277.252M993.88 260.522L969.33 273.962M993.88 260.522L941.57 274.742M969.33 273.962L941.57 274.742M969.33 273.962L913.82 283.462M969.33 273.962L993.56 269.742M969.33 273.962L941.34 283.282M941.57 274.742L913.82 283.462M941.57 274.742L886.98 279.972M913.82 283.462L886.98 279.972M913.82 283.462L864.19 285.022M913.82 283.462L941.34 283.282M913.82 283.462L887.51 288.942M886.98 279.972L864.19 285.022M886.98 279.972L845.01 277.252M864.19 285.022L887.51 288.942M864.19 285.022L845.01 277.252M864.19 285.022L825.16 279.422M864.19 285.022L887.5 288.942M864.19 285.022L842.69 287.252M1586.04 183.662L1540.05 192.612M1586.04 183.662L1577.58 206.532M1540.05 192.612L1577.58 206.532M1540.05 192.612L1530.26 211.272M1540.05 192.612L1493.54 201.372M1577.58 206.532L1530.26 211.272M1577.58 206.532L1616.75 224.482L1568.5 226.092M1577.58 206.532L1568.5 226.092M1530.26 211.272L1493.54 201.372M1530.26 211.272L1482.62 214.852M1530.26 211.272L1568.5 226.092M1530.26 211.272L1519.96 225.522M1493.54 201.372L1482.62 214.852M1493.54 201.372L1446.74 209.122M1482.62 214.852L1446.74 209.122M1482.62 214.852L1434.84 217.282M1482.62 214.852L1519.96 225.522M1482.62 214.852L1471.26 223.672M1446.74 209.122L1434.84 217.282M1446.74 209.122L1399.86 215.002M1434.84 217.282L1399.86 215.002M1434.84 217.282L1387.07 218.612M1434.84 217.282L1422.51 221.442M1434.84 217.282L1471.26 223.672M1399.86 215.002L1387.07 218.612M1399.86 215.002L1353.11 218.182M1568.5 226.092L1608.43 243.482M1568.5 226.092L1558.89 240.152M1568.5 226.092L1616.75 224.492L1608.43 243.482M1568.5 226.092L1519.96 225.522M1608.43 243.482L1558.89 240.152M1608.43 243.482L1650.24 259.292M1608.43 243.482L1599.55 255.922M1558.89 240.152L1519.96 225.522M1558.89 240.152L1509.21 234.532M1558.89 240.152L1599.55 255.922M1558.89 240.152L1548.8 248.382M1519.96 225.522L1509.21 234.532M1519.96 225.522L1471.26 223.672M1387.07 218.612L1422.51 221.442M1387.07 218.612L1353.11 218.182M1387.07 218.612L1339.68 219.552M1387.07 218.612L1422.5 221.442L1373.82 219.722M1387.07 218.612L1373.82 219.722M1422.51 221.442L1459.46 228.382M1422.51 221.442L1409.71 223.462M1422.51 221.442L1471.26 223.672M1422.51 221.442L1373.82 219.722M1509.21 234.532L1471.26 223.672M1509.21 234.532L1459.46 228.382M1509.21 234.532L1548.8 248.382M1509.21 234.532L1498.01 239.302M1471.26 223.672L1459.46 228.382M1459.46 228.382L1409.71 223.462M1459.46 228.382L1498.01 239.302M1459.46 228.382L1447.2 231.322M1409.71 223.462L1373.82 219.722M1409.71 223.462L1359.97 223.372M1409.71 223.462L1447.2 231.322M1409.71 223.462L1396.41 227.072M1353.11 218.182L1339.68 219.552M1353.11 218.182L1307.86 219.852M1339.68 219.552L1307.86 219.852M1339.68 219.552L1293.77 225.242M1339.68 219.552L1373.82 219.722M1339.68 219.552L1325.63 223.912M1307.86 219.852L1293.77 225.242M1307.86 219.852L1264.37 225.112M1293.77 225.242L1264.37 225.112M1293.77 225.242L1248.81 234.282M1293.77 225.242L1325.63 223.912M1293.77 225.242L1278.41 234.202M1264.37 225.112L1248.81 234.282M1264.37 225.112L1221.53 231.792M1248.81 234.282L1221.53 231.792M1248.81 234.282L1278.41 234.202M1221.53 231.792L1248.8 234.282M1221.53 231.792L1203.92 243.662M1221.53 231.792L1178.24 237.562M1373.82 219.722L1359.97 223.372M1373.82 219.722L1325.63 223.912M1359.97 223.372L1325.63 223.912M1359.97 223.372L1310.67 232.832M1359.97 223.372L1396.41 227.072M1359.97 223.372L1345.55 232.632M1325.63 223.912L1310.67 232.832M1325.63 223.912L1278.41 234.202M1248.8 234.282L1203.92 243.662M1248.8 234.282L1231.54 246.752M1248.8 234.282L1278.41 234.202M1203.92 243.662L1231.54 246.752M1203.92 243.662L1178.24 237.562M1203.92 243.662L1158.25 250.332M1203.92 243.662L1184.42 257.852M1231.54 246.752L1278.41 234.202M1231.54 246.752L1261.77 247.222L1278.41 234.202M1231.54 246.752L1261.77 247.212M1231.54 246.752L1212.91 262.092M1231.54 246.752L1184.42 257.852M1310.67 232.832L1278.41 234.202M1310.67 232.832L1261.77 247.212M1310.67 232.832L1345.55 232.632M1310.67 232.832L1294.88 246.562M1278.41 234.202L1261.77 247.212M1261.77 247.212L1294.88 246.562M1261.77 247.212L1244.28 263.632M1261.77 247.212L1212.91 262.092M1650.24 259.292L1599.55 255.922M1650.24 259.292L1642.17 268.572M1599.55 255.922L1642.17 268.572M1599.55 255.922L1590.25 262.322M1599.55 255.922L1548.8 248.382M1642.17 268.572L1590.25 262.322M1642.17 268.572L1686.85 279.452M1642.17 268.572L1633.72 276.012M1590.25 262.322L1548.8 248.382M1590.25 262.322L1538.32 253.122M1590.25 262.322L1633.72 276.012M1590.25 262.322L1580.57 268.872M1548.8 248.382L1538.32 253.122M1548.8 248.382L1498.01 239.302M1538.32 253.122L1498.01 239.302M1538.32 253.122L1486.39 243.872M1538.32 253.122L1580.57 268.872M1538.32 253.122L1527.42 260.482M1498.01 239.302L1486.39 243.872M1498.01 239.302L1447.2 231.322M1486.39 243.872L1447.2 231.322M1486.39 243.872L1434.45 237.462M1486.39 243.872L1474.26 253.262M1486.39 243.872L1527.42 260.482M1447.2 231.322L1434.45 237.462M1447.2 231.322L1396.41 227.072M1686.85 279.452L1633.72 276.012M1686.85 279.452L1679.27 288.852L1633.72 276.012M1633.72 276.012L1580.57 268.872M1633.72 276.012L1624.85 284.422L1580.57 268.872M1580.57 268.872L1527.42 260.482M1580.57 268.872L1570.43 277.972L1527.42 260.482M1434.45 237.462L1474.26 253.262M1434.45 237.462L1396.41 227.072M1434.45 237.462L1382.5 237.642M1434.45 237.462L1421.1 249.632M1474.26 253.262L1527.42 260.482M1474.26 253.262L1515.99 271.492L1527.42 260.482M1474.26 253.262L1421.1 249.632M1474.26 253.262L1461.55 266.952L1421.1 249.632M1396.41 227.072L1382.5 237.642M1396.41 227.072L1345.55 232.632M1382.5 237.642L1345.55 232.632M1382.5 237.642L1330.55 248.092M1382.5 237.642L1421.1 249.632M1382.5 237.642L1367.93 254.892M1345.55 232.632L1330.55 248.092M1345.55 232.632L1294.88 246.562M1330.55 248.092L1294.88 246.562M1330.55 248.092L1278.59 264.252M1330.55 248.092L1367.93 254.892M1330.55 248.092L1314.76 267.212M1294.88 246.562L1278.59 264.252M1294.88 246.562L1244.28 263.632M1278.59 264.252L1244.28 263.632M1278.59 264.252L1226.63 280.972M1278.59 264.252L1261.57 282.172M1278.59 264.252L1314.75 267.212M1278.59 264.252L1314.76 267.212M1244.28 263.632L1212.91 262.092M1244.28 263.632L1226.63 280.972M1244.28 263.632L1193.62 278.712M1212.91 262.092L1184.42 257.852M1212.91 262.092L1163.7 273.012M1212.91 262.092L1193.62 278.712M1421.1 249.632L1367.93 254.892M1421.1 249.632L1407.11 267.112L1367.93 254.892M1367.93 254.892L1314.76 267.212M1367.93 254.892L1352.65 274.542L1314.76 267.212M1226.63 280.972L1261.57 282.172M1226.63 280.972L1193.62 278.712M1226.63 280.972L1174.66 293.122M1226.63 280.972L1208.39 295.452M1261.57 282.172L1314.75 267.212M1261.57 282.172L1298.2 285.872L1314.75 267.212M1261.57 282.172L1208.39 295.452M1261.57 282.172L1243.73 297.592L1208.39 295.452M1178.24 237.562L1158.25 250.332M1178.24 237.562L1133.42 240.082M1158.25 250.332L1133.42 240.082M1158.25 250.332L1111.1 252.082M1158.25 250.332L1184.42 257.852M1158.25 250.332L1136.45 263.762M1133.42 240.082L1111.1 252.082M1133.42 240.082L1086.85 243.542M1111.1 252.082L1086.85 243.542M1111.1 252.082L1063.5 256.032M1111.1 252.082L1136.45 263.762M1111.1 252.082L1087.83 263.722M1086.85 243.542L1063.5 256.032M1086.85 243.542L1040.21 253.782M1063.5 256.032L1040.21 253.782M1063.5 256.032L1015.89 265.652M1063.5 256.032L1039.23 266.632M1063.5 256.032L1087.83 263.722M1040.21 253.782L1015.89 265.652M1040.21 253.782L993.56 269.742M1184.42 257.852L1163.7 273.012M1184.42 257.852L1136.45 263.762M1163.7 273.012L1136.45 263.762M1163.7 273.012L1113.99 275.282M1163.7 273.012L1193.62 278.712M1163.7 273.012L1142.78 286.632M1136.45 263.762L1113.99 275.282M1136.45 263.762L1087.83 263.722M1015.89 265.652L1039.23 266.632M1015.89 265.652L993.56 269.742M1015.89 265.652L967.08 280.472M1015.89 265.652L990.63 276.532M1039.23 266.632L1064.33 273.422M1039.23 266.632L1014.67 276.162M1039.23 266.632L1087.83 263.722M1039.23 266.632L990.63 276.532M1113.99 275.282L1087.83 263.722M1113.99 275.282L1064.33 273.422M1113.99 275.282L1142.78 286.632M1113.99 275.282L1091.97 284.502M1087.83 263.722L1064.33 273.422M1064.33 273.422L1014.67 276.162M1064.33 273.422L1091.97 284.502M1064.33 273.422L1041.18 281.972M1064.33 273.422L1041.17 281.972M1014.67 276.162L990.63 276.532M1014.67 276.162L964.84 287.932M1014.67 276.162L1041.17 281.972M1014.67 276.162L990.38 287.672M993.56 269.742L967.08 280.472M993.56 269.742L941.34 283.282M967.08 280.472L941.34 283.282M967.08 280.472L913.59 290.042M967.08 280.472L990.63 276.532M967.08 280.472L939.65 289.302M941.34 283.282L913.59 290.042M941.34 283.282L887.51 288.942M913.59 290.042L887.51 288.942M913.59 290.042L863.72 292.102M913.59 290.042L939.65 289.302M913.59 290.042L887.75 295.302M887.51 288.942L863.72 292.102M863.72 292.102L887.75 295.302M863.72 292.102L842.69 287.252M863.72 292.102L820.33 289.632M863.72 292.102L887.5 288.942M863.72 292.102L840.29 295.322M990.63 276.532L964.84 287.932M990.63 276.532L939.65 289.302M964.84 287.932L939.65 289.302M964.84 287.932L913.36 297.562M964.84 287.932L990.38 287.672M964.84 287.932L939.43 299.722M939.65 289.302L913.36 297.562M939.65 289.302L887.75 295.302M913.36 297.562L887.75 295.302M913.36 297.562L863.23 300.142M913.36 297.562L939.43 299.722M913.36 297.562L888.29 306.152M887.75 295.302L863.23 300.142M887.75 295.302L840.29 295.322M887.75 295.302L863.22 300.142M863.23 300.142L888.29 306.152M1193.62 278.712L1174.66 293.122M1193.62 278.712L1142.78 286.632M1174.66 293.122L1142.78 286.632M1174.66 293.122L1122.68 295.742M1174.66 293.122L1208.39 295.452M1174.66 293.122L1155.19 302.752M1142.78 286.632L1122.68 295.742M1142.78 286.632L1091.97 284.502M1122.68 295.742L1091.97 284.502M1122.68 295.742L1070.68 292.212M1122.68 295.742L1155.19 302.752M1122.68 295.742L1101.97 301.332M1091.97 284.502L1070.68 292.212M1091.97 284.502L1041.18 281.972M1070.68 292.212L1041.18 281.972M1070.68 292.212L1018.67 292.182M1070.68 292.212L1048.73 298.912M1070.68 292.212L1101.96 301.332L1048.73 298.912M1070.68 292.212L1101.97 301.332M1041.18 281.972L1018.67 292.182M1041.17 281.972L990.38 287.672M1041.17 281.972L1018.67 292.182M1208.39 295.452L1155.19 302.752M1208.39 295.452L1189.26 306.202L1155.19 302.752M1155.19 302.752L1101.97 301.332M1155.19 302.752L1134.78 308.202L1101.97 301.332M1018.67 292.182L1048.73 298.912M1018.67 292.182L990.38 287.672M1018.67 292.182L966.68 302.382M1018.67 292.182L995.48 303.132M1048.73 298.912L1080.29 305.802L1101.97 301.332M1048.73 298.912L1101.97 301.332M1048.73 298.912L995.48 303.132M1048.73 298.912L1025.78 305.762L995.48 303.132M990.38 287.672L966.68 302.382M990.38 287.672L939.43 299.722M966.68 302.382L939.43 299.722M966.68 302.382L914.71 311.912M966.68 302.382L995.48 303.132M966.68 302.382L942.31 313.212M939.43 299.722L914.71 311.912M939.43 299.722L888.29 306.152M914.71 311.912L888.29 306.152M914.71 311.912L862.74 314.752M914.71 311.912L942.31 313.212M914.71 311.912L889.13 319.142M888.29 306.152L862.74 314.752M888.29 306.152L863.22 300.142M888.29 306.152L837.78 307.322M888.29 306.152L862.73 314.752M862.74 314.752L889.13 319.142M995.48 303.132L942.31 313.212M995.48 303.132L971.29 312.802L942.31 313.212M942.31 313.212L889.13 319.142M942.31 313.212L916.8 319.492L889.13 319.142M889.13 319.142L862.73 314.752M889.13 319.142L835.91 320.432M889.13 319.142L862.3 321.662L835.91 320.432M886.25 236.562L831.42 236.022M831.42 236.022L811.41 239.512M831.42 236.022L804.06 229.632M831.42 236.022L787.12 230.312M811.41 239.512L787.12 230.312M811.41 239.512L773.59 231.162M811.41 239.512L836.39 249.322M811.41 239.512L795.98 242.652M804.06 229.632L787.12 230.312M804.06 229.632L763.87 223.292M787.12 230.312L773.59 231.162M787.12 230.312L763.87 223.292M787.12 230.312L751.92 220.302M773.59 231.162L751.92 220.302M773.59 231.162L739.94 219.572M773.59 231.162L795.98 242.652M773.59 231.162L761.3 233.042M763.87 223.292L751.92 220.302M763.87 223.292L731.68 211.152M751.92 220.302L739.94 219.572M751.92 220.302L731.68 211.152M751.92 220.302L719.78 205.572M739.94 219.572L719.78 205.572M739.94 219.572L703.98 205.492M739.94 219.572L725.43 222.432M739.94 219.572L761.3 233.042M731.68 211.152L719.78 205.572M731.68 211.152L701.87 191.592M719.78 205.572L701.87 191.592M719.78 205.572L703.98 205.492M719.78 205.572L684.65 185.662M701.87 191.592L684.65 185.662M701.87 191.592L669.52 165.772M886.35 250.502L836.39 249.322M836.39 249.322L818.61 253.902M836.39 249.322L795.98 242.652M818.61 253.902L795.98 242.652M818.61 253.902L783.06 245.622M818.61 253.902L841.23 264.192M818.61 253.902L804.62 257.102M795.98 242.652L783.06 245.622M795.98 242.652L761.3 233.042M703.98 205.492L725.43 222.432M703.98 205.492L684.65 185.662M703.98 205.492L661.5 190.862M703.98 205.492L681.44 212.772M725.43 222.432L747.88 236.622M725.43 222.432L705.69 230.062M725.43 222.432L761.3 233.042M725.43 222.432L681.44 212.772M783.06 245.622L761.3 233.042M783.06 245.622L747.88 236.622M783.06 245.622L804.62 257.102M783.06 245.622L770.39 248.392M761.3 233.042L747.88 236.622M747.88 236.622L705.69 230.062M747.88 236.622L770.39 248.392M747.88 236.622L730.71 242.382M705.69 230.062L681.44 212.772M705.69 230.062L653.56 227.702M705.69 230.062L730.71 242.382M705.69 230.062L677.78 243.422M684.65 185.662L661.5 190.862M684.65 185.662L669.52 165.772M684.65 185.662L665.45 175.852L653.48 187.642M661.5 190.862L655.2 185.602L653.48 187.642M661.5 190.862L635.55 214.142M661.5 190.862L681.44 212.772M661.5 190.862L642.32 213.402M669.52 165.772L653.48 187.642M669.52 165.772L652.72 207.702M653.48 187.642L635.55 214.142M653.48 187.642L652.72 207.702M653.48 187.642L635.62 217.972L627.24 219.792M653.48 187.642L627.24 219.792M635.55 214.142L627.24 219.792M635.55 214.142L623.48 219.462L592.05 198.582M635.55 214.142L638.64 212.062L642.32 213.402M635.55 214.142L610.82 219.182M635.55 214.142L626.62 219.132L592.05 198.582M652.72 207.702L627.24 219.792M652.72 207.702L643.88 221.202L630.79 221.322L611.39 205.862L627.24 219.792M627.24 219.792L592.05 198.582M627.24 219.792L611.38 205.862M627.24 219.792L570.52 168.092M592.05 198.582L570.52 168.092M592.05 198.582L533.01 136.772M592.05 198.582L558.53 171.642M592.05 198.582L610.82 219.182M611.38 205.862L570.52 168.092M611.38 205.862L545.45 130.402M570.52 168.092L545.45 130.402M570.52 168.092L533.01 136.772M570.52 168.092L502.73 91.2522M545.45 130.402L502.73 91.2522M545.45 130.402L472.72 44.8622M681.44 212.772L653.56 227.702M681.44 212.772L642.32 213.402M681.44 212.772L642.32 213.412M653.56 227.702L642.32 213.412M653.56 227.702L642.32 213.402M653.56 227.702L621.84 228.652M653.56 227.702L677.78 243.422M653.56 227.702L631.7 242.952M642.32 213.402L621.84 228.652M642.32 213.402L610.82 219.182M642.32 213.412L610.82 219.182M642.32 213.412L621.84 228.652M533.01 136.772L558.53 171.642M533.01 136.772L502.73 91.2522M533.01 136.772L472.72 80.9722M533.01 136.772L504.48 127.832M558.53 171.642L610.82 219.182M558.53 171.642L579.42 197.822M558.53 171.642L530.27 160.572M558.53 171.642L504.48 127.832M621.84 228.652L610.82 219.182M621.84 228.652L579.42 197.822M621.84 228.652L631.7 242.952M621.84 228.652L596.46 222.002M610.82 219.182L579.42 197.822M579.42 197.822L596.46 222.002M579.42 197.822L549.15 179.782M579.42 197.822L530.27 160.572M841.23 264.192L825.63 267.472M841.23 264.192L804.62 257.102M841.23 264.192L804.63 257.102M825.63 267.472L804.63 257.102M825.63 267.472L804.62 257.102M825.63 267.472L792.26 258.212M825.63 267.472L845.01 277.252M825.63 267.472L810.92 268.142M804.62 257.102L792.26 258.212M804.62 257.102L770.39 248.392M804.63 257.102L770.39 248.392M804.63 257.102L792.26 258.212M792.26 258.212L770.39 248.392M792.26 258.212L755.45 250.752M792.26 258.212L810.92 268.142M792.26 258.212L776.3 258.602M770.39 248.392L755.45 250.752M770.39 248.392L730.71 242.382M755.45 250.752L730.71 242.382M755.45 250.752L706.96 250.602M755.45 250.752L732.94 254.722M755.45 250.752L776.3 258.602M730.71 242.382L706.96 250.602M730.71 242.382L677.78 243.422M845.01 277.252L825.16 279.422M845.01 277.252L810.92 268.142M825.16 279.422L810.92 268.142M825.16 279.422L789.17 271.162M825.16 279.422L842.69 287.252M825.16 279.422L803.46 281.702M810.92 268.142L789.17 271.162M810.92 268.142L776.3 258.602M706.96 250.602L732.94 254.722M706.96 250.602L677.78 243.422M706.96 250.602L645.01 260.292M706.96 250.602L672.64 262.552M732.94 254.722L749.25 265.172M732.94 254.722L698.49 266.372M732.94 254.722L776.3 258.602M732.94 254.722L672.64 262.552M789.17 271.162L776.3 258.602M789.17 271.162L749.25 265.172M789.17 271.162L803.46 281.702M789.17 271.162L763.87 276.192M776.3 258.602L749.25 265.172M749.25 265.172L698.49 266.372M749.25 265.172L763.87 276.192M749.25 265.172L718.24 274.502M698.49 266.372L672.64 262.552M698.49 266.372L635.6 276.452M698.49 266.372L718.24 274.502M698.49 266.372L660.91 280.382M677.78 243.422L645.01 260.292M677.78 243.422L631.7 242.952M645.01 260.292L631.7 242.952M645.01 260.292L607.35 242.422M645.01 260.292L672.64 262.552M645.01 260.292L619.64 262.832M631.7 242.952L607.35 242.422M631.7 242.952L596.46 222.002M607.35 242.422L596.46 222.002M607.35 242.422L565.35 197.782M607.35 242.422L619.64 262.832M607.35 242.422L579.25 223.722M596.46 222.002L565.35 197.782M596.46 222.002L549.15 179.782M565.35 197.782L549.15 179.782M565.35 197.782L523.14 178.322M565.35 197.782L532.87 181.602M565.35 197.782L579.25 223.722M549.15 179.782L530.27 160.572M549.15 179.782L523.14 178.322M549.15 179.782L508.93 171.172M530.27 160.572L504.48 127.832M530.27 160.572L485.52 145.622M530.27 160.572L508.93 171.172M672.64 262.552L635.6 276.452M672.64 262.552L619.64 262.832M635.6 276.452L619.64 262.832M635.6 276.452L593.07 252.792M635.6 276.452L660.91 280.382M635.6 276.452L608.45 278.282M619.64 262.832L593.07 252.792M619.64 262.832L579.25 223.722M523.14 178.322L528.75 177.792L532.87 181.602M523.14 178.322L508.93 171.172M523.14 178.322L491.08 197.582M523.14 178.322L499.69 191.852M532.87 181.602L548.99 208.742M532.87 181.602L506.92 196.302M532.87 181.602L579.25 223.722M532.87 181.602L499.69 191.852M593.07 252.792L579.25 223.722M593.07 252.792L549 208.742M593.07 252.792L608.45 278.282M593.07 252.792L564.78 246.872M579.25 223.722L549 208.742M579.25 223.722L548.99 208.742M549 208.742L564.78 246.872M548.99 208.742L506.92 196.302M548.99 208.742L564.78 246.872M548.99 208.742L517.8 217.162M506.92 196.302L501.95 191.522L499.69 191.852M506.92 196.302L474.71 220.222M506.92 196.302L517.8 217.162M506.92 196.302L480.2 225.722M502.73 91.2522L472.72 80.9722M502.73 91.2522L472.72 44.8622M502.73 91.2522L441.05 31.1822M472.72 80.9722L441.05 31.1822M472.72 80.9722L423.88 54.6322M472.72 80.9722L504.48 127.832M472.72 80.9722L454.9 102.482M472.72 44.8622L441.05 31.1822M472.72 44.8622L419.93 0.992188M441.05 31.1822L423.88 54.6322M441.05 31.1822L419.93 0.992188M441.05 31.1822L397.19 19.0922M423.88 54.6322L397.19 19.0922M423.88 54.6322L379.36 56.9522M423.88 54.6322L454.9 102.482M423.88 54.6322L410.01 98.8622M419.93 0.992188L397.19 19.0922M419.93 0.992188L378.17 2.03223M397.19 19.0922L379.36 56.9522M397.19 19.0922L378.17 2.03223M397.19 19.0922L354.93 29.8722M397.19 19.0922L354.93 29.8822M379.36 56.9522L354.93 29.8822M379.36 56.9522L354.93 29.8722M379.36 56.9522L333.37 66.2422M379.36 56.9522L360.54 98.7822M379.36 56.9522L410.01 98.8622M378.17 2.03223L354.93 29.8722M378.17 2.03223L338.52 22.1022M354.93 29.8722L338.52 22.1022M354.93 29.8722L333.37 66.2422M354.93 29.8722L313.13 49.9222M354.93 29.8822L313.13 49.9222M354.93 29.8822L333.37 66.2422M338.52 22.1022L313.13 49.9222M338.52 22.1022L300.1 50.1722M504.48 127.832L485.52 145.622M504.48 127.832L454.9 102.482M485.52 145.622L454.9 102.482M485.52 145.622L443.24 146.482M485.52 145.622L508.93 171.172M485.52 145.622L471.61 182.862M454.9 102.482L443.24 146.482M454.9 102.482L410.01 98.8622M333.37 66.2422L360.54 98.7822M333.37 66.2422L313.13 49.9222M333.37 66.2422L287.39 78.5922M333.37 66.2422L309.13 99.4522M360.54 98.7822L392.5 142.512M360.54 98.7822L336.7 133.442M360.54 98.7822L410.01 98.8622M360.54 98.7822L309.13 99.4522M443.24 146.482L410.01 98.8622M443.24 146.482L392.5 142.512M443.24 146.482L471.61 182.862M443.24 146.482L425.26 187.732M410.01 98.8622L392.5 142.512M392.5 142.512L336.7 133.442M392.5 142.512L425.26 187.732M392.5 142.512L367.64 174.982M336.7 133.442L309.13 99.4522M336.7 133.442L279.7 122.452M336.7 133.442L367.64 174.982M336.7 133.442L305.69 154.432M313.13 49.9222L287.39 78.5922M313.13 49.9222L300.1 50.1722M313.13 49.9222L272.1 71.7722M287.39 78.5922L272.1 71.7722M287.39 78.5922L242.91 90.0922M287.39 78.5922L309.13 99.4522M287.39 78.5922L258.46 100.502M300.1 50.1722L272.1 71.7722M300.1 50.1722L262 75.2622M272.1 71.7722L242.91 90.0922M272.1 71.7722L262 75.2622M272.1 71.7722L232.14 88.0122M242.91 90.0922L232.14 88.0122M242.91 90.0922L201.42 96.8822M242.91 90.0922L258.46 100.502M242.91 90.0922L211.2 101.612M262 75.2622L232.14 88.0122M262 75.2622L223.37 86.4222L232.14 88.0122M232.14 88.0122L201.42 96.8822M201.42 96.8822L211.2 101.612M309.13 99.4522L279.7 122.452M309.13 99.4522L258.46 100.502M279.7 122.452L258.46 100.502M279.7 122.452L225.35 112.722M279.7 122.452L305.69 154.432M279.7 122.452L244.44 132.832M258.46 100.502L225.35 112.722M258.46 100.502L211.2 101.612M225.35 112.722L211.2 101.612M225.35 112.722L177.53 107.482M225.35 112.722L244.44 132.832M225.35 112.722L188.96 116.912M211.2 101.612L177.53 107.482M177.53 107.482L188.96 116.912M508.93 171.172L491.08 197.582M508.93 171.172L471.61 182.862M491.08 197.582L471.61 182.862M491.08 197.582L452.94 220.072M491.08 197.582L495.15 197.002L499.69 191.852M491.08 197.582L468.09 223.272M471.61 182.862L452.94 220.072M471.61 182.862L425.26 187.732M452.94 220.072L425.26 187.732M452.94 220.072L397.6 213.782M452.94 220.072L462.28 225.092L468.09 223.272M452.94 220.072L420.14 234.432M425.26 187.732L397.6 213.782M425.26 187.732L367.64 174.982M397.6 213.782L367.64 174.982M397.6 213.782L333.6 190.302M397.6 213.782L358.5 217.952M397.6 213.782L420.14 234.432M367.64 174.982L333.6 190.302M367.64 174.982L305.69 154.432M499.69 191.852L474.71 220.222M499.69 191.852L468.09 223.272M474.71 220.222L468.09 223.272M474.71 220.222L435.21 244.072M474.71 220.222L480.2 225.722M474.71 220.222L443.77 249.752M468.09 223.272L435.21 244.072M468.09 223.272L420.14 234.432M333.6 190.302L358.5 217.952M333.6 190.302L305.69 154.432M333.6 190.302L267.18 159.882M333.6 190.302L290.75 186.892M358.5 217.952L378.78 238.312M358.5 217.952L314.32 214.132M358.5 217.952L420.14 234.432M358.5 217.952L290.75 186.892M435.21 244.072L420.14 234.432M435.21 244.072L378.78 238.312M435.21 244.072L443.77 249.752M435.21 244.072L394.8 257.542M420.14 234.432L378.78 238.312M378.78 238.312L314.32 214.132M378.78 238.312L394.8 257.542M378.78 238.312L335.29 242.042M314.32 214.132L290.75 186.892M314.32 214.132L247.55 182.582M314.32 214.132L335.29 242.042M314.32 214.132L271.55 215.352M305.69 154.432L267.18 159.882M305.69 154.432L244.44 132.832M267.18 159.882L244.44 132.832M267.18 159.882L204.57 132.812M267.18 159.882L290.75 186.892M267.18 159.882L223.66 153.632M244.44 132.832L204.57 132.812M244.44 132.832L188.96 116.912M204.57 132.812L188.96 116.912M204.57 132.812L152 119.422M204.57 132.812L223.66 153.632M204.57 132.812L163.97 130.562M188.96 116.912L152 119.422M152 119.422L163.97 130.562M290.75 186.892L247.55 182.582M290.75 186.892L223.66 153.632M290.75 186.892L247.54 182.582M247.55 182.582L271.55 215.352M223.66 153.632L247.54 182.582M223.66 153.632L184.18 154.682M223.66 153.632L163.97 130.562M247.54 182.582L184.18 154.682M247.54 182.582L271.55 215.352M247.54 182.582L208.26 187.152M184.18 154.682L163.97 130.562M184.18 154.682L129.93 141.472M184.18 154.682L208.26 187.152M184.18 154.682L150.08 167.112M163.97 130.562L129.93 141.472M129.93 141.472L150.08 167.112M887.5 288.942L842.69 287.252M842.69 287.252L820.33 289.632M842.69 287.252L803.46 281.702M820.33 289.632L803.46 281.702M820.33 289.632L778.88 286.112M820.33 289.632L840.29 295.322M820.33 289.632L795.75 294.242M803.46 281.702L778.88 286.112M803.46 281.702L763.87 276.192M778.88 286.112L763.87 276.192M778.88 286.112L734.95 284.182M778.88 286.112L795.75 294.242M778.88 286.112L751.02 293.682M763.87 276.192L734.95 284.182M763.87 276.192L718.24 274.502M734.95 284.182L718.24 274.502M734.95 284.182L684.13 286.462M734.95 284.182L702.95 295.102M734.95 284.182L751.02 293.682M718.24 274.502L684.13 286.462M718.24 274.502L660.91 280.382M840.29 295.322L863.22 300.142M840.29 295.322L815.32 300.882M840.29 295.322L795.75 294.242M863.22 300.142L815.32 300.882M863.22 300.142L837.78 307.322M815.32 300.882L795.75 294.242M815.32 300.882L768.24 302.212M815.32 300.882L837.78 307.322M815.32 300.882L787.76 309.992M795.75 294.242L768.24 302.212M795.75 294.242L751.02 293.682M684.13 286.462L702.95 295.102M684.13 286.462L660.91 280.382M684.13 286.462L625.52 293.792M684.13 286.462L702.94 295.102M684.13 286.462L648.38 299.982M702.95 295.102L720.11 304.452M702.95 295.102L669.01 307.932M702.95 295.102L751.02 293.682M768.24 302.212L751.02 293.682M768.24 302.212L720.11 304.452M768.24 302.212L787.76 309.992M768.24 302.212L737.71 313.662M751.02 293.682L720.11 304.452M720.11 304.452L669.01 307.932M720.11 304.452L737.71 313.662M720.11 304.452L686.97 317.502M669.01 307.932L648.38 299.982M669.01 307.932L614.56 312.812M669.01 307.932L702.94 295.102M669.01 307.932L686.97 317.502M669.01 307.932L634.93 320.692M660.91 280.382L625.52 293.792M660.91 280.382L608.45 278.282M660.91 280.382L625.51 293.792M625.52 293.792L648.38 299.982M608.45 278.282L625.51 293.792M608.45 278.282L579.88 279.502M608.45 278.282L564.78 246.872M625.51 293.792L579.88 279.502M625.51 293.792L648.38 299.982M625.51 293.792L596.45 301.432M579.88 279.502L564.78 246.872M579.88 279.502L533.35 251.252M579.88 279.502L596.45 301.432M579.88 279.502L549.45 286.232M564.78 246.872L533.35 251.252M564.78 246.872L517.8 217.162M533.35 251.252L517.8 217.162M533.35 251.252L488.26 242.492M533.35 251.252L500.48 268.652M533.35 251.252L549.45 286.232M517.8 217.162L488.26 242.492M517.8 217.162L480.2 225.722M702.94 295.102L648.38 299.982M648.38 299.982L614.56 312.812M648.38 299.982L596.45 301.432M614.56 312.812L596.45 301.432M614.56 312.812L565.7 309.382M614.56 312.812L634.93 320.692M614.56 312.812L583.42 321.782M596.45 301.432L565.7 309.382M596.45 301.432L549.45 286.232M488.26 242.492L500.48 268.652M488.26 242.492L480.2 225.722M488.26 242.492L449.36 257.122M488.26 242.492L456.44 270.612M500.48 268.652L549.45 286.232M500.48 268.652L516.42 297.772M500.48 268.652L467.18 289.692M500.48 268.652L456.44 270.612M565.7 309.382L549.45 286.232M565.7 309.382L516.42 297.772M565.7 309.382L583.42 321.782M565.7 309.382L532.9 317.302M549.45 286.232L516.42 297.772M516.42 297.772L532.89 317.302M516.42 297.772L481.7 309.232M516.42 297.772L532.9 317.302M516.42 297.772L467.18 289.692M837.78 307.322L862.73 314.752M837.78 307.322L810.72 316.942M837.78 307.322L787.76 309.992M862.73 314.752L810.72 316.942M862.73 314.752L835.91 320.432M810.72 316.942L787.76 309.992M810.72 316.942L758.71 321.362M810.72 316.942L835.91 320.432M810.72 316.942L782.67 325.152M787.76 309.992L758.71 321.362M787.76 309.992L737.71 313.662M758.71 321.362L737.71 313.662M758.71 321.362L706.69 326.312M758.71 321.362L782.67 325.152M758.71 321.362L729.43 331.802M737.71 313.662L706.69 326.312M737.71 313.662L686.97 317.502M706.69 326.312L686.97 317.502M706.69 326.312L654.67 330.052M706.69 326.312L729.43 331.802M686.97 317.502L654.67 330.052M686.97 317.502L634.93 320.692M835.91 320.432L782.67 325.152M835.91 320.432L807.79 325.912L782.67 325.152M782.67 325.152L729.43 331.802M782.67 325.152L753.27 334.182L729.43 331.802M654.67 330.052L634.93 320.692M654.67 330.052L602.57 330.882L634.93 320.692M634.93 320.692L583.42 321.782M634.93 320.692L602.56 330.882M583.42 321.782L602.56 330.882M583.42 321.782L550.1 327.312M583.42 321.782L532.9 317.302M583.42 321.782L532.89 317.302M602.56 330.882L550.1 327.312M550.1 327.312L532.9 317.302M550.1 327.312L497.61 320.352M550.1 327.312L532.89 317.302M550.1 327.312L514.55 331.192M532.9 317.302L497.61 320.352M497.61 320.352L481.7 309.232M497.61 320.352L532.89 317.302M497.61 320.352L444.41 311.272M497.61 320.352L459.78 319.612M497.61 320.352L514.55 331.192M532.89 317.302L481.7 309.232M481.7 309.232L467.18 289.692M481.7 309.232L444.41 311.272M481.7 309.232L430.95 303.422M467.18 289.692L456.44 270.612M467.18 289.692L420.43 291.932M467.18 289.692L430.95 303.422M444.41 311.272L459.78 319.612M444.41 311.272L430.95 303.422M444.41 311.272L390.92 303.062M444.41 311.272L404.36 307.312M459.78 319.612L514.55 331.192M459.78 319.612L477.17 332.152L514.55 331.192M459.78 319.612L404.36 307.312M459.78 319.612L420.37 316.392L404.36 307.312M480.2 225.722L449.36 257.122M480.2 225.722L443.77 249.752M449.36 257.122L443.77 249.752M449.36 257.122L406.01 273.052M449.36 257.122L456.44 270.612M449.36 257.122L413.08 282.222M443.77 249.752L406.01 273.052M443.77 249.752L394.8 257.542M406.01 273.052L394.8 257.542M406.01 273.052L351.83 266.832M406.01 273.052L413.08 282.222M406.01 273.052L363.67 285.732M394.8 257.542L351.83 266.832M394.8 257.542L335.29 242.042M351.83 266.832L335.29 242.042M351.83 266.832L292.53 246.952M351.83 266.832L308.92 273.412M351.83 266.832L363.67 285.732M335.29 242.042L292.53 246.952M335.29 242.042L271.55 215.352M456.44 270.612L420.43 291.932M456.44 270.612L413.08 282.222M456.44 270.612L420.43 291.942L413.08 282.222M420.43 291.932L413.08 282.222M420.43 291.932L372.14 297.072M420.43 291.932L430.95 303.422M420.43 291.932L380.39 301.362M413.08 282.222L372.14 297.072M413.08 282.222L363.67 285.732M292.53 246.952L308.92 273.412M292.53 246.952L271.55 215.352M292.53 246.952L231.76 221.752M292.53 246.952L251.82 253.302M308.92 273.412L320.73 291.842M308.92 273.412L267.14 277.722M308.92 273.412L363.67 285.732M308.92 273.412L251.82 253.302M372.14 297.072L363.67 285.732M372.14 297.072L320.73 291.842M372.14 297.072L380.39 301.362M372.14 297.072L329.52 300.382M363.67 285.732L320.73 291.842M320.73 291.842L267.14 277.722M320.73 291.842L329.52 300.382M320.73 291.842L277.98 291.942M267.14 277.722L251.82 253.302M267.14 277.722L212.92 260.342M267.14 277.722L277.98 291.942M267.14 277.722L225.98 279.152M271.55 215.352L231.76 221.752M271.55 215.352L208.26 187.152M231.76 221.752L208.26 187.152M231.76 221.752L173.15 199.542M231.76 221.752L251.82 253.302M231.76 221.752L194.97 232.392M208.26 187.152L173.15 199.542M208.26 187.152L150.08 167.112M173.15 199.542L150.08 167.112M173.15 199.542L120.33 188.642M173.15 199.542L194.97 232.392M173.15 199.542L140.95 217.622M150.08 167.112L120.33 188.642M120.33 188.642L140.95 217.622M251.82 253.302L212.92 260.342M251.82 253.302L194.97 232.392M212.92 260.342L194.97 232.392M212.92 260.342L159.63 245.322M212.92 260.342L225.98 279.152M212.92 260.342L174.03 266.262M194.97 232.392L159.63 245.322M194.97 232.392L140.95 217.622M159.63 245.322L140.95 217.622M159.63 245.322L108.79 238.232M159.63 245.322L174.03 266.262M159.63 245.322L122.63 257.522M140.95 217.622L108.79 238.232M108.79 238.232L122.63 257.522M430.95 303.422L390.92 303.062M430.95 303.422L380.39 301.362M430.95 303.422L390.91 303.062M390.92 303.062L404.36 307.312M380.39 301.362L390.91 303.062M380.39 301.362L337.86 299.602M380.39 301.362L329.52 300.382M390.91 303.062L337.86 299.602M390.91 303.062L404.36 307.312M390.91 303.062L348.9 298.852M337.86 299.602L329.52 300.382M337.86 299.602L286.37 296.012M337.86 299.602L348.9 298.852M337.86 299.602L295.61 297.122M329.52 300.382L286.37 296.012M329.52 300.382L277.98 291.942M286.37 296.012L277.98 291.942M286.37 296.012L234.83 287.782M286.37 296.012L243.68 293.192M286.37 296.012L295.61 297.122M277.98 291.942L234.83 287.782M277.98 291.942L225.98 279.152M404.36 307.312L348.9 298.852M404.36 307.312L363.3 302.842L348.9 298.852M348.9 298.852L295.61 297.122M348.9 298.852L306.55 296.912L295.61 297.122M234.83 287.782L243.68 293.192M234.83 287.782L225.98 279.152M234.83 287.782L183.29 278.042M234.83 287.782L191.68 287.042M243.68 293.192L295.61 297.122M243.68 293.192L253.91 296.392L295.61 297.122M243.68 293.192L191.68 287.042M243.68 293.192L201.06 293.852L191.68 287.042M225.98 279.152L183.29 278.042M225.98 279.152L174.03 266.262M225.98 279.152L183.28 278.042L174.03 266.262M183.29 278.042L174.03 266.262M183.29 278.042L131.75 269.942M183.29 278.042L191.68 287.042M183.29 278.042L139.67 280.952M174.03 266.262L131.75 269.942M174.03 266.262L122.63 257.522M131.75 269.942L122.63 257.522M131.75 269.942L80.26 266.602M131.75 269.942L139.67 280.952M131.75 269.942L87.74 277.152M122.63 257.522L80.26 266.602M80.26 266.602L87.74 277.152M191.68 287.042L139.67 280.952M191.68 287.042L148.15 290.662L139.67 280.952M139.67 280.952L87.74 277.152M139.67 280.952L95.3 288.182L87.74 277.152M1679.23 288.842L1727.04 300.442M1679.23 288.842L1671.28 298.742M1679.23 288.842L1624.81 284.402M1727.04 300.442L1671.28 298.742M1727.04 300.442L1720.12 311.652M1671.28 298.742L1720.12 311.652M1671.28 298.742L1662.95 309.992M1671.28 298.742L1624.81 284.402M1671.28 298.742L1615.52 294.742M1720.12 311.652L1662.95 309.992M1720.12 311.652L1771.5 323.632L1712.85 323.602M1720.12 311.652L1712.85 323.602M1662.95 309.992L1615.52 294.742M1662.95 309.992L1605.77 307.252M1662.95 309.992L1712.85 323.602M1662.95 309.992L1654.19 322.662M1624.81 284.402L1615.52 294.742M1624.81 284.402L1570.38 277.962M1615.52 294.742L1605.77 307.252M1615.52 294.742L1570.38 277.962M1615.52 294.742L1559.75 289.962M1605.77 307.252L1559.75 289.962M1605.77 307.252L1548.58 304.502M1605.77 307.252L1654.19 322.662M1605.77 307.252L1595.52 321.412M1570.38 277.962L1559.75 289.962M1570.38 277.962L1515.95 271.482M1559.75 289.962L1548.58 304.502M1559.75 289.962L1515.95 271.482M1559.75 289.962L1503.97 285.912M1548.58 304.502L1503.97 285.912M1548.58 304.502L1491.39 302.782M1548.58 304.502L1536.84 320.452M1548.58 304.502L1595.52 321.412M1515.95 271.482L1503.97 285.912M1515.95 271.482L1461.51 266.942M1503.97 285.912L1461.51 266.942M1503.97 285.912L1491.39 302.782M1503.97 285.912L1448.18 284.102M1461.51 266.942L1448.18 284.102M1461.51 266.942L1407.07 267.102M1712.85 323.602L1654.19 322.662M1654.19 322.662L1595.52 321.412M1491.39 302.782L1536.84 320.452M1491.39 302.782L1448.18 284.102M1491.39 302.782L1434.19 302.742M1491.39 302.782L1478.16 320.382M1536.84 320.452L1595.52 321.412M1536.84 320.452L1478.16 320.382M1448.18 284.102L1434.19 302.742M1448.18 284.102L1407.07 267.102M1448.18 284.102L1392.39 286.682M1434.19 302.742L1392.39 286.682M1434.19 302.742L1376.98 305.482M1434.19 302.742L1478.16 320.382M1434.19 302.742L1419.47 320.432M1407.07 267.102L1392.39 286.682M1407.07 267.102L1352.62 274.542M1392.39 286.682L1376.98 305.482M1392.39 286.682L1352.62 274.542M1392.39 286.682L1336.59 293.582M1376.98 305.482L1336.59 293.582M1376.98 305.482L1319.77 310.312M1376.98 305.482L1419.47 320.432M1376.98 305.482L1360.77 322.062M1352.62 274.542L1336.59 293.582M1352.62 274.542L1298.16 285.872M1336.59 293.582L1319.77 310.312M1336.59 293.582L1298.16 285.872M1336.59 293.582L1280.79 302.132M1319.77 310.312L1280.79 302.132M1319.77 310.312L1262.54 315.352M1319.77 310.312L1302.07 324.352M1319.77 310.312L1360.77 322.062M1298.16 285.872L1280.79 302.132M1298.16 285.872L1243.7 297.592M1280.79 302.132L1243.7 297.592M1280.79 302.132L1262.54 315.352M1280.79 302.132L1224.98 309.632M1243.7 297.592L1224.98 309.632M1243.7 297.592L1189.23 306.202M1478.16 320.382L1419.47 320.432M1419.47 320.432L1360.77 322.062M1262.54 315.352L1302.07 324.352M1262.54 315.352L1224.98 309.632M1262.54 315.352L1205.32 318.722M1262.54 315.352L1243.35 326.222M1302.07 324.352L1360.77 322.062M1302.07 324.352L1243.35 326.222M1224.98 309.632L1205.32 318.722M1224.98 309.632L1189.23 306.202M1224.98 309.632L1169.16 313.402M1205.32 318.722L1169.16 313.402M1205.32 318.722L1148.1 318.972M1205.32 318.722L1243.35 326.222M1205.32 318.722L1184.63 326.622M1189.23 306.202L1169.16 313.402M1189.23 306.202L1134.75 308.202M1169.16 313.402L1148.1 318.972M1169.16 313.402L1134.75 308.202M1169.16 313.402L1113.36 312.402M1148.1 318.972L1113.36 312.402M1148.1 318.972L1090.91 317.682M1148.1 318.972L1184.63 326.622M1148.1 318.972L1125.96 326.052M1134.75 308.202L1113.36 312.402M1134.75 308.202L1080.25 305.792M1113.36 312.402L1090.91 317.682M1113.36 312.402L1080.25 305.792M1113.36 312.402L1057.55 310.882M1090.91 317.682L1057.55 310.882M1090.91 317.682L1033.72 317.662M1090.91 317.682L1067.29 325.462M1090.91 317.682L1125.96 326.052M1080.25 305.792L1057.55 310.882M1080.25 305.792L1025.75 305.762M1057.55 310.882L1025.75 305.762M1057.55 310.882L1033.72 317.662M1057.55 310.882L1001.74 313.492M1025.75 305.762L1001.74 313.492M1025.75 305.762L971.26 312.802M1243.35 326.222L1184.63 326.622M1243.35 326.222L1184.64 326.622L1125.96 326.052M1184.63 326.622L1125.96 326.052M1033.72 317.662L1067.29 325.462M1033.72 317.662L1001.74 313.492M1033.72 317.662L976.46 320.992M1033.72 317.662L1008.61 326.492M1067.29 325.462L1125.96 326.052M1067.29 325.462L1008.61 326.492M1001.74 313.492L976.46 320.992M1001.74 313.492L971.26 312.802M1001.74 313.492L945.87 319.222M976.46 320.992L945.87 319.222M976.46 320.992L919.13 323.702M976.46 320.992L1008.61 326.492M976.46 320.992L949.78 328.002M971.26 312.802L945.87 319.222M971.26 312.802L916.77 319.492M945.87 319.222L919.13 323.702M945.87 319.222L916.77 319.492M945.87 319.222L889.98 322.362M919.13 323.702L889.98 322.362M919.13 323.702L861.81 324.662M919.13 323.702L949.78 328.002M919.13 323.702L890.95 328.482M916.77 319.492L889.98 322.362M916.77 319.492L862.28 321.662L889.98 322.362M889.98 322.362L861.81 324.662M861.81 324.662L890.95 328.482M1008.61 326.492L949.78 328.002M949.78 328.002L890.95 328.482M862.03 321.702L889.74 322.402M862.03 321.702L833.85 325.022M862.03 321.702L807.49 326.012M889.74 322.402L833.85 325.022M889.74 322.402L861.54 324.742M833.85 325.022L861.54 324.742M833.85 325.022L804.24 332.492M833.85 325.022L807.49 326.012M833.85 325.022L777.96 334.002M861.54 324.742L804.24 332.492M861.54 324.742L890.7 328.612L831.88 332.452M861.54 324.742L831.88 332.452M804.24 332.492L777.96 334.002M804.24 332.492L831.88 332.452M807.49 326.012L777.96 334.002M807.49 326.012L752.94 334.332L777.96 334.002M437.78 330.172L476.69 332.222L419.85 316.392M437.78 330.172L419.85 316.392M437.78 330.172L398.24 326.312M437.78 330.172L379.62 311.992M419.85 316.392L379.62 311.992M419.85 316.392L362.76 302.812M398.24 326.312L379.62 311.992M398.24 326.312L339.15 308.212M398.24 326.312L358.66 322.292M379.62 311.992L339.15 308.212M379.62 311.992L362.76 302.812M379.62 311.992L321.28 299.742M339.15 308.212L321.28 299.742M339.15 308.212L280.06 300.572M339.15 308.212L358.65 322.292M339.15 308.212L298.87 307.292M339.15 308.212L358.66 322.292M362.76 302.812L321.28 299.742M362.76 302.812L306 296.912M321.28 299.742L280.06 300.572M321.28 299.742L306 296.912M321.28 299.742L265.48 298.372M280.06 300.572L265.48 298.372M280.06 300.572L224.43 302.392M280.06 300.572L298.87 307.292M280.06 300.572L240.13 306.152M306 296.912L265.48 298.372M306 296.912L253.33 296.412M265.48 298.372L224.43 302.392M265.48 298.372L253.33 296.412M265.48 298.372L211.4 298.762M224.43 302.392L211.4 298.762M224.43 302.392L168.45 304.842M224.43 302.392L182.05 309.842M224.43 302.392L240.13 306.152M253.33 296.412L211.4 298.762M253.33 296.412L200.46 293.922M211.4 298.762L200.46 293.922M211.4 298.762L168.45 304.842M211.4 298.762L157.14 298.702M200.46 293.922L157.14 298.702M200.46 293.922L147.53 290.802M358.66 322.292L319.44 320.232M319.44 320.232L298.87 307.292M319.44 320.232L358.65 322.292M319.44 320.232L259.07 311.932M319.44 320.232L275.68 327.932M358.65 322.292L298.87 307.292M298.87 307.292L259.07 311.932M298.87 307.292L240.13 306.152M168.45 304.842L182.05 309.842M168.45 304.842L157.14 298.702M168.45 304.842L112.34 307.512M168.45 304.842L123.67 314.832M182.05 309.842L198.54 314.862M182.05 309.842L137.49 321.042M182.05 309.842L240.13 306.152M182.05 309.842L123.67 314.832M259.07 311.932L240.13 306.152M259.07 311.932L198.54 314.862M259.07 311.932L275.68 327.932M259.07 311.932L213.49 326.532M240.13 306.152L198.54 314.862M198.54 314.862L137.49 321.042M198.54 314.862L213.49 326.532M198.54 314.862L150.47 331.292M137.49 321.042L123.67 314.832M137.49 321.042L76.26 328.322M137.49 321.042L150.47 331.292M157.14 298.702L112.34 307.512M157.14 298.702L147.53 290.802M157.14 298.702L102.87 298.662M112.34 307.512L102.87 298.662M112.34 307.512L56.3401 309.982M112.34 307.512L123.67 314.832M112.34 307.512L65.28 319.812M147.53 290.802L102.87 298.662M147.53 290.802L94.65 288.382M102.87 298.662L56.3401 309.982M102.87 298.662L94.65 288.382M102.87 298.662L48.78 299.102M56.3401 309.982L48.78 299.102M56.3401 309.982L0.690063 311.802M56.3401 309.982L65.28 319.812M56.3401 309.982L7.18005 323.472M94.65 288.382L48.78 299.102M94.65 288.382L41.98 288.012L48.78 299.102M48.78 299.102L0.690063 311.802M0.690063 311.802L7.18005 323.472M123.67 314.832L76.26 328.322M123.67 314.832L65.28 319.812M76.26 328.322L65.28 319.812M65.28 319.812L7.18005 323.472M275.68 327.932L213.49 326.532M213.49 326.532L150.47 331.292" stroke="#0099DB" stroke-width="0.25" stroke-linejoin="round"/>
</svg>
