<svg width="27" height="16" viewBox="0 0 27 16" fill="none" xmlns="http://www.w3.org/2000/svg">
<path d="M23.4442 11.5844L22.2021 11.738L22.357 12.961L23.5991 12.8074L23.4442 11.5844ZM22.2021 11.738L20.9538 11.8923L21.1087 13.1153L22.357 12.961L22.2021 11.738ZM20.9538 11.8923L19.7117 12.0459L19.8666 13.2689L21.1087 13.1153L20.9538 11.8923ZM19.7117 12.0459L18.4634 12.2002L18.6183 13.4233L19.8666 13.2689L19.7117 12.0459ZM18.4634 12.2002L17.2151 12.3546L17.3699 13.5776L18.6183 13.4233L18.4634 12.2002ZM17.2151 12.3546L15.9978 12.5051L16.1527 13.7281L17.3699 13.5776L17.2151 12.3546ZM15.8406 11.2635L14.5923 11.4178L14.7495 12.6595L15.9978 12.5051L15.8406 11.2635ZM24.5353 10.1884L23.287 10.3427L23.4442 11.5844L24.6926 11.43L24.5353 10.1884ZM23.287 10.3427L22.0449 10.4963L22.2021 11.738L23.4442 11.5844L23.287 10.3427ZM22.0449 10.4963L20.7966 10.6507L20.9538 11.8923L22.2021 11.738L22.0449 10.4963ZM20.7966 10.6507L19.5545 10.8042L19.7117 12.0459L20.9538 11.8923L20.7966 10.6507ZM19.5545 10.8042L18.3062 10.9586L18.4634 12.2002L19.7117 12.0459L19.5545 10.8042ZM18.3062 10.9586L17.0579 11.1129L17.2151 12.3546L18.4634 12.2002L18.3062 10.9586ZM17.0579 11.1129L15.8406 11.2635L15.9978 12.5051L17.2151 12.3546L17.0579 11.1129ZM15.6826 10.0156L14.4343 10.17L14.5923 11.4178L15.8406 11.2635L15.6826 10.0156ZM25.5946 8.79L24.3773 8.94051L24.5353 10.1884L25.7526 10.0379L25.5946 8.79ZM24.3773 8.94051L23.129 9.09486L23.287 10.3427L24.5353 10.1884L24.3773 8.94051ZM23.129 9.09486L21.8869 9.24845L22.0449 10.4963L23.287 10.3427L23.129 9.09486ZM21.8869 9.24845L20.6386 9.4028L20.7966 10.6507L22.0449 10.4963L21.8869 9.24845ZM15.5254 8.77395L14.2771 8.9283L14.4343 10.17L15.6826 10.0156L15.5254 8.77395ZM25.5946 8.79L26.8243 8.63795L26.6671 7.3963L25.4374 7.54834L25.5946 8.79ZM25.4374 7.54834L24.2201 7.69886L24.3773 8.94051L25.5946 8.79L25.4374 7.54834ZM24.2201 7.69886L22.9718 7.85321L23.129 9.09486L24.3773 8.94051L24.2201 7.69886ZM22.9718 7.85321L21.7297 8.00679L21.8869 9.24845L23.129 9.09486L22.9718 7.85321ZM15.3674 7.52609L14.1191 7.68044L14.2771 8.9283L15.5254 8.77395L15.3674 7.52609ZM25.4374 7.54834L26.6671 7.3963L26.5091 6.14844L25.2794 6.30048L25.4374 7.54834ZM25.2794 6.30048L24.0621 6.451L24.2201 7.69886L25.4374 7.54834L25.2794 6.30048ZM24.0621 6.451L22.8138 6.60535L22.9718 7.85321L24.2201 7.69886L24.0621 6.451ZM20.3234 6.91329L19.0813 7.06687L19.2393 8.31473L20.4814 8.16115L20.3234 6.91329ZM19.0813 7.06687L17.833 7.22122L17.991 8.46908L19.2393 8.31473L19.0813 7.06687ZM17.833 7.22122L16.5846 7.37558L16.7426 8.62344L17.991 8.46908L17.833 7.22122ZM16.5846 7.37558L15.3674 7.52609L15.5254 8.77395L16.7426 8.62344L16.5846 7.37558ZM25.2794 6.30048L26.5091 6.14844L26.3511 4.90058L25.1214 5.05262L25.2794 6.30048ZM25.1214 5.05262L23.9041 5.20314L24.0621 6.451L25.2794 6.30048L25.1214 5.05262ZM21.4137 5.51107L20.1654 5.66543L20.3234 6.91329L21.5717 6.75893L21.4137 5.51107ZM20.1654 5.66543L18.9233 5.81901L19.0813 7.06687L20.3234 6.91329L20.1654 5.66543ZM18.9233 5.81901L17.6749 5.97336L17.833 7.22122L19.0813 7.06687L18.9233 5.81901ZM17.6749 5.97336L16.4266 6.12772L16.5846 7.37558L17.833 7.22122L17.6749 5.97336ZM16.4266 6.12772L15.2094 6.27823L15.3674 7.52609L16.5846 7.37558L16.4266 6.12772ZM15.0553 5.06141L13.807 5.21576L13.961 6.43258L15.2094 6.27823L15.0553 5.06141ZM24.9673 3.83581L23.75 3.98632L23.9041 5.20314L25.1214 5.05262L24.9673 3.83581ZM23.75 3.98632L22.5017 4.14067L22.6558 5.35749L23.9041 5.20314L23.75 3.98632ZM20.0113 4.44861L18.7692 4.60219L18.9233 5.81901L20.1654 5.66543L20.0113 4.44861ZM18.7692 4.60219L17.5209 4.75655L17.6749 5.97336L18.9233 5.81901L18.7692 4.60219ZM17.5209 4.75655L16.2726 4.9109L16.4266 6.12772L17.6749 5.97336L17.5209 4.75655ZM16.2726 4.9109L15.0553 5.06141L15.2094 6.27823L16.4266 6.12772L16.2726 4.9109ZM14.8973 3.81355L13.649 3.9679L13.807 5.21576L15.0553 5.06141L14.8973 3.81355ZM23.592 2.73846L22.3437 2.89281L22.5017 4.14067L23.75 3.98632L23.592 2.73846ZM22.3437 2.89281L21.1016 3.0464L21.2596 4.29426L22.5017 4.14067L22.3437 2.89281ZM14.7401 2.5719L13.4917 2.72625L13.649 3.9679L14.8973 3.81355L14.7401 2.5719ZM22.1865 1.65116L20.9444 1.80474L21.1016 3.0464L22.3437 2.89281L22.1865 1.65116ZM20.9444 1.80474L19.6961 1.9591L19.8533 3.20075L21.1016 3.0464L20.9444 1.80474ZM14.5821 1.32404L13.3337 1.47839L13.4917 2.72625L14.7401 2.5719L14.5821 1.32404ZM20.7864 0.556885L19.5381 0.711237L19.6961 1.9591L20.9444 1.80474L20.7864 0.556885ZM19.5381 0.711237L18.296 0.864822L18.454 2.11268L19.6961 1.9591L19.5381 0.711237ZM18.296 0.864822L17.0476 1.01917L17.2056 2.26703L18.454 2.11268L18.296 0.864822ZM17.0476 1.01917L15.7993 1.17353L15.9573 2.42139L17.2056 2.26703L17.0476 1.01917ZM15.7993 1.17353L14.5821 1.32404L14.7401 2.5719L15.9573 2.42139L15.7993 1.17353Z" fill="white"/>
<path d="M5.40364 13.8153L6.64575 13.6617L6.80061 14.8847L5.55851 15.0383L5.40364 13.8153ZM6.64575 13.6617L7.89407 13.5073L8.04893 14.7304L6.80061 14.8847L6.64575 13.6617ZM7.89407 13.5073L9.13617 13.3537L9.29104 14.5768L8.04893 14.7304L7.89407 13.5073ZM9.13617 13.3537L10.3845 13.1994L10.5394 14.4224L9.29104 14.5768L9.13617 13.3537ZM10.3845 13.1994L11.6328 13.045L11.7877 14.2681L10.5394 14.4224L10.3845 13.1994ZM11.6328 13.045L12.8501 12.8945L13.0049 14.1176L11.7877 14.2681L11.6328 13.045ZM12.6929 11.6529L13.9412 11.4985L14.0984 12.7402L12.8501 12.8945L12.6929 11.6529ZM3.99811 12.728L5.24643 12.5736L5.40364 13.8153L4.15533 13.9696L3.99811 12.728ZM5.24643 12.5736L6.48853 12.42L6.64575 13.6617L5.40364 13.8153L5.24643 12.5736ZM6.48853 12.42L7.73685 12.2657L7.89407 13.5073L6.64575 13.6617L6.48853 12.42ZM7.73685 12.2657L8.97896 12.1121L9.13617 13.3537L7.89407 13.5073L7.73685 12.2657ZM8.97896 12.1121L10.2273 11.9577L10.3845 13.1994L9.13617 13.3537L8.97896 12.1121ZM10.2273 11.9577L11.4756 11.8034L11.6328 13.045L10.3845 13.1994L10.2273 11.9577ZM11.4756 11.8034L12.6929 11.6529L12.8501 12.8945L11.6328 13.045L11.4756 11.8034ZM12.5348 10.405L13.7832 10.2507L13.9412 11.4985L12.6929 11.6529L12.5348 10.405ZM2.62284 11.6306L3.8401 11.4801L3.99811 12.728L2.78084 12.8785L2.62284 11.6306ZM3.8401 11.4801L5.08842 11.3258L5.24643 12.5736L3.99811 12.728L3.8401 11.4801ZM5.08842 11.3258L6.33053 11.1722L6.48853 12.42L5.24643 12.5736L5.08842 11.3258ZM6.33053 11.1722L7.57884 11.0178L7.73685 12.2657L6.48853 12.42L6.33053 11.1722ZM12.3776 9.16337L13.6259 9.00901L13.7832 10.2507L12.5348 10.405L12.3776 9.16337ZM2.62284 11.6306L1.39315 11.7827L1.23593 10.541L2.46562 10.389L2.62284 11.6306ZM2.46562 10.389L3.68288 10.2385L3.8401 11.4801L2.62284 11.6306L2.46562 10.389ZM3.68288 10.2385L4.9312 10.0841L5.08842 11.3258L3.8401 11.4801L3.68288 10.2385ZM4.9312 10.0841L6.17331 9.93052L6.33053 11.1722L5.08842 11.3258L4.9312 10.0841ZM12.2196 7.91551L13.4679 7.76115L13.6259 9.00901L12.3776 9.16337L12.2196 7.91551ZM2.46562 10.389L1.23593 10.541L1.07793 9.29316L2.30761 9.14111L2.46562 10.389ZM2.30761 9.14111L3.52488 8.9906L3.68288 10.2385L2.46562 10.389L2.30761 9.14111ZM3.52488 8.9906L4.77319 8.83625L4.9312 10.0841L3.68288 10.2385L3.52488 8.9906ZM7.26362 8.52831L8.50572 8.37472L8.66373 9.62258L7.42162 9.77617L7.26362 8.52831ZM8.50572 8.37472L9.75404 8.22037L9.91205 9.46823L8.66373 9.62258L8.50572 8.37472ZM9.75404 8.22037L11.0024 8.06602L11.1604 9.31388L9.91205 9.46823L9.75404 8.22037ZM11.0024 8.06602L12.2196 7.91551L12.3776 9.16337L11.1604 9.31388L11.0024 8.06602ZM2.30761 9.14111L1.07793 9.29316L0.919922 8.0453L2.14961 7.89325L2.30761 9.14111ZM2.14961 7.89325L3.36687 7.74274L3.52488 8.9906L2.30761 9.14111L2.14961 7.89325ZM5.8573 7.4348L7.10561 7.28045L7.26362 8.52831L6.0153 8.68266L5.8573 7.4348ZM7.10561 7.28045L8.34772 7.12686L8.50572 8.37472L7.26362 8.52831L7.10561 7.28045ZM8.34772 7.12686L9.59604 6.97251L9.75404 8.22037L8.50572 8.37472L8.34772 7.12686ZM9.59604 6.97251L10.8444 6.81816L11.0024 8.06602L9.75404 8.22037L9.59604 6.97251ZM10.8444 6.81816L12.0616 6.66765L12.2196 7.91551L11.0024 8.06602L10.8444 6.81816ZM11.9075 5.45083L13.1559 5.29648L13.3099 6.51329L12.0616 6.66765L11.9075 5.45083ZM1.99553 6.67643L3.2128 6.52592L3.36687 7.74274L2.14961 7.89325L1.99553 6.67643ZM3.2128 6.52592L4.46111 6.37157L4.61519 7.58839L3.36687 7.74274L3.2128 6.52592ZM6.95154 6.06363L8.19364 5.91005L8.34772 7.12686L7.10561 7.28045L6.95154 6.06363ZM8.19364 5.91005L9.44196 5.75569L9.59604 6.97251L8.34772 7.12686L8.19364 5.91005ZM9.44196 5.75569L10.6903 5.60134L10.8444 6.81816L9.59604 6.97251L9.44196 5.75569ZM10.6903 5.60134L11.9075 5.45083L12.0616 6.66765L10.8444 6.81816L10.6903 5.60134ZM11.7495 4.20297L12.9979 4.04862L13.1559 5.29648L11.9075 5.45083L11.7495 4.20297ZM3.05479 5.27806L4.30311 5.12371L4.46111 6.37157L3.2128 6.52592L3.05479 5.27806ZM4.30311 5.12371L5.54521 4.97012L5.70322 6.21798L4.46111 6.37157L4.30311 5.12371ZM11.5923 2.96132L12.8406 2.80696L12.9979 4.04862L11.7495 4.20297L11.5923 2.96132ZM4.14589 3.88206L5.388 3.72847L5.54521 4.97012L4.30311 5.12371L4.14589 3.88206ZM5.388 3.72847L6.63631 3.57412L6.79353 4.81577L5.54521 4.97012L5.388 3.72847ZM11.4343 1.71346L12.6826 1.5591L12.8406 2.80696L11.5923 2.96132L11.4343 1.71346ZM5.22999 2.48061L6.47831 2.32626L6.63631 3.57412L5.388 3.72847L5.22999 2.48061ZM6.47831 2.32626L7.72041 2.17268L7.87842 3.42054L6.63631 3.57412L6.47831 2.32626ZM7.72041 2.17268L8.96873 2.01832L9.12674 3.26618L7.87842 3.42054L7.72041 2.17268ZM8.96873 2.01832L10.217 1.86397L10.3751 3.11183L9.12674 3.26618L8.96873 2.01832ZM10.217 1.86397L11.4343 1.71346L11.5923 2.96132L10.3751 3.11183L10.217 1.86397Z" fill="white"/>
</svg>
